<svg width="28" height="30" viewBox="0 0 28 30" fill="none" xmlns="http://www.w3.org/2000/svg">
<path d="M0.110742 1.78467C0.0107422 2.08467 0.0107422 2.28467 0.0107422 2.58467V27.6847C0.0107422 27.9847 0.0107422 28.1847 0.110742 28.4847L14.2107 15.1847L0.110742 1.78467Z" fill="white"/>
<path d="M19.7106 9.9848L3.31064 0.784803C2.71064 0.484803 2.01064 0.284803 1.41064 0.484803L15.5106 13.8848L19.7106 9.9848Z" fill="white"/>
<path d="M25.8106 13.2848L21.4106 10.8848L16.9106 15.1848L21.5106 19.5848L25.8106 17.2848C27.8106 15.9848 27.0106 14.0848 25.8106 13.2848Z" fill="white"/>
<path d="M1.41064 29.7848C2.01064 29.9848 2.71064 29.7848 3.31064 29.4848L19.7106 20.3848L15.5106 16.3848L1.41064 29.7848Z" fill="white"/>
</svg>
