<svg width="50" height="50" viewBox="0 0 50 50" fill="none" xmlns="http://www.w3.org/2000/svg">
<path d="M25 8.15214C25.5979 8.15214 26.087 7.66301 26.087 7.06519V6.52171C26.087 5.92388 25.5979 5.43475 25 5.43475C24.4022 5.43475 23.9131 5.92388 23.9131 6.52171V7.06519C23.9131 7.66301 24.4022 8.15214 25 8.15214Z" fill="#56B84E"/>
<path d="M25 41.8478C24.4022 41.8478 23.9131 42.337 23.9131 42.9348V43.4783C23.9131 44.0761 24.4022 44.5652 25 44.5652C25.5979 44.5652 26.087 44.0761 26.087 43.4783V42.9348C26.087 42.337 25.5979 41.8478 25 41.8478Z" fill="#56B84E"/>
<path d="M7.06525 23.913H6.52177C5.92394 23.913 5.43481 24.4022 5.43481 25C5.43481 25.5978 5.92394 26.0869 6.52177 26.0869H7.06525C7.66307 26.0869 8.1522 25.5978 8.1522 25C8.1522 24.4022 7.66307 23.913 7.06525 23.913Z" fill="#56B84E"/>
<path d="M43.4783 23.913H42.9349C42.337 23.913 41.8479 24.4022 41.8479 25C41.8479 25.5978 42.337 26.0869 42.9349 26.0869H43.4783C44.0762 26.0869 44.5653 25.5978 44.5653 25C44.5653 24.4022 44.0762 23.913 43.4783 23.913Z" fill="#56B84E"/>
<path d="M12.7175 11.1957C12.2827 10.7609 11.6305 10.7609 11.1957 11.1957C10.7609 11.6304 10.7609 12.2826 11.1957 12.7174L11.5762 13.0978C11.7935 13.3152 12.0653 13.4239 12.337 13.4239C12.6088 13.4239 12.8805 13.3152 13.0979 13.0978C13.5327 12.663 13.5327 12.0109 13.0979 11.5761L12.7175 11.1957Z" fill="#56B84E"/>
<path d="M11.5762 36.9023L11.1957 37.2827C10.7609 37.7175 10.7609 38.3697 11.1957 38.8044C11.4131 39.0218 11.6848 39.1305 11.9566 39.1305C12.2283 39.1305 12.5001 39.0218 12.7175 38.8044L13.0979 38.424C13.5327 37.9892 13.5327 37.337 13.0979 36.9023C12.6631 36.4675 12.0109 36.4675 11.5762 36.9023Z" fill="#56B84E"/>
<path d="M37.2827 11.1957L36.9023 11.5761C36.4675 12.0109 36.4675 12.663 36.9023 13.0978C37.1197 13.3152 37.3914 13.4239 37.6631 13.4239C37.9349 13.4239 38.2066 13.3152 38.424 13.0978L38.8044 12.7174C39.2392 12.2826 39.2392 11.6304 38.8044 11.1957C38.3697 10.7609 37.7175 10.7609 37.2827 11.1957Z" fill="#56B84E"/>
<path d="M26.087 24.5652V14.6739C26.087 14.0761 25.5979 13.587 25 13.587C24.4022 13.587 23.9131 14.0761 23.9131 14.6739V25C23.9131 25.2718 24.0218 25.5435 24.2392 25.7609L36.1413 37.6631C36.3587 37.8805 36.6305 37.9892 36.9022 37.9892C37.1739 37.9892 37.4457 37.8805 37.6631 37.6631C38.0978 37.2283 38.0978 36.5761 37.6631 36.1413L26.087 24.5652Z" fill="#56B84E"/>
<path d="M25 0C11.1957 0 0 11.1957 0 25C0 38.8043 11.1957 50 25 50C38.8043 50 50 38.8043 50 25C50 11.1957 38.8043 0 25 0ZM25 47.8261C12.3913 47.8261 2.17391 37.6087 2.17391 25C2.17391 12.3913 12.3913 2.17391 25 2.17391C37.6087 2.17391 47.8261 12.3913 47.8261 25C47.8261 37.6087 37.6087 47.8261 25 47.8261Z" fill="#56B84E"/>
</svg>
