<svg width="50" height="50" viewBox="0 0 50 50" fill="none" xmlns="http://www.w3.org/2000/svg">
<g clip-path="url(#clip0)">
<path d="M23.9099 30.0781H18.6203V18.0339C18.6203 17.4945 18.1831 17.0573 17.6438 17.0573C17.1044 17.0573 16.6672 17.4945 16.6672 18.0339V24.7722H14.3235V1.95312H16.6672V9.24482C16.6672 9.78418 17.1044 10.2214 17.6438 10.2214C18.1831 10.2214 18.6203 9.78418 18.6203 9.24482V0.976562C18.6203 0.437207 18.1831 0 17.6438 0H13.3469C12.8075 0 12.3703 0.437207 12.3703 0.976562V30.0781H7.08077C5.15118 30.0781 3.58126 31.648 3.58126 33.5776V36.1515C3.58126 40.5358 2.39201 44.8116 0.142103 48.5165C-0.0410026 48.8181 -0.0472526 49.1948 0.125697 49.5023C0.298646 49.8098 0.624036 50 0.976771 50H22.8518C23.193 50 23.5094 49.822 23.6864 49.5303C26.122 45.5197 27.4093 40.8935 27.4093 36.1515V33.5776C27.4094 31.648 25.8396 30.0781 23.9099 30.0781ZM14.3235 26.7253H16.6672V30.0781H14.3235V26.7253ZM7.08077 32.0312H23.9099C24.7625 32.0312 25.4563 32.7249 25.4563 33.5776V35.1685H5.53439V33.5776C5.53439 32.7249 6.22804 32.0312 7.08077 32.0312ZM22.2948 48.0469H17.2273C18.0615 46.4359 18.7279 44.7252 19.214 42.9411C19.3558 42.4207 19.0488 41.884 18.5284 41.7422C18.0077 41.6002 17.4713 41.9074 17.3295 42.4277C16.7882 44.4149 16.0057 46.3023 15.0021 48.0469H9.93556C10.7698 46.436 11.4362 44.7253 11.9223 42.9411C12.0641 42.4207 11.7571 41.884 11.2367 41.7422C10.7161 41.6002 10.1795 41.9073 10.0378 42.4277C9.4965 44.415 8.71398 46.3024 7.71046 48.0469H2.64562C4.39181 44.683 5.37316 40.9548 5.51613 37.128H25.4364C25.2808 40.9855 24.204 44.7315 22.2948 48.0469Z" fill="#56B84E"/>
<path d="M33.8869 37.8673C32.9293 37.8673 32.029 38.2401 31.3519 38.9174C30.9706 39.2987 30.9706 39.9171 31.3519 40.2984C31.7334 40.6798 32.3517 40.6798 32.7331 40.2984C33.0413 39.9902 33.4511 39.8205 33.8869 39.8205C34.3228 39.8205 34.7326 39.9902 35.0408 40.2985C35.349 40.6067 35.5188 41.0166 35.5188 41.4524C35.5188 41.8884 35.3491 42.2981 35.0408 42.6063C34.6594 42.9877 34.6594 43.606 35.0408 43.9874C35.2315 44.1781 35.4814 44.2734 35.7313 44.2734C35.9812 44.2734 36.2311 44.178 36.4219 43.9874C37.099 43.3102 37.4719 42.41 37.4719 41.4523C37.4719 40.4947 37.099 39.5944 36.4219 38.9174C35.7448 38.2402 34.8446 37.8673 33.8869 37.8673Z" fill="#56B84E"/>
<path d="M32.9934 25.9766C33.9088 25.9766 34.6536 26.7213 34.6536 27.6367C34.6536 28.1761 35.0909 28.6133 35.6301 28.6133C36.1694 28.6133 36.6067 28.1761 36.6067 27.6367C36.6067 25.6443 34.9858 24.0234 32.9934 24.0234C31.001 24.0234 29.3801 25.6443 29.3801 27.6367C29.3801 28.1761 29.8174 28.6133 30.3567 28.6133C30.8959 28.6133 31.3333 28.1761 31.3333 27.6367C31.3333 26.7213 32.0779 25.9766 32.9934 25.9766Z" fill="#56B84E"/>
<path d="M46.1217 37.6011C46.5799 36.763 46.8239 35.8191 46.8239 34.8437C46.8239 31.6674 44.2397 29.0832 41.0633 29.0832C39.57 29.0832 38.1542 29.6522 37.0768 30.6855C36.6875 31.0589 36.6745 31.677 37.0478 32.0663C37.4209 32.4556 38.0393 32.4684 38.4285 32.0952C39.1407 31.4124 40.0764 31.0363 41.0633 31.0363C43.1627 31.0363 44.8707 32.7443 44.8707 34.8437C44.8707 35.8202 44.5004 36.7492 43.8281 37.4596C43.5821 37.7194 43.498 38.093 43.6087 38.4333C43.7196 38.7735 44.0075 39.0259 44.3593 39.0911C46.496 39.4872 48.0469 41.3541 48.0469 43.5303C48.0469 46.0207 46.0207 48.0469 43.5303 48.0469C41.9427 48.0469 40.5003 47.2367 39.6718 45.8796C39.3907 45.4193 38.7899 45.2738 38.3295 45.5549C37.8691 45.8359 37.7238 46.4369 38.0048 46.8973C39.1907 48.8401 41.2565 50 43.5303 50C47.0977 50 50 47.0976 50 43.5303C50 40.9142 48.4348 38.61 46.1217 37.6011Z" fill="#56B84E"/>
<path d="M17.6436 12.6631C17.3867 12.6631 17.1348 12.7666 16.9531 12.9492C16.7715 13.1309 16.667 13.3818 16.667 13.6396C16.667 13.8965 16.7715 14.1484 16.9531 14.3301C17.1348 14.5117 17.3867 14.6162 17.6436 14.6162C17.9004 14.6162 18.1523 14.5117 18.334 14.3301C18.5156 14.1484 18.6201 13.8965 18.6201 13.6396C18.6201 13.3818 18.5156 13.1309 18.334 12.9492C18.1523 12.7666 17.9004 12.6631 17.6436 12.6631Z" fill="#56B84E"/>
</g>
<defs>
<clipPath id="clip0">
<rect width="50" height="50" fill="white"/>
</clipPath>
</defs>
</svg>
