<svg width="50" height="50" viewBox="0 0 50 50" fill="none" xmlns="http://www.w3.org/2000/svg">
<path d="M17.7083 39.5833H5.20833C2.33542 39.5833 0 37.2458 0 34.375V9.37496C0 6.50413 2.33542 4.16663 5.20833 4.16663H36.4583C39.3312 4.16663 41.6667 6.50413 41.6667 9.37496V17.7083C41.6667 18.2854 41.2 18.75 40.625 18.75C40.05 18.75 39.5833 18.2854 39.5833 17.7083V9.37496C39.5833 7.65204 38.1812 6.24996 36.4583 6.24996H5.20833C3.48542 6.24996 2.08333 7.65204 2.08333 9.37496V34.375C2.08333 36.0979 3.48542 37.5 5.20833 37.5H17.7083C18.2833 37.5 18.75 37.9666 18.75 38.5416C18.75 39.1166 18.2833 39.5833 17.7083 39.5833Z" fill="#56B84E"/>
<path d="M40.625 14.5833H1.04167C0.466667 14.5833 0 14.1167 0 13.5417C0 12.9667 0.466667 12.5 1.04167 12.5H40.625C41.2 12.5 41.6667 12.9667 41.6667 13.5417C41.6667 14.1167 41.2 14.5833 40.625 14.5833Z" fill="#56B84E"/>
<path d="M9.37492 10.4167C8.79992 10.4167 8.33325 9.95 8.33325 9.375V1.04167C8.33325 0.466667 8.79992 0 9.37492 0C9.94992 0 10.4166 0.466667 10.4166 1.04167V9.375C10.4166 9.95 9.94992 10.4167 9.37492 10.4167Z" fill="#56B84E"/>
<path d="M32.2917 10.4167C31.7167 10.4167 31.25 9.95 31.25 9.375V1.04167C31.25 0.466667 31.7167 0 32.2917 0C32.8667 0 33.3333 0.466667 33.3333 1.04167V9.375C33.3333 9.95 32.8667 10.4167 32.2917 10.4167Z" fill="#56B84E"/>
<path d="M34.3751 41.6667C34.098 41.6667 33.8334 41.5563 33.6376 41.3626L29.4709 37.1959C29.0647 36.7896 29.0647 36.1292 29.4709 35.723C29.8772 35.3167 30.5376 35.3167 30.9439 35.723L34.323 39.1021L40.8814 31.6063C41.2605 31.1709 41.9189 31.1292 42.3501 31.5084C42.7834 31.8876 42.8272 32.5459 42.448 32.9792L35.1564 41.3126C34.9668 41.5292 34.6959 41.6584 34.4084 41.6667C34.398 41.6667 34.3876 41.6667 34.3751 41.6667Z" fill="#56B84E"/>
<path d="M36.4584 50C28.9917 50 22.9167 43.925 22.9167 36.4583C22.9167 28.9916 28.9917 22.9166 36.4584 22.9166C43.9251 22.9166 50.0001 28.9916 50.0001 36.4583C50.0001 43.925 43.9251 50 36.4584 50ZM36.4584 25C30.1417 25 25.0001 30.1395 25.0001 36.4583C25.0001 42.777 30.1417 47.9166 36.4584 47.9166C42.7751 47.9166 47.9167 42.777 47.9167 36.4583C47.9167 30.1395 42.7751 25 36.4584 25Z" fill="#56B84E"/>
</svg>
