<svg width="50" height="50" viewBox="0 0 50 50" fill="none" xmlns="http://www.w3.org/2000/svg">
<path d="M25 0C11.1929 0 0 11.1929 0 25C0 38.8071 11.1929 50 25 50C38.8071 50 50 38.8071 50 25C49.9839 11.1995 38.8005 0.0161133 25 0ZM25 47.9167C12.3435 47.9167 2.0833 37.6565 2.0833 25C2.0833 12.3435 12.3435 2.0833 25 2.0833C37.6565 2.0833 47.9167 12.3435 47.9167 25C47.9023 37.6506 37.6506 47.9023 25 47.9167Z" fill="#56B84E"/>
<path d="M39.5952 19.4304C37.6682 14.3849 33.2721 10.6925 27.9697 9.66561H27.9666L30.7583 7.77499L29.5906 6.04999L24.4156 9.55419C23.9393 9.87684 23.8147 10.5245 24.1373 11.0008C24.1374 11.0009 24.1374 11.001 24.1375 11.0011L27.6427 16.175L29.3677 15.0073L27.0833 11.6354C34.4692 12.7811 39.5279 19.6975 38.3821 27.0834C37.6369 31.8872 34.3725 35.9223 29.8302 37.6543L30.5739 39.6022C38.6353 36.523 42.6743 27.4919 39.5952 19.4304Z" fill="#56B84E"/>
<path d="M25.8583 38.9968L22.3125 33.8448L20.5969 35.0271L22.8938 38.3604C15.5095 37.2004 10.4638 30.2739 11.6239 22.8896C12.3749 18.1085 15.6219 14.0923 20.1397 12.3563L19.3917 10.4115C11.3383 13.5114 7.3227 22.553 10.4227 30.6065C12.3619 35.6443 16.764 39.3243 22.0658 40.3396L19.2616 42.2709L20.4439 43.9865L25.5908 40.4448C26.0642 40.1187 26.184 39.4707 25.8583 38.9968Z" fill="#56B84E"/>
</svg>
