<svg width="50" height="50" viewBox="0 0 50 50" fill="none" xmlns="http://www.w3.org/2000/svg">
<path d="M39.0627 14.8437H25C24.4606 14.8437 24.0234 15.2809 24.0234 15.8203C24.0234 16.3596 24.4606 16.7968 25 16.7968H39.0627C39.602 16.7968 40.0392 16.3596 40.0392 15.8203C40.0392 15.2809 39.602 14.8437 39.0627 14.8437Z" fill="#56B84E"/>
<path d="M35.6455 19.8174C35.4639 19.6358 35.2119 19.5313 34.9551 19.5313C34.6982 19.5313 34.4463 19.6358 34.2646 19.8174C34.083 19.9991 33.9785 20.251 33.9785 20.5079C33.9785 20.7647 34.083 21.0167 34.2646 21.1983C34.4463 21.3799 34.6982 21.4844 34.9551 21.4844C35.2119 21.4844 35.4639 21.3799 35.6455 21.1983C35.8271 21.0167 35.9316 20.7647 35.9316 20.5079C35.9316 20.251 35.8271 19.9991 35.6455 19.8174Z" fill="#56B84E"/>
<path d="M25.6895 4.48544C25.5078 4.3038 25.2559 4.19931 24.999 4.19931C24.7422 4.19931 24.4902 4.3038 24.3086 4.48544C24.127 4.66708 24.0225 4.91904 24.0225 5.17587C24.0225 5.43271 24.127 5.68466 24.3086 5.8663C24.4902 6.04794 24.7422 6.15243 24.999 6.15243C25.2559 6.15243 25.5078 6.04794 25.6895 5.8663C25.8711 5.68466 25.9756 5.43271 25.9756 5.17587C25.9756 4.91904 25.8711 4.66708 25.6895 4.48544Z" fill="#56B84E"/>
<path d="M30.8473 19.5312H25C24.4606 19.5312 24.0234 19.9684 24.0234 20.5078C24.0234 21.0471 24.4606 21.4843 25 21.4843H30.8473C31.3867 21.4843 31.8239 21.0471 31.8239 20.5078C31.8239 19.9684 31.3867 19.5312 30.8473 19.5312Z" fill="#56B84E"/>
<path d="M39.0627 25.3906H25C24.4606 25.3906 24.0234 25.8278 24.0234 26.3671C24.0234 26.9065 24.4606 27.3437 25 27.3437H39.0627C39.602 27.3437 40.0392 26.9065 40.0392 26.3671C40.0392 25.8278 39.602 25.3906 39.0627 25.3906Z" fill="#56B84E"/>
<path d="M35.6455 30.3643C35.4639 30.1826 35.2119 30.0782 34.9551 30.0782C34.6982 30.0782 34.4463 30.1826 34.2646 30.3643C34.083 30.5459 33.9785 30.7979 33.9785 31.0547C33.9785 31.3115 34.083 31.5635 34.2646 31.7451C34.4463 31.9268 34.6982 32.0313 34.9551 32.0313C35.2119 32.0313 35.4639 31.9268 35.6455 31.7451C35.8271 31.5635 35.9316 31.3115 35.9316 31.0547C35.9316 30.7979 35.8271 30.5459 35.6455 30.3643Z" fill="#56B84E"/>
<path d="M30.8473 30.0781H25C24.4606 30.0781 24.0234 30.5153 24.0234 31.0546C24.0234 31.594 24.4606 32.0312 25 32.0312H30.8473C31.3867 32.0312 31.8239 31.594 31.8239 31.0546C31.8239 30.5153 31.3867 30.0781 30.8473 30.0781Z" fill="#56B84E"/>
<path d="M39.0627 35.9374H25C24.4606 35.9374 24.0234 36.3746 24.0234 36.914C24.0234 37.4534 24.4606 37.8906 25 37.8906H39.0627C39.602 37.8906 40.0392 37.4534 40.0392 36.914C40.0392 36.3746 39.602 35.9374 39.0627 35.9374Z" fill="#56B84E"/>
<path d="M35.6455 40.9112C35.4639 40.7295 35.2119 40.625 34.9551 40.625C34.6982 40.625 34.4463 40.7295 34.2646 40.9112C34.083 41.0928 33.9785 41.3448 33.9785 41.6016C33.9785 41.8584 34.083 42.1104 34.2646 42.292C34.4463 42.4737 34.6982 42.5782 34.9551 42.5782C35.2119 42.5782 35.4639 42.4737 35.6455 42.292C35.8271 42.1104 35.9316 41.8584 35.9316 41.6016C35.9316 41.3448 35.8271 41.0928 35.6455 40.9112Z" fill="#56B84E"/>
<path d="M30.8473 40.6249H25C24.4606 40.6249 24.0234 41.0621 24.0234 41.6015C24.0234 42.1409 24.4606 42.5781 25 42.5781H30.8473C31.3867 42.5781 31.8239 42.1409 31.8239 41.6015C31.8239 41.0621 31.3867 40.6249 30.8473 40.6249Z" fill="#56B84E"/>
<path d="M40.9415 3.80868H33.4827C32.4044 2.78124 30.9469 2.14843 29.3435 2.14843H28.488C27.834 0.853709 26.4904 0 24.9999 0C23.5093 0 22.1658 0.853709 21.5117 2.14843H20.6542C19.0508 2.14843 17.5933 2.78124 16.5151 3.80868H9.05839C6.43291 3.80868 4.29688 5.94472 4.29688 8.5702V45.2385C4.29688 47.864 6.43291 50 9.05839 50H40.9414C43.5669 50 45.7029 47.864 45.7029 45.2385V8.5702C45.703 5.94472 43.567 3.80868 40.9415 3.80868ZM20.6543 4.10155H22.1763C22.6156 4.10155 23.0007 3.80829 23.1176 3.38495C23.3506 2.54189 24.1246 1.95312 25 1.95312C25.8754 1.95312 26.6494 2.54189 26.8822 3.38495C26.9991 3.80829 27.3843 4.10155 27.8235 4.10155H29.3435C31.4631 4.10155 33.2079 5.73729 33.382 7.81258H16.6158C16.7899 5.73729 18.5347 4.10155 20.6543 4.10155ZM43.7499 45.2386C43.7499 46.7871 42.4901 48.047 40.9415 48.047H9.05839C7.50986 48.047 6.25 46.7871 6.25 45.2386V8.5702C6.25 7.02167 7.50986 5.76181 9.05839 5.76181H15.147C14.827 6.4954 14.6484 7.30419 14.6484 8.15438V8.78914C14.6484 9.3285 15.0856 9.7657 15.625 9.7657H34.3729C34.9122 9.7657 35.3495 9.3285 35.3495 8.78914V8.15438C35.3495 7.30428 35.1708 6.4954 34.8509 5.76181H40.9415C42.4901 5.76181 43.7499 7.02167 43.7499 8.5702V45.2386Z" fill="#56B84E"/>
<path d="M18.7901 14.609C18.4088 14.2276 17.7904 14.2276 17.4091 14.6089L13.2331 18.7849L11.9467 17.4984C11.5654 17.1172 10.947 17.1172 10.5656 17.4984C10.1842 17.8798 10.1842 18.4981 10.5656 18.8796L12.5426 20.8566C12.7333 21.0473 12.9832 21.1426 13.2331 21.1426C13.483 21.1426 13.733 21.0473 13.9236 20.8566L18.7901 15.9901C19.1715 15.6088 19.1715 14.9904 18.7901 14.609Z" fill="#56B84E"/>
<path d="M16.4062 35.9374H11.7187C11.1794 35.9374 10.7422 36.3746 10.7422 36.914V41.6015C10.7422 42.1408 11.1794 42.5781 11.7187 42.5781H16.4062C16.9456 42.5781 17.3828 42.1408 17.3828 41.6015V36.914C17.3828 36.3746 16.9456 35.9374 16.4062 35.9374ZM15.4297 40.6249H12.6953V37.8906H15.4297V40.6249Z" fill="#56B84E"/>
<path d="M16.4062 25.3906H11.7187C11.1794 25.3906 10.7422 25.8278 10.7422 26.3671V31.0546C10.7422 31.594 11.1794 32.0312 11.7187 32.0312H16.4062C16.9456 32.0312 17.3828 31.594 17.3828 31.0546V26.3671C17.3828 25.8278 16.9456 25.3906 16.4062 25.3906ZM15.4297 30.0781H12.6953V27.3437H15.4297V30.0781Z" fill="#56B84E"/>
</svg>
