<svg width="60" height="60" viewBox="0 0 60 60" fill="none" xmlns="http://www.w3.org/2000/svg">
<path d="M30 30C33.4518 30 36.25 27.2018 36.25 23.75C36.25 20.2982 33.4518 17.5 30 17.5C26.5482 17.5 23.75 20.2982 23.75 23.75C23.75 27.2018 26.5482 30 30 30Z" stroke="#56B84E" stroke-width="3" stroke-linecap="round" stroke-linejoin="round"/>
<path d="M20 46.25V42.9167C20 41.1486 20.7024 39.4529 21.9526 38.2026C23.2029 36.9524 24.8986 36.25 26.6667 36.25H33.3333C35.1014 36.25 36.7971 36.9524 38.0474 38.2026C39.2976 39.4529 40 41.1486 40 42.9167V46.25" stroke="#56B84E" stroke-width="3" stroke-linecap="round" stroke-linejoin="round"/>
<path d="M29.9678 7.5C35.8074 12.6664 43.429 15.3564 51.2178 15C52.3518 18.8575 52.6988 22.9037 52.2382 26.898C51.7775 30.8922 50.5186 34.7532 48.5364 38.2513C46.5541 41.7495 43.8888 44.8135 40.699 47.2612C37.5091 49.7089 33.8598 51.4905 29.9678 52.5C26.0759 51.4905 22.4265 49.7089 19.2367 47.2612C16.0469 44.8135 13.3816 41.7495 11.3993 38.2513C9.41705 34.7532 8.15818 30.8922 7.69754 26.898C7.23689 22.9037 7.58387 18.8575 8.71785 15C16.5067 15.3564 24.1283 12.6664 29.9678 7.5" stroke="#56B84E" stroke-width="3" stroke-linecap="round" stroke-linejoin="round"/>
</svg>
