<svg width="60" height="60" viewBox="0 0 60 60" fill="none" xmlns="http://www.w3.org/2000/svg">
<path d="M25.3896 14V22.5385L16.1687 39.141C16.0575 39.3712 15.9997 49.1121 16 49.3692C16.0003 49.6263 16.0586 49.8798 16.1704 50.1097C16.2821 50.3397 16.4442 50.5398 16.644 50.6943C16.8437 50.8488 17.0755 50.9534 17.3213 51H42.6787C42.9245 50.9534 43.1563 50.8488 43.356 50.6943C43.5558 50.5398 43.7179 50.3397 43.8296 50.1097C43.9414 49.8798 43.9997 49.6263 44 49.3692C44.0003 49.1121 43.9426 39.3712 43.8313 39.141L34.6104 22.5385V14" stroke="#56B84E" stroke-width="3" stroke-linecap="round" stroke-linejoin="round"/>
<path d="M19.5 33C27.5 40 30.5 29 40.5 33" stroke="#56B84E" stroke-width="3"/>
<path d="M35 14H42.3333L47 10.5L42.3333 7H19L22.7333 14H25" stroke="#56B84E" stroke-width="3" stroke-linecap="round" stroke-linejoin="round"/>
<path d="M38 14C38 20.72 38.8333 24.08 43 26C41.6111 24.4 39.25 19.76 40.9167 14" stroke="#56B84E" stroke-width="3" stroke-linecap="round" stroke-linejoin="round"/>
</svg>
