<svg width="27" height="33" viewBox="0 0 27 33" fill="none" xmlns="http://www.w3.org/2000/svg">
<path d="M22.5851 17.6081C22.5851 15.1081 23.9851 12.7081 26.0851 11.4081C24.6851 9.40811 22.4851 8.30811 20.0851 8.20811C17.5851 7.90811 15.0851 9.70811 13.8851 9.70811C12.6851 9.70811 10.5851 8.20811 8.48512 8.30811C5.68512 8.30811 3.08512 9.90811 1.78512 12.3081C-1.11488 17.3081 1.08512 24.7081 3.88512 28.7081C5.28512 30.7081 6.88512 32.9081 8.98512 32.8081C11.0851 32.7081 11.7851 31.5081 14.2851 31.5081C16.7851 31.5081 17.4851 32.8081 19.6851 32.8081C21.8851 32.8081 23.2851 30.8081 24.6851 28.8081C25.6851 27.4081 26.3851 25.8081 26.9851 24.2081C24.2851 23.1081 22.5851 20.5081 22.5851 17.6081ZM18.4851 5.50811C19.6851 4.10811 20.2851 2.20811 20.1851 0.308105C18.2851 0.508105 16.5851 1.40811 15.3851 2.80811C14.1851 4.20811 13.4851 6.00811 13.6851 7.80811C15.4851 7.80811 17.2851 7.00811 18.4851 5.50811Z" fill="white"/>
</svg>
