<svg width="268" height="30" viewBox="0 0 268 30" fill="none" xmlns="http://www.w3.org/2000/svg">
<path d="M10.514 4.36662C4.45461 4.36662 0 8.32662 0 15.0282C0 21.702 4.48227 25.6897 10.5416 25.6897C15.5496 25.6897 19.5615 22.7266 20.3639 17.8805L15.8816 17.4928C15.3283 20.3728 13.2255 21.8959 10.4033 21.8959C7.0001 21.8959 4.34393 19.5143 4.34393 15.0282C4.34393 10.8189 6.75108 8.16047 10.3756 8.16047C13.2255 8.16047 15.3006 9.71124 15.8816 12.6466L20.3362 12.2589C19.5892 7.35739 15.522 4.36662 10.514 4.36662Z" fill="#56B84E"/>
<path d="M27.3134 21.5912V4.67124H23.0248V25.3851H36.3333V21.5912H27.3134Z" fill="#56B84E"/>
<path d="M52.0993 8.43739V4.67124H38.8185V25.3851H52.127V21.5912H43.1071V16.6066H50.9096V12.9235H43.1071V8.43739H52.0993Z" fill="#56B84E"/>
<path d="M74.4432 25.3851L65.534 4.67124H61.9371L53.0556 25.3851H57.7315L59.447 21.3974H68.0518L69.7396 25.3851H74.4432ZM60.9688 17.9082L63.7633 11.2897L66.5578 17.9082H60.9688Z" fill="#56B84E"/>
<path d="M93.1765 25.3851V4.67124H88.9155V17.5205L79.8126 4.67124H76.1881V25.3851H80.4767V12.5635L89.5519 25.3851H93.1765Z" fill="#56B84E"/>
<path d="M154.482 8.43739V4.67124H136.359V8.43739H143.304V25.3851H147.565V8.43739H154.482Z" fill="#56B84E"/>
<path d="M160.496 3.86816H156.456V25.3851H160.496V17.4374C160.496 15.7205 161.547 14.5574 163.152 14.5574C164.701 14.5574 165.67 15.582 165.67 17.4097V25.3851H169.709V16.6343C169.709 12.9235 167.413 10.7912 164.12 10.7912C162.266 10.7912 161.104 11.5112 160.496 12.2866V3.86816Z" fill="#56B84E"/>
<path d="M174.972 3.95124C173.672 3.95124 172.565 5.03124 172.565 6.38816C172.565 7.71739 173.616 8.79739 174.972 8.79739C176.328 8.79739 177.407 7.71739 177.407 6.38816C177.407 5.03124 176.328 3.95124 174.972 3.95124ZM176.992 25.3851V11.0682H172.952V25.3851H176.992Z" fill="#56B84E"/>
<path d="M185.348 10.7912C181.751 10.7912 179.621 12.5635 179.621 15.3051C179.621 18.2405 181.641 18.8774 184.684 19.6528C186.759 20.1512 187.285 20.4282 187.285 21.2866C187.285 22.1174 186.593 22.5882 185.486 22.5882C184.103 22.5882 183.467 21.8682 183.411 20.8159L179.372 21.0374C179.676 24.0282 181.807 25.6897 185.459 25.6897C189.194 25.6897 191.324 23.8343 191.324 20.9266C191.324 18.3235 189.305 17.4374 186.455 16.6897C184.739 16.2466 183.66 16.1082 183.66 15.1112C183.66 14.3359 184.214 13.8928 185.293 13.8928C186.538 13.8928 187.064 14.6128 187.119 15.6374L191.131 15.4159C190.882 12.7574 188.973 10.7912 185.348 10.7912Z" fill="#56B84E"/>
<path d="M215.475 25.3851L222.697 4.67124H218.048L213.649 18.1297L209.222 4.67124H205.708L201.309 18.1297L196.882 4.67124H192.234L199.455 25.3851H203.08L207.479 12.2589L211.878 25.3851H215.475Z" fill="#56B84E"/>
<path d="M235.426 19.5143V17.9082C235.426 13.4497 232.714 10.7912 228.592 10.7912C224.331 10.7912 221.315 13.6159 221.315 18.2405C221.315 22.8374 224.331 25.6897 228.702 25.6897C232.05 25.6897 234.789 23.7512 235.287 21.0374L231.22 20.8435C230.916 21.8405 230.003 22.422 228.592 22.422C226.765 22.422 225.686 21.2866 225.603 19.5143H235.426ZM228.564 13.9482C230.39 13.9482 231.275 15.0835 231.358 16.8282H225.603C225.714 15.0005 226.848 13.9482 228.564 13.9482Z" fill="#56B84E"/>
<path d="M251.408 19.5143V17.9082C251.408 13.4497 248.697 10.7912 244.574 10.7912C240.313 10.7912 237.298 13.6159 237.298 18.2405C237.298 22.8374 240.313 25.6897 244.685 25.6897C248.033 25.6897 250.772 23.7512 251.27 21.0374L247.203 20.8435C246.899 21.8405 245.985 22.422 244.574 22.422C242.748 22.422 241.669 21.2866 241.586 19.5143H251.408ZM244.547 13.9482C246.373 13.9482 247.258 15.0835 247.341 16.8282H241.586C241.697 15.0005 242.831 13.9482 244.547 13.9482Z" fill="#56B84E"/>
<path d="M258.095 16.1635V3.86816H254.055V25.3851H258.095V21.5912L259.367 20.2066L263.103 25.3851H268L262.217 17.1882L267.613 11.0682H262.715L258.095 16.1635Z" fill="#56B84E"/>
<g clip-path="url(#clip0)">
<path d="M117.616 21.837C123.862 21.837 128.916 16.9485 128.916 10.9301C128.916 4.88855 123.862 0 117.616 0C111.371 0 106.317 4.88855 106.317 10.9301C106.341 16.9485 111.394 21.837 117.616 21.837Z" fill="#56B84E"/>
<path d="M111.776 2.51367C105.959 2.51367 100.094 4.95794 100.094 5.44219C100.094 5.92643 104.004 21.8142 112.276 14.9887" fill="white"/>
<path d="M111.776 2.51367C105.959 2.51367 101.763 4.95794 101.763 5.44219C101.763 5.92643 102.645 18.0556 112.276 14.9887" fill="#56B84E"/>
<path d="M128.916 11.1839C128.916 27.0717 126.008 30.0002 122.003 30.0002C118.498 30.0002 117.902 27.4176 117.902 26.4721C117.902 25.5267 120.215 23.1516 120.811 25.0194C121.025 25.7112 121.597 26.2646 122.336 25.9648C123.552 25.4806 124.697 21.8372 117.64 21.8372C113.54 21.8372 120.119 16.6489 121.454 14.4814C123.433 11.23 128.916 6.04169 128.916 11.1839Z" fill="#56B84E"/>
<path d="M122.575 17.3072C121.619 17.3072 120.845 16.5323 120.845 15.5765C120.845 14.6206 121.619 13.8457 122.575 13.8457C123.53 13.8457 124.305 14.6206 124.305 15.5765C124.305 16.5323 123.53 17.3072 122.575 17.3072Z" fill="white"/>
</g>
<defs>
<clipPath id="clip0">
<rect width="28.8212" height="30" fill="white" transform="matrix(-1 0 0 1 128.916 0)"/>
</clipPath>
</defs>
</svg>
