<svg width="320" height="247" viewBox="0 0 320 247" fill="none" xmlns="http://www.w3.org/2000/svg">
<g clip-path="url(#clip0)">
<path d="M68.3259 167.07C52.8753 135.736 49.2144 96.5629 49.1276 43.849L159.86 16.3338L270.592 43.849C270.505 96.5629 266.844 135.736 251.393 167.07C235.929 198.43 208.466 222.281 159.86 243.767C111.253 222.281 83.7897 198.43 68.3259 167.07Z" fill="white" stroke="#56B84E" stroke-width="5"/>
<mask id="mask0" mask-type="alpha" maskUnits="userSpaceOnUse" x="39" y="-37" width="278" height="284">
<path d="M39 35.7037L46.6259 41.8947C46.6259 149.314 60.7686 203.023 159.86 246.499C230.157 215.636 257.703 179.622 267.778 122.932C271.891 99.7392 317 129.68 317 98.4939V-35.5404L39 -36.2334V35.7037Z" fill="#C4C4C4"/>
</mask>
<g mask="url(#mask0)">
<g filter="url(#filter0_d)">
<path d="M217.008 213.132C212.155 216.92 207.186 220.547 202.75 224.797C202.495 225.052 202.218 225.306 201.964 225.56C197.411 230.041 192.79 234.477 188.168 238.866C172.708 253.535 156.855 267.788 140.633 281.602C138.484 283.45 136.519 284.028 134.162 282.134C131.551 280.031 129.055 277.768 126.744 275.342C126.444 275.019 126.144 274.695 125.843 274.372C123.001 271.276 125.797 266.956 127.854 264.323C136.15 253.789 144.446 243.324 152.996 232.998C161.939 222.187 170.998 211.445 180.149 200.796C184.725 195.482 189.323 190.169 193.945 184.902C194.638 184.117 195.332 183.216 196.071 182.292C198.937 178.596 202.172 174.345 206.632 173.56C212.71 172.474 219.943 173.005 226.02 173.791C226.043 173.791 226.066 173.791 226.09 173.791C230.203 174.345 232.029 177.672 232.953 181.368C233.392 183.17 233.623 185.064 233.785 186.75C235.056 199.34 226.02 206.224 217.008 213.132Z" fill="#56B84E"/>
<path d="M214.004 185.711C209.082 198.37 205.315 211.468 202.727 224.797C202.472 225.051 202.195 225.305 201.941 225.56C182.16 244.941 161.708 263.653 140.61 281.602C138.461 283.45 136.496 284.028 134.139 282.133C131.528 280.031 129.032 277.767 126.721 275.342C127.738 275.018 128.986 274.811 130.211 274.58C139.917 272.778 149.461 264.946 156.671 258.571C161.061 254.69 165.128 250.439 168.918 245.981C177.838 235.47 185.187 223.712 192.027 211.745C194.8 206.871 197.55 201.927 201.132 197.608C204.876 193.08 209.451 189.384 214.004 185.711Z" fill="#2F9227"/>
<path d="M238.938 290.034C239.123 291.859 237.875 292.806 236.211 293.476C233.461 294.585 230.665 295.509 227.8 296.271C225.789 296.802 222.762 297.934 220.821 296.71C220.289 296.363 219.896 295.855 219.504 295.37C213.981 288.232 208.712 280.909 203.72 273.401C203.258 272.685 202.773 271.992 202.311 271.276C197.458 263.907 190.964 255.729 188.838 247.043C188.191 244.387 188.006 241.638 188.145 238.866C188.399 233.506 189.762 228.054 191.057 223.018C193.344 214.078 196.672 205.439 200.462 197.053C202.334 192.918 204.321 188.806 206.355 184.74C206.586 184.278 206.84 183.655 207.117 182.962C208.296 180.074 209.913 175.823 212.224 175.107C212.71 174.946 213.241 174.922 213.75 174.876C217.863 174.599 221.953 174.253 226.02 173.791C229.972 173.329 233.924 172.751 237.852 172.012C239.308 171.735 240.833 171.434 242.289 171.758C243.306 171.966 244.184 172.589 244.923 173.49C247.512 176.563 248.598 182.777 248.852 185.849C248.852 185.918 248.852 185.988 248.875 186.08C249.615 196.868 241.896 207.679 236.997 216.781C236.234 218.19 235.472 219.599 234.686 221.009C229.764 229.902 224.588 238.658 219.134 247.228C218.903 247.575 218.672 247.967 218.672 248.36C218.672 248.383 218.672 248.406 218.672 248.429C218.695 248.753 218.857 249.053 219.018 249.353C222.785 256.076 226.39 262.867 229.81 269.774C231.52 273.216 233.161 276.705 234.755 280.193C236.073 283.104 238.152 286.453 238.846 289.549C238.892 289.687 238.915 289.872 238.938 290.034Z" fill="#56B84E"/>
<path d="M248.852 185.826C248.482 185.641 248.089 185.48 247.72 185.318C243.028 183.239 238.06 181.968 232.953 181.368C227.13 180.698 221.167 180.882 215.367 181.714C212.617 182.107 209.867 182.638 207.117 182.962C205.916 183.1 204.714 183.193 203.489 183.216C201.109 183.262 198.451 183.077 196.048 182.292C198.914 178.595 202.149 174.345 206.609 173.56C212.687 172.474 219.92 173.005 225.997 173.791C229.949 173.329 233.9 172.751 237.829 172.012C239.285 171.735 240.81 171.434 242.266 171.758C243.283 171.966 244.161 172.589 244.9 173.49C247.535 176.54 248.598 182.754 248.852 185.826Z" fill="#2F9227"/>
<path d="M199.306 105.759C200.508 103.934 201.502 101.97 202.264 99.9142C204.39 94.139 205.638 88.1097 204.899 81.9418C204.783 80.9947 204.645 80.0013 204.437 79.0311C203.882 77.9685 203.189 76.9982 202.38 76.0973C201.825 75.4967 201.225 74.9423 200.485 74.6419C199.376 74.1799 198.128 74.3185 196.949 74.5033C195.424 74.7343 193.922 75.0116 192.374 74.9654C192.281 74.9654 192.189 74.9654 192.073 74.9423C190.363 74.8499 188.7 74.3878 186.989 74.1799C183.523 73.741 179.872 74.4109 176.868 76.2128C173.864 78.0147 169.08 83.4434 169.08 83.4434C169.08 83.4434 170.79 91.5517 172.477 94.6242C173.355 96.195 174.464 97.6273 175.689 98.9209C176.752 100.03 177.954 101.023 179.132 102.016C180.103 102.825 181.258 102.964 182.391 103.426C185.025 104.534 187.382 106.429 190.271 106.844C192.628 107.168 194.985 106.429 197.227 105.666C197.966 105.505 198.659 105.643 199.306 105.759Z" fill="#443100"/>
<path d="M206.309 112.342C203.535 115.138 200.046 117.171 196.256 118.233C195.054 118.557 194.038 118.857 192.882 119.319C191.981 117.425 191.103 115.53 190.202 113.613C189.485 112.088 188.769 110.564 188.052 109.062C189.139 107.052 190.017 105.089 190.964 103.01C192.813 98.944 194.662 94.8551 195.794 90.5583C196.996 94.1852 198.521 97.6734 200.162 101.115C201.386 103.68 202.68 106.221 203.975 108.762C204.645 110.032 205.384 111.211 206.309 112.342Z" fill="#966C00"/>
<path d="M200.162 101.092C199.93 101.647 199.653 102.201 199.399 102.755C198.613 104.349 197.781 105.92 196.788 107.399C195.124 109.894 192.952 112.273 190.202 113.59C189.485 112.065 188.769 110.54 188.052 109.039C189.139 107.029 190.017 105.066 190.964 102.987C192.813 98.9208 194.662 94.8319 195.794 90.5352C196.996 94.1389 198.521 97.6502 200.162 101.092Z" fill="#784F00"/>
<path d="M197.897 92.1293C198.682 96.1719 198.151 100.561 196.949 104.465C195.678 108.531 190.918 112.55 186.25 111.95C182.136 111.418 179.987 108.508 178.323 105.227C176.359 101.37 174.672 97.3963 172.985 93.4229C172.223 91.6441 171.46 89.8192 171.067 87.948C170.929 87.2088 170.836 86.4465 170.836 85.6841C170.836 81.3412 172.962 77.4602 176.267 74.9654C178.716 73.1173 181.836 71.9854 185.21 71.9854C186.804 71.9854 188.33 72.2395 189.762 72.6784C193.529 73.8796 196.626 76.5362 198.266 79.932C199.121 81.6877 199.584 83.6282 199.584 85.661C199.607 87.9942 198.983 90.1888 197.897 92.1293Z" fill="#966C00"/>
<path d="M198.29 79.9089C198.082 80.2092 197.828 80.5096 197.481 80.6713C196.972 80.9254 196.349 80.8099 195.794 80.7406C192.882 80.3709 189.901 80.8099 187.221 81.988C184.679 83.1199 182.483 84.8756 180.126 86.3772C179.225 86.9547 178.301 87.486 177.284 87.7863C176.406 88.0173 175.504 88.0866 174.603 88.1097C173.448 88.1328 172.269 88.1097 171.114 87.9249C170.975 87.1857 170.883 86.4234 170.883 85.661C170.883 81.3181 173.009 77.4371 176.313 74.9423C177.03 74.7112 177.746 74.5033 178.485 74.3185C181.004 73.6948 183.546 73.2559 186.134 72.9556C187.359 72.817 188.584 72.7015 189.809 72.6553C193.552 73.8565 196.626 76.49 198.29 79.9089Z" fill="#784F00"/>
<path d="M301.91 78.4076C301.91 78.4538 301.91 78.4769 301.887 78.5C301.84 78.731 301.679 78.8927 301.494 79.0082C301.471 79.0313 301.425 79.0544 301.401 79.0544C301.378 79.0544 301.378 79.0775 301.355 79.0775C301.147 79.1699 300.893 79.193 300.639 79.1699C300.523 79.1468 300.385 79.1237 300.292 79.0775C299.714 78.8003 299.322 78.2228 298.975 77.6915C298.235 76.5595 297.404 75.4738 296.525 74.4342C296.133 73.9722 295.717 73.5102 295.278 73.0482C295.093 72.8403 294.446 72.3321 294.007 71.8469C293.683 71.5004 293.475 71.177 293.591 71.0153C293.775 70.7381 294.746 70.715 295.07 70.6457C295.578 70.5533 296.086 70.484 296.595 70.4378C296.71 70.4147 296.849 70.4147 296.965 70.4609C296.988 70.4609 296.988 70.4609 297.011 70.484C297.149 70.5302 297.265 70.6457 297.357 70.7612C297.473 70.8998 297.588 71.0384 297.704 71.177C297.727 71.2232 297.773 71.2463 297.796 71.2925C298.582 72.2628 299.299 73.2792 299.969 74.3187C300.015 74.388 300.061 74.4573 300.107 74.5497C300.685 75.4969 301.217 76.4671 301.679 77.4604C301.725 77.5297 301.748 77.6221 301.794 77.6915C301.864 77.9456 301.933 78.1766 301.91 78.4076Z" fill="#966C00"/>
<path d="M301.494 79.008C301.471 79.0311 301.425 79.0542 301.401 79.0542C301.378 79.0542 301.378 79.0773 301.355 79.0773C301.147 79.1697 300.893 79.1928 300.639 79.1697C300.546 79.008 300.431 78.8232 300.338 78.6615C299.691 77.5757 299.067 76.49 298.42 75.3811C298.282 75.127 297.704 74.5033 297.866 74.1799C298.097 73.6948 298.883 74.1568 299.091 74.4109C299.229 74.5495 299.345 74.7343 299.437 74.9191C300.246 76.2359 301.009 77.5757 301.494 79.008Z" fill="#784F00"/>
<path d="M303.828 79.2853C303.666 79.909 302.811 80.14 302.233 79.8628C301.887 79.7011 301.609 79.4239 301.355 79.1005C301.193 78.8926 301.055 78.6847 300.916 78.4768C299.946 77.0214 298.883 75.6354 297.704 74.3417C297.542 74.18 297.404 74.0183 297.242 73.8566C296.918 73.5101 295.278 72.2627 295.555 71.8237C295.578 71.8006 295.578 71.7775 295.624 71.7544C295.902 71.5465 296.757 71.5003 297.034 71.4541C297.288 71.4079 297.565 71.3617 297.82 71.3386C297.866 71.3386 297.935 71.3155 297.981 71.3155C298.074 71.2924 298.166 71.2924 298.259 71.2924C298.351 71.2693 298.467 71.2693 298.559 71.2693C298.698 71.2462 298.836 71.2462 298.975 71.2924C299.114 71.3386 299.229 71.4541 299.322 71.5696C299.738 72.0548 300.107 72.5399 300.5 73.025C300.87 73.5101 301.217 73.9952 301.54 74.5034C301.979 75.1503 302.372 75.8202 302.742 76.4901C302.95 76.8828 303.181 77.2755 303.366 77.6913C303.458 77.8993 303.551 78.0841 303.666 78.292C303.712 78.3613 303.735 78.4537 303.782 78.523C303.828 78.754 303.897 79.0081 303.828 79.2853Z" fill="#966C00"/>
<path d="M303.32 77.6452C302.811 77.2756 302.326 76.906 301.887 76.4901C300.754 75.4275 299.83 74.1338 298.628 73.1405L298.813 73.2329C298.813 73.1867 298.813 73.1636 298.813 73.1174C298.883 72.9788 299.044 72.9326 299.183 72.9095C299.599 72.8402 300.038 72.9095 300.454 73.0019C300.824 73.487 301.17 73.9721 301.494 74.4804C301.933 75.1272 302.326 75.7971 302.696 76.467C302.904 76.8366 303.112 77.2525 303.32 77.6452Z" fill="#784F00"/>
<path d="M307.364 78.6846C307.017 79.1004 306.324 79.008 305.838 78.777C304.637 78.2457 303.689 77.2986 302.696 76.4438C302.603 76.3745 302.534 76.3052 302.441 76.2359C301.702 75.6122 300.916 75.0578 300.084 74.5496C299.946 74.4572 299.807 74.3879 299.691 74.3186C298.929 73.8797 298.143 73.4869 297.334 73.1635C296.895 72.9787 296.41 72.7939 296.04 72.4936C295.786 72.2626 295.647 72.0085 295.601 71.7313C295.486 71.0845 295.948 70.4838 296.849 70.7841C297.15 70.8765 297.427 71.0614 297.704 71.1769C297.797 71.2231 297.866 71.2462 297.958 71.2693C298.051 71.2924 298.12 71.3155 298.213 71.3386C298.213 71.3155 298.213 71.2693 298.213 71.2462C298.259 70.9459 298.559 70.7379 298.86 70.6917C299.206 70.6455 299.53 70.761 299.83 70.8996C300.5 71.2231 301.101 71.662 301.702 72.1009C302.857 72.9556 303.99 73.8797 305.03 74.873C305.746 75.5429 306.393 76.259 306.994 77.0214C307.086 77.1369 307.179 77.2524 307.248 77.3679C307.341 77.5065 307.41 77.6451 307.456 77.8068C307.595 78.1071 307.572 78.4536 307.364 78.6846Z" fill="#966C00"/>
<path d="M295.301 73.0248C295.555 73.302 295.809 73.5792 296.063 73.8564C297.704 73.7409 299.414 73.9719 301.032 74.2029C302.025 74.3415 303.019 74.5264 303.99 74.7343C304.359 74.7805 304.706 74.8036 305.076 74.8498C304.036 73.8564 302.903 72.9555 301.748 72.0777C301.147 71.6387 300.546 71.1998 299.876 70.8764C299.576 70.7378 299.229 70.5992 298.906 70.6685C298.605 70.7147 298.305 70.9457 298.259 71.2229C298.166 71.2229 298.074 71.246 297.981 71.246C297.889 71.2229 297.796 71.1767 297.727 71.1536C297.612 71.015 297.496 70.8764 297.38 70.7378C297.288 70.6223 297.172 70.5068 297.034 70.4606C297.011 70.4606 297.011 70.4606 296.988 70.4375C296.549 70.5299 296.133 70.6454 295.717 70.784C295.139 70.9457 294.515 71.1536 294.168 71.6387C294.122 71.708 294.076 71.7774 294.053 71.8467C294.446 72.3318 295.093 72.84 295.301 73.0248Z" fill="#784F00"/>
<path d="M309.166 72.5398C308.011 73.1173 306.578 73.1173 305.307 73.1636C303.227 73.2098 301.124 73.256 299.044 73.3022C297.334 73.3484 295.301 73.0018 293.984 74.3417C293.845 74.4803 293.706 74.642 293.66 74.8499C293.568 75.1733 293.729 75.4967 293.937 75.7739C294.7 76.7211 295.717 77.2755 296.826 77.7375C297.797 78.1533 298.813 78.6384 299.229 79.678C299.276 79.7704 299.276 79.8397 299.299 79.9321C299.576 80.9254 298.628 81.295 297.82 81.2026C294.723 80.8792 291.696 79.9552 288.946 78.5229C288.461 78.2688 287.975 77.9916 287.49 77.8761C287.051 77.7837 286.612 77.8299 286.15 78.1302C286.011 78.2226 285.849 78.3381 285.664 78.4767C284.809 79.1236 283.7 80.14 282.614 81.1333C281.343 82.2884 280.072 83.4665 279.263 84.0671C277.599 85.3146 277.877 84.7371 276.097 85.8228C274.942 86.5158 273.994 85.9152 273.232 84.8064C272.076 83.12 271.383 80.2786 271.129 79.1467C271.06 78.8002 270.99 78.4767 271.013 78.1302C271.036 77.9916 271.083 77.853 271.129 77.7375C271.406 77.2062 272.03 76.9059 272.515 76.5825C273.209 76.0974 273.902 75.6122 274.618 75.1271C274.988 74.873 275.358 74.642 275.728 74.411C276.791 73.718 277.877 73.0711 279.009 72.4705C281.967 70.8997 285.179 69.7215 288.553 69.5136C291.858 69.3057 295.255 69.7677 298.559 69.9987C302.002 70.2297 305.422 70.4376 308.866 70.6687C310.021 70.738 310.044 72.1009 309.166 72.5398Z" fill="#966C00"/>
<path d="M282.614 81.1335C281.343 82.2885 280.072 83.4667 279.263 84.0673C277.599 85.3147 277.877 84.7372 276.097 85.8229C274.942 86.516 273.994 85.9153 273.232 84.8065C272.631 83.6284 272.099 82.3809 271.73 81.1104C271.406 80.0015 271.175 78.8696 271.152 77.7377C271.429 77.2063 272.053 76.906 272.538 76.5826C273.232 76.0975 273.925 75.6124 274.641 75.1273C275.011 74.8732 275.381 74.6421 275.751 74.4111C275.889 74.6652 276.028 74.8963 276.19 75.1504C277.253 76.8136 278.616 78.3152 280.187 79.5395C280.95 80.117 281.759 80.6715 282.614 81.1335Z" fill="#784F00"/>
<path d="M287.49 77.8761C287.051 77.7837 286.612 77.8299 286.15 78.1302C286.011 78.2226 285.849 78.3381 285.664 78.4767C285.179 77.3678 285.849 75.8201 286.404 74.8499C286.519 75.9356 286.912 76.9751 287.49 77.8761Z" fill="#784F00"/>
<path d="M173.239 99.3367C173.216 99.4753 173.17 99.637 173.031 99.7063C172.823 99.8218 172.569 99.6601 172.407 99.4753C171.206 98.1123 171.067 96.1257 170.189 94.5779C169.981 93.5615 169.981 92.4757 170.235 91.4593C170.258 91.3438 170.281 91.2283 170.328 91.1128C170.42 90.7894 170.582 90.4198 170.905 90.3043C171.113 90.235 171.368 90.3043 171.552 90.4198C172.061 90.7201 172.269 91.3207 172.454 91.8751C172.846 93.1457 173.193 94.4624 173.355 95.7792C173.494 96.9573 173.494 98.1585 173.239 99.3367Z" fill="#966C00"/>
<path d="M173.239 99.3366C173.216 99.4752 173.17 99.6369 173.031 99.7062C172.823 99.8217 172.569 99.66 172.407 99.4752C171.206 98.1122 171.067 96.1256 170.189 94.5778C169.981 93.5614 169.981 92.4757 170.235 91.4592C170.466 91.9212 170.744 92.3833 171.044 92.7991C171.737 93.8386 172.546 94.8088 173.378 95.7791C173.494 96.9572 173.494 98.1584 173.239 99.3366Z" fill="#784F00"/>
<path d="M169.08 95.0168C169.08 95.5019 169.011 96.3335 168.387 96.4028C167.716 96.4721 167.578 95.756 167.485 95.294C167.162 93.7462 166.63 92.2447 165.891 90.8355C165.521 90.1425 165.128 89.4957 164.735 88.8026C163.834 87.2087 163.072 85.5685 162.471 83.8359C162.401 83.6742 162.355 83.4894 162.378 83.3277C162.425 82.9812 162.841 82.7502 163.187 82.7733C163.233 82.7733 163.256 82.7733 163.28 82.7964C163.603 82.8657 163.88 83.0505 164.135 83.2584C164.319 83.4201 164.481 83.5818 164.643 83.7435C165.475 84.6214 166.099 85.7071 166.653 86.7698C167.971 89.3339 169.126 92.1061 169.08 95.0168Z" fill="#966C00"/>
<path d="M168.017 93.0533C166.908 89.4727 165.013 86.2155 163.326 82.8889C163.303 82.8427 163.28 82.8196 163.28 82.7734C163.603 82.8427 163.88 83.0275 164.135 83.2355C164.319 83.3972 164.481 83.5589 164.643 83.7206C164.805 83.9747 164.943 84.2057 165.105 84.4598C165.359 84.8756 165.614 85.2683 165.822 85.7072C166.099 86.2386 166.307 86.793 166.538 87.3474C167.254 89.2417 167.948 91.0435 168.017 93.0533Z" fill="#784F00"/>
<path d="M169.704 94.7165C169.704 94.9013 169.704 95.0861 169.588 95.2478C169.334 95.6406 168.595 95.5712 168.156 95.4095C168.133 94.37 167.994 93.3536 167.763 92.3371C167.023 89.2416 165.475 86.3078 164.042 83.4664C163.857 83.1199 163.719 82.6348 164.042 82.4269C164.135 82.3576 164.273 82.3345 164.389 82.3345C164.851 82.3345 165.267 82.5424 165.614 82.8427C165.983 83.1661 166.307 83.605 166.584 84.0208C166.862 84.4367 167.139 84.8525 167.347 85.2914C167.832 86.3078 167.948 87.4629 168.225 88.5486C168.248 88.5948 168.248 88.6641 168.271 88.7103C168.756 90.7432 169.704 92.6605 169.704 94.7165Z" fill="#966C00"/>
<path d="M168.225 90.9743C167.994 89.9117 167.786 88.826 167.555 87.7633C167.439 87.2089 167.324 86.6776 167.162 86.1463C166.931 85.4302 166.63 84.7371 166.261 84.0672C166.076 83.7207 165.868 83.3973 165.683 83.0739C165.637 83.0046 165.614 82.9353 165.591 82.866C165.96 83.1894 166.284 83.6283 166.561 84.0441C166.838 84.4599 167.116 84.8757 167.324 85.3147C167.809 86.3311 167.925 87.4861 168.202 88.5719C168.225 88.6181 168.225 88.6874 168.248 88.7336C168.179 89.4728 168.133 90.2351 168.225 90.9743Z" fill="#784F00"/>
<path d="M175.134 105.135C175.088 105.458 175.019 105.782 174.926 106.105C174.742 106.706 174.487 107.283 174.21 107.838C173.956 108.346 173.679 108.877 173.447 109.409C173.216 109.963 172.985 110.494 172.754 111.049C172.246 112.227 171.761 113.428 171.252 114.606C170.836 115.577 170.397 116.593 169.565 117.286C168.872 117.864 167.763 117.956 167.324 117.009C165.267 115.784 163.395 114.283 161.754 112.573C161.385 112.181 161.385 111.58 161.754 111.211C162.124 110.841 162.494 110.448 162.864 110.079C162.84 109.848 162.91 109.593 163.118 109.362C163.996 108.369 164.874 107.353 165.752 106.359C166.538 105.458 167.324 104.557 168.109 103.657C167.578 100.653 167.347 97.6503 167.254 94.601C167.254 94.5548 167.254 94.5086 167.254 94.4624C167.254 94.1621 167.3 93.8156 167.555 93.6539C167.647 93.5846 167.763 93.5615 167.809 93.4691C167.878 93.3767 167.878 93.2612 167.855 93.1457C167.855 93.0302 167.832 92.9147 167.832 92.7992C167.832 92.7299 167.832 92.6606 167.809 92.5913C167.786 92.1061 167.763 91.621 167.74 91.159C167.693 90.3967 167.647 89.6574 167.624 88.8951C167.601 88.5717 167.578 88.2714 167.578 87.948C167.555 87.5091 167.532 87.0933 167.508 86.6543C167.485 86.4233 167.485 86.1923 167.555 85.9613V85.9382C167.809 85.1297 169.011 85.1066 169.357 85.8458C169.473 86.0768 169.519 86.3309 169.542 86.585C169.773 88.1559 169.889 89.796 170.235 91.3438C170.282 91.4824 170.305 91.6441 170.351 91.7827C170.49 92.3371 170.698 92.8685 170.929 93.3998C171.645 94.9244 172.592 96.3336 173.401 97.7889C173.748 98.4127 174.071 99.0364 174.326 99.7063C174.649 100.492 174.88 101.323 175.019 102.155C175.227 103.079 175.296 104.142 175.134 105.135Z" fill="#966C00"/>
<path d="M172.777 111.049C172.269 112.227 171.783 113.428 171.275 114.606C170.859 115.577 170.42 116.593 169.588 117.286C168.895 117.864 167.786 117.956 167.347 117.009C165.29 115.785 163.418 114.283 161.777 112.574C161.408 112.181 161.408 111.58 161.777 111.211C162.147 110.841 162.517 110.448 162.887 110.079C162.863 109.848 162.933 109.593 163.141 109.362C164.019 108.369 164.897 107.353 165.775 106.359C166.676 107.745 167.809 109.016 169.195 109.848C170.305 110.471 171.506 110.841 172.777 111.049Z" fill="#784F00"/>
<path d="M175.134 105.135C175.088 105.458 175.019 105.782 174.926 106.105C174.741 106.706 174.487 107.283 174.21 107.838C173.771 107.653 173.355 107.422 172.939 107.191C172.384 106.844 171.899 106.475 171.414 106.082C172.061 106.336 172.777 106.429 173.471 106.313C173.725 106.267 173.979 106.198 174.233 106.082C174.626 105.897 174.926 105.528 175.134 105.135Z" fill="#784F00"/>
<path d="M278.57 84.9913C269.65 95.248 259.621 104.581 248.713 112.758C243.629 116.57 238.337 120.128 232.884 123.431C232.884 123.431 232.93 123.5 232.999 123.639C239.466 138.262 245.27 163.051 245.455 172.798C245.339 172.959 245.27 173.098 245.27 173.167C245.224 177.51 241.295 178.018 237.344 178.573C231.127 179.427 224.842 179.889 218.556 179.982C214.789 180.028 211.023 179.936 207.256 179.728C205.199 179.612 200.947 180.028 199.815 177.787C199.653 177.464 199.491 177.14 199.33 176.84C198.96 176.655 198.659 176.064 198.404 175.554C195.146 170.121 191.867 161.125 189.924 155.056C189.601 154.017 189.277 152.977 188.954 152.007C188.746 151.36 188.538 150.736 188.33 150.159C187.775 148.519 187.267 147.179 186.874 146.393C186.62 145.885 185.28 143.125 185.141 143.148C183.801 143.563 183.166 143.567 181.826 143.913C181.456 144.006 181.063 144.098 180.693 144.19C173.275 145.923 165.176 146.067 157.596 145.189C150.725 144.417 139.488 143.148 136.959 138.262C136.473 136.16 137.051 133.896 138.114 132.001C140.471 127.774 144.562 123.939 148.051 120.659C152.58 116.431 157.526 112.689 162.471 108.97C162.818 108.716 163.233 108.577 163.649 108.554C165.36 109.732 166.908 111.118 168.664 112.25C169.473 112.782 170.328 113.29 171.183 113.752C172.639 116.893 169.704 122.761 167.208 124.309C167.162 124.332 167.116 124.355 167.093 124.378C167.023 124.424 166.977 124.447 166.908 124.471C166.931 124.471 166.931 124.471 166.954 124.447C167.647 124.24 171.091 124.17 172.223 124.055C173.84 123.893 175.435 123.57 177.029 123.292C178.093 123.108 179.156 122.946 180.219 122.854C182.529 122.646 184.91 122.276 187.036 121.352C188.515 120.705 190.109 118.372 191.634 118.233C194.477 117.956 197.296 117.309 199.861 116.062C202.426 114.814 204.714 112.943 206.262 110.541C206.516 110.495 206.771 110.448 207.025 110.425C207.256 110.102 206.655 110.161 207.025 109.976C224.673 108.97 241.761 90.3284 273.74 75.312C274.734 77.4604 275.728 79.6319 276.768 81.7571C276.86 81.9188 278.524 84.9913 278.57 84.9913Z" fill="#FF7474"/>
<path d="M234.686 220.962C229.764 229.856 224.588 238.611 219.134 247.182C218.903 247.528 218.672 247.921 218.672 248.314C215.321 247.39 211.947 246.674 208.504 246.142C213.195 243.902 216.985 240.159 220.613 236.44C225.466 231.473 230.296 226.368 234.686 220.962Z" fill="#F83939" fill-opacity="0.1"/>
<path d="M245.455 172.751C245.34 172.913 245.27 173.051 245.27 173.121C245.224 177.464 241.295 177.972 237.344 178.526C231.128 179.381 224.842 179.843 218.556 179.935C214.79 179.982 211.023 179.889 207.256 179.681C205.199 179.566 200.947 179.982 199.815 177.741C199.653 177.417 199.491 177.094 199.33 176.794C198.96 176.609 198.613 176.401 198.29 176.147C200.115 176.54 202.01 176.655 203.859 176.447C205.384 176.262 206.863 175.893 208.365 175.569C213.495 174.46 218.787 174.114 224.01 174.507C225.42 174.622 226.621 174.946 228.031 174.992C233.069 175.153 238.199 175.292 242.982 173.744C243.814 173.444 244.646 173.121 245.455 172.751Z" fill="white"/>
<path d="M177.03 123.246C170.813 127.474 163.095 129.391 155.538 129.229C157.41 128.79 159.236 128.213 161.038 127.497C163.072 126.688 165.013 125.533 166.954 124.401C167.647 124.193 171.091 124.124 172.223 124.008C173.817 123.824 175.435 123.523 177.03 123.246Z" fill="#FFB0B0"/>
<path d="M185.54 144.041C185.285 143.533 185.077 143.279 184.939 143.302C183.598 143.718 182.258 144.087 180.918 144.434C180.548 144.526 180.155 144.619 179.785 144.711C180.918 143.856 181.981 142.886 182.582 141.615C183.437 139.814 183.229 137.711 182.974 135.748C183.945 138.474 184.8 141.246 185.54 144.041Z" fill="#FFB0B0"/>
<path d="M232.884 123.408C232.884 123.408 232.93 123.477 232.999 123.616C232.676 123.292 232.375 122.876 232.052 122.553C230.457 120.844 228.84 119.18 227.199 117.517C229.001 117.794 230.827 118.072 232.63 118.025C235.287 117.933 237.852 117.147 240.348 116.223C243.167 115.184 245.94 113.983 248.713 112.758C243.629 116.57 238.337 120.127 232.884 123.408Z" fill="#FFB0B0"/>
<path d="M205.43 110.332C204.598 112.781 201.779 114.583 199.538 115.599C198.382 116.131 197.134 116.5 195.886 116.755C194.615 117.009 192.928 117.424 191.727 116.847C190.594 116.339 189.624 118.002 190.756 118.51C192.281 119.203 193.876 119.042 195.494 118.787C197.134 118.533 198.729 118.048 200.231 117.378C203.096 116.131 206.262 113.913 207.302 110.841C207.695 109.663 205.823 109.154 205.43 110.332Z" fill="#FFB0B0"/>
<path d="M171.576 112.666C169.242 111.095 166.977 109.432 164.805 107.676C163.834 106.914 162.448 108.277 163.442 109.039C165.752 110.887 168.156 112.666 170.605 114.329C171.622 115.045 172.593 113.359 171.576 112.666Z" fill="#FFB0B0"/>
<path d="M279.633 83.9515C277.992 80.9484 276.375 77.9453 274.78 74.9191C274.202 73.8103 272.515 74.8036 273.116 75.8894C274.711 78.9156 276.328 81.9418 277.969 84.9218C278.57 86.0306 280.234 85.0373 279.633 83.9515Z" fill="#FFB0B0"/>
<path d="M236.406 132.431C227.85 136.948 219.145 141.063 210.191 144.776C203.327 147.617 196.279 150.413 188.977 151.937C188.769 151.29 188.561 150.667 188.353 150.089C191.334 149.489 194.269 148.634 197.157 147.687C206.909 144.453 216.407 140.225 225.651 135.744C229.035 134.115 232.4 132.41 235.71 130.645C235.895 131.155 236.15 131.92 236.406 132.431Z" fill="#9F1D00"/>
<path d="M238.446 138.92C230.786 142.8 222.92 146.255 214.882 149.234C209.174 151.36 203.397 153.231 197.55 154.894C195.216 155.541 192.859 156.234 190.479 156.788C190.294 156.188 190.109 155.564 189.924 154.986C193.229 154.201 196.487 153.208 199.676 152.261C211.138 148.888 222.346 144.568 233.115 139.393C234.731 138.626 236.324 137.836 237.91 137.023C237.936 137.279 238.446 138.554 238.446 138.92Z" fill="#9F1D00"/>
<path d="M240.827 147.486C233.349 150.755 225.69 153.61 217.909 156.049C209.451 158.683 200.832 160.808 192.12 162.402C191.958 161.801 191.773 161.178 191.588 160.554C194.962 159.93 198.336 159.237 201.687 158.452C213.958 155.61 225.997 151.706 237.598 146.786C238.514 146.397 239.429 146.002 240.343 145.601C240.486 145.955 240.827 146.975 240.827 147.486Z" fill="#9F1D00"/>
<path d="M242.65 154.63C234.734 158.225 226.542 161.215 218.163 163.557C211.831 165.336 205.384 166.722 198.867 167.715C197.527 167.92 196.186 168.125 194.833 168.305C194.51 167.715 194.323 167.133 194.068 166.489C196.449 166.181 198.812 165.803 201.155 165.405C213.981 163.187 226.575 159.468 238.545 154.34C239.79 153.81 241.035 153.257 242.272 152.689C242.527 153.099 242.527 154.12 242.65 154.63Z" fill="#9F1D00"/>
<path d="M200.346 87.9942C201.386 87.5784 203.558 87.6477 205.037 87.7863C205.176 85.869 205.13 83.9054 204.899 81.9649C204.645 79.7472 204.229 77.3679 203.235 75.335C202.68 74.1799 201.941 73.1635 201.063 72.3088C200.6 72.0085 200.115 71.7775 199.607 71.5696C197.712 70.8534 195.447 71.3616 193.899 72.6784C193.136 73.3021 192.535 74.1106 192.096 74.9885C191.634 75.9356 191.357 76.952 191.264 77.9916C191.103 80.0245 191.611 82.0573 192.489 83.8823C193.113 85.1759 193.922 86.4003 195.031 87.3012C196.787 88.7104 198.359 88.8028 200.346 87.9942Z" fill="#443100"/>
<path d="M166.013 80.3769C162.697 82.4182 164.483 88.287 168.818 88.287C172.389 88.287 174.174 86.2457 174.684 84.7147C176.47 85.7354 178.255 85.225 179.53 82.9285C181.316 83.4389 182.846 82.9285 185.396 80.8872C188.457 80.8872 191.517 78.5907 191.517 75.5288C191.772 75.6989 192.997 75.6308 195.853 73.9978C200.954 70.4255 195.088 64.8118 191.517 68.6392C193.558 63.0256 184.121 61.4944 183.611 67.6184C181.826 62.515 175.449 63.5359 175.96 68.6392C172.644 64.5566 166.523 67.6184 168.308 72.7219C162.952 71.4461 161.167 78.8459 166.013 80.3769Z" fill="#443100"/>
<path d="M198.313 87.5091C200.092 86.9546 202.195 88.1097 202.773 89.9808C203.189 91.2976 202.888 92.7298 202.449 94.0466C202.056 95.1785 201.525 96.2874 200.762 97.1652C199.976 98.043 198.913 98.6898 197.781 98.7591C197.481 98.7822 197.157 98.7591 196.88 98.6436C196.325 98.4126 195.932 97.8582 195.655 97.2807C194.916 95.7098 194.5 93.1688 194.8 91.4131C195.077 89.7729 196.834 87.9711 198.313 87.5091Z" fill="#966C00"/>
<path opacity="0.2" d="M189.416 68.9821C187.59 68.5201 185.626 68.8204 183.893 69.5134C182.714 69.9986 181.605 70.6685 180.357 70.8995C179.363 71.0843 178.277 71.015 177.469 71.5925C177.307 71.708 177.168 71.8235 177.122 72.0083C177.006 72.3317 177.237 72.6782 177.538 72.8399C177.838 72.9786 178.208 72.9786 178.532 72.9323C180.311 72.7244 181.952 71.8928 183.685 71.3615C184.886 70.9919 186.157 70.784 187.405 70.8995C188.653 71.015 189.901 71.477 190.825 72.3317C191.126 72.632 191.403 72.9554 191.75 73.2096C192.096 73.4637 192.512 73.6485 192.928 73.5561C194.477 73.2327 192.998 71.3153 192.443 70.7609C191.657 69.86 190.571 69.2593 189.416 68.9821Z" fill="white"/>
<path opacity="0.2" d="M196.187 74.2953C196.51 74.457 196.88 74.5032 197.227 74.5725C198.567 74.8266 199.953 75.2655 200.901 76.2819C201.386 76.8133 201.733 77.4832 202.287 77.9452C202.357 78.0145 202.449 78.0607 202.542 78.0838C202.75 78.1069 202.911 77.8528 202.958 77.6449C203.189 76.7209 202.842 75.7275 202.287 74.9421C201.386 73.7409 200 72.9554 198.567 72.5165C197.874 72.3086 196.603 71.9852 195.933 72.4703C195.216 73.0016 195.493 73.9488 196.187 74.2953Z" fill="white"/>
<path d="M184.984 99.918C183.992 100.528 182.364 100.732 181.677 99.5366C181.27 98.8246 181.474 97.96 182.034 97.4006C182.491 96.9428 183.127 96.714 183.763 96.6377C182.822 96.8666 181.805 97.7311 182.237 98.7992C182.644 99.7655 184.018 100.503 184.984 99.918Z" fill="#784F00"/>
<path d="M177.963 92.5691C177.2 92.6962 176.462 92.8742 175.75 93.1285C175.572 93.2048 175.369 93.2556 175.191 93.3319C174.809 93.4845 174.427 93.6625 174.071 93.8659C174.046 93.8914 173.995 93.9168 173.944 93.9422C173.868 93.9931 173.766 94.0439 173.715 94.0694C173.664 94.0948 173.664 94.0948 173.664 94.0948C173.664 94.0948 173.664 94.0694 173.664 94.0185C173.664 93.9422 173.69 93.8659 173.766 93.7642C174.097 93.2556 174.834 92.9251 175.369 92.6708C175.47 92.6199 175.572 92.5691 175.699 92.5436C176.081 92.4165 176.488 92.3148 176.895 92.2893H176.971C177.226 92.2639 177.633 92.2385 177.862 92.3402C177.887 92.3402 177.963 92.4928 177.963 92.5691Z" fill="#110F42"/>
<path d="M180.863 95.8239C180.1 95.9511 179.362 96.1291 178.65 96.3834C178.472 96.4597 178.269 96.5105 178.09 96.5868C177.709 96.7394 177.327 96.9174 176.971 97.1208C176.946 97.1462 176.895 97.1717 176.844 97.1971C176.768 97.248 176.666 97.2988 176.615 97.3242C176.564 97.3497 176.564 97.3497 176.564 97.3497C176.564 97.3497 176.564 97.3242 176.564 97.2734C176.564 97.1971 176.59 97.1208 176.666 97.0191C176.997 96.5105 177.734 96.1799 178.269 95.9257C178.37 95.8748 178.472 95.8239 178.599 95.7985C178.981 95.6714 179.388 95.5697 179.795 95.5442H179.871C180.125 95.5188 180.532 95.4934 180.761 95.5951C180.787 95.6205 180.863 95.7477 180.863 95.8239Z" fill="black"/>
<path d="M186.739 88.475C186.688 88.5259 186.536 88.5767 186.459 88.6022C186.409 88.6276 186.383 88.6276 186.332 88.653C185.976 88.8056 185.595 88.9836 185.213 89.187C184.374 89.6448 183.585 90.2042 182.847 90.8399C182.796 90.7891 182.746 90.6365 182.746 90.5856C182.771 90.5093 182.796 90.4331 182.873 90.3568C183 90.1788 183.153 90.0008 183.28 89.8482L183.331 89.7973C183.687 89.4159 184.094 89.1107 184.577 88.8565C185.111 88.6022 185.824 88.2207 186.434 88.297C186.536 88.3224 186.638 88.3479 186.688 88.3733C186.739 88.4242 186.739 88.4496 186.739 88.475Z" fill="#110F42"/>
<path d="M187.833 91.7299C187.782 91.7808 187.63 91.8316 187.553 91.857C187.502 91.8825 187.477 91.8825 187.426 91.9079C187.07 92.0605 186.688 92.2385 186.307 92.4419C185.467 92.8996 184.679 93.4591 183.941 94.0948C183.89 94.0439 183.839 93.8914 183.839 93.8405C183.865 93.7642 183.89 93.6879 183.967 93.6116C184.094 93.4336 184.246 93.2556 184.374 93.1031L184.424 93.0522C184.781 92.6708 185.188 92.3656 185.671 92.1113C186.205 91.857 186.917 91.4756 187.528 91.5519C187.63 91.5773 187.731 91.6028 187.782 91.6282C187.808 91.679 187.833 91.7299 187.833 91.7299Z" fill="black"/>
<path d="M179.54 96.8409C179.719 97.4004 179.566 97.9852 179.184 98.1124C178.803 98.2395 178.345 97.8835 178.167 97.2987C177.989 96.7392 178.141 96.1544 178.523 96.0272C178.879 95.9001 179.337 96.2815 179.54 96.8409Z" fill="black"/>
<path d="M186.612 93.4845C186.79 94.0439 186.638 94.6288 186.256 94.7559C185.875 94.8831 185.417 94.5271 185.239 93.9422C185.061 93.3828 185.213 92.7979 185.595 92.6708C185.976 92.5436 186.434 92.9251 186.612 93.4845Z" fill="black"/>
<path d="M186.174 93.143C185.843 93.1939 185.894 93.7024 186.225 93.6516C186.555 93.6262 186.504 93.1176 186.174 93.143Z" fill="white"/>
<path d="M178.957 96.5163C178.626 96.5671 178.677 97.0757 179.008 97.0248C179.364 96.974 179.288 96.4654 178.957 96.5163Z" fill="white"/>
<path d="M180.084 103.815C180.495 104.933 181.134 105.891 181.91 106.644C182.069 106.804 182.252 106.963 182.412 107.1C183.963 108.355 185.88 108.811 187.637 108.172C189.029 107.648 190.056 106.53 190.581 105.093C190.627 104.979 190.672 104.865 190.695 104.751C191.151 103.291 191.129 101.58 190.49 99.9146C190.421 99.7093 190.33 99.5268 190.239 99.3215L179.856 103.177C179.947 103.428 180.016 103.61 180.084 103.815Z" fill="#711919"/>
<path d="M189.098 104.34C189.234 103.838 189.326 103.291 189.143 102.812C188.915 102.173 188.276 101.717 187.614 101.58C186.953 101.443 186.245 101.58 185.606 101.808C184.967 102.036 184.351 102.333 183.689 102.538C183.393 102.629 183.073 102.721 182.799 102.857C182.503 102.994 182.252 103.2 182.115 103.496C181.932 103.861 182.024 104.317 182.161 104.705C182.571 105.754 183.553 106.53 184.648 106.804C185.492 107.009 186.359 106.895 187.181 106.598C187.751 106.393 188.185 106.233 188.527 105.709C188.801 105.253 188.983 104.796 189.098 104.34Z" fill="#B53434"/>
<path d="M182.435 107.123C183.987 108.378 185.903 108.834 187.66 108.195C189.052 107.67 190.079 106.553 190.604 105.116C190.285 104.91 189.942 104.728 189.577 104.591C188.345 104.135 186.885 104.112 185.47 104.637C184.397 105.024 183.53 105.686 182.891 106.461C182.709 106.667 182.572 106.895 182.435 107.123Z" fill="#F37C7C"/>
<path d="M181.248 102.72C181.567 102.88 181.887 103.017 182.252 103.108C183.393 103.428 184.716 103.382 186.017 102.88C187.386 102.355 188.481 101.443 189.12 100.394C189.257 100.143 189.394 99.8918 189.485 99.6409L181.248 102.72Z" fill="white"/>
</g>
<g filter="url(#filter1_d)">
<path d="M73.6635 93.9716C73.9871 97.1133 76.1824 99.7237 78.863 100.809C82.2831 102.195 85.1486 100.694 87.7137 98.2453C83.9239 101.872 86.1423 107.347 90.0708 109.657C91.6422 110.581 94.6926 111.251 96.9342 110.581C98.4132 110.142 99.5224 109.149 99.6148 107.255C99.4993 109.149 99.7535 111.136 100.701 112.753C103.613 117.673 109.921 116.102 113.134 112.66C114.012 111.713 114.728 110.558 115.005 109.241C114.774 110.327 116.9 112.314 117.617 112.799C118.749 113.561 120.089 113.861 121.407 113.792C124.156 113.654 126.814 112.244 128.663 110.004C129.703 108.733 132.037 104.552 130.881 102.658C132.037 104.552 133.724 106.769 135.965 106.7C136.427 106.677 136.866 106.608 137.282 106.492C140.887 105.407 141.95 100.347 141.881 96.5589C141.858 96.0045 141.581 95.1959 141.188 94.8032C142.921 96.2124 145.209 96.813 147.242 96.1662C149.322 95.5194 151.032 93.4865 151.309 91.1071C151.517 89.1435 150.477 86.0249 148.398 85.7015C147.127 85.4936 145.809 85.8863 144.515 85.7939C143.036 85.6784 141.581 85.355 140.194 84.8006C136.889 83.5069 134.301 81.1275 132.221 78.1937C128.917 73.5274 126.883 67.4287 125.335 62.0694C124.85 60.4061 124.411 58.7197 123.764 57.1258C123.533 56.5483 123.278 55.9938 122.978 55.4394C120.991 51.8588 115.953 51.6047 112.209 51.0734C107.68 50.4265 103.058 50.3803 98.6211 51.443C96.7031 51.905 94.8313 52.5749 93.075 53.4758C91.157 54.4461 91.3187 52.7135 89.7242 54.2151C89.6549 54.2844 89.6549 54.5154 89.6087 54.6078C89.5624 54.7002 89.4931 54.7695 89.4007 54.8388C89.2158 55.0005 89.0309 55.116 88.8923 55.3239C88.5919 55.7397 88.4763 56.2942 88.3839 56.8024C88.0604 58.558 87.991 60.3368 88.0142 62.1156C88.0142 63.8943 87.991 65.6731 88.0604 67.4518C88.1297 69.5771 88.0604 71.7024 87.8293 73.7815C87.2516 78.7944 85.7726 84.5696 81.2432 86.6486C77.6152 88.1964 73.132 88.797 73.6635 93.9716Z" fill="#39518F"/>
<path d="M96.9109 110.604C98.3899 110.165 99.4991 109.172 99.5915 107.277C99.476 109.172 99.7302 111.158 100.678 112.775C103.589 117.696 109.898 116.125 113.11 112.683C113.988 111.736 114.705 110.581 114.982 109.264C114.751 110.35 116.877 112.336 117.593 112.822C118.726 113.584 120.066 113.884 121.383 113.815C124.133 113.676 126.791 112.267 128.639 110.026C129.679 108.756 132.013 104.575 130.858 102.68C132.013 104.575 133.7 106.792 135.942 106.723C136.404 106.7 136.843 106.631 137.259 106.515C137.328 106.076 137.375 105.614 137.398 105.152C137.606 100.07 134.463 95.6576 131.667 91.5919C129.148 87.9419 126.791 84.0841 125.104 79.8567C123.81 76.6457 123.532 70.986 120.713 68.9993C119.419 68.0984 117.917 67.7749 116.461 67.3591C115.074 66.9664 113.688 66.4582 112.278 66.5044C109.736 66.5968 107.518 68.5142 106.039 70.8705C104.583 73.2036 103.728 75.9757 102.734 78.6323C100.747 83.9224 98.0663 88.8891 96.518 94.3871C95.0391 99.6079 94.6924 105.637 96.9109 110.604Z" fill="black" fill-opacity="0.3"/>
<path d="M148.837 8.01318C148.744 8.15178 148.675 8.29039 148.698 8.45209C148.744 8.7062 148.998 8.7755 149.23 8.7755C150.847 8.7755 152.303 7.48186 153.921 7.08914C154.753 6.53472 155.492 5.7493 156.047 4.82526C156.116 4.73286 156.162 4.61735 156.232 4.50185C156.416 4.17844 156.555 3.80883 156.44 3.46231C156.37 3.2313 156.185 3.0927 155.977 3.0003C155.469 2.81549 154.937 3.0696 154.452 3.32371C153.343 3.90123 152.234 4.57115 151.24 5.37968C150.316 6.11891 149.507 6.97364 148.837 8.01318Z" fill="#FFE193"/>
<path d="M148.837 8.01311C148.744 8.15171 148.675 8.29032 148.698 8.45202C148.744 8.70613 148.998 8.77543 149.23 8.77543C150.847 8.77543 152.303 7.48179 153.921 7.08908C154.753 6.53466 155.492 5.74923 156.047 4.8252C155.585 4.9638 155.122 5.0562 154.66 5.12551C153.528 5.31031 152.395 5.33341 151.263 5.35651C150.316 6.11884 149.507 6.97357 148.837 8.01311Z" fill="#FFCE6F"/>
<path d="M154.244 8.29037C153.921 8.63688 153.389 9.28371 153.69 9.83813C154.013 10.4156 154.591 10.046 154.984 9.76882C156.232 8.93719 157.595 8.29037 158.982 7.89766C159.675 7.68975 160.345 7.55114 161.038 7.38944C162.656 6.97362 164.25 6.4192 165.776 5.70308C165.914 5.63377 166.076 5.56447 166.192 5.40277C166.4 5.10246 166.33 4.61734 166.099 4.36323C166.076 4.34013 166.053 4.31703 166.03 4.29393C165.799 4.08602 165.498 3.99362 165.221 3.94741C165.013 3.90121 164.805 3.87811 164.597 3.87811C163.511 3.83191 162.402 4.10912 161.339 4.40943C158.797 5.17176 156.209 6.2113 154.244 8.29037Z" fill="#FFE193"/>
<path d="M156.208 7.78246C159.328 6.1423 162.679 5.33377 165.96 4.31733C165.984 4.31733 166.03 4.29423 166.053 4.29423C165.822 4.08633 165.521 3.99392 165.244 3.94772C165.036 3.90152 164.828 3.87842 164.62 3.87842C164.366 3.92462 164.112 3.99392 163.858 4.04012C163.418 4.13253 163.003 4.22493 162.563 4.34043C162.032 4.50214 161.524 4.71005 161.015 4.94106C159.282 5.68028 157.618 6.39641 156.208 7.78246Z" fill="#FFCE6F"/>
<path d="M154.082 7.57429C153.944 7.71289 153.828 7.8515 153.782 8.0363C153.643 8.52142 154.129 9.05274 154.498 9.30685C155.215 8.59072 156.024 7.967 156.856 7.45878C159.421 5.86482 162.355 5.01009 165.152 4.15536C165.498 4.06296 165.914 3.83195 165.868 3.41614C165.868 3.27753 165.799 3.16203 165.729 3.06963C165.452 2.70001 165.082 2.51521 164.666 2.4459C164.227 2.3766 163.742 2.4228 163.303 2.4921C162.864 2.56141 162.425 2.63071 161.986 2.79242C160.992 3.13893 160.137 3.83195 159.213 4.40947C159.166 4.43257 159.12 4.45567 159.074 4.50188C157.387 5.51831 155.515 6.14203 154.082 7.57429Z" fill="#FFE193"/>
<path d="M157.526 6.11912C158.404 5.5416 159.259 4.96408 160.137 4.36346C160.576 4.06315 161.015 3.76284 161.477 3.53183C162.101 3.20842 162.771 2.95431 163.442 2.7926C163.788 2.7002 164.135 2.63089 164.481 2.56159C164.551 2.53849 164.62 2.51539 164.666 2.49229C164.227 2.42299 163.742 2.46919 163.303 2.53849C162.864 2.60779 162.425 2.6771 161.986 2.8388C160.992 3.18531 160.137 3.87834 159.213 4.45586C159.166 4.47896 159.12 4.50206 159.074 4.54826C158.589 5.10268 158.103 5.6571 157.526 6.11912Z" fill="#FFCE6F"/>
<path d="M128.94 79.9954L143.129 83.8532L145.001 69.6924L146.48 58.5116C146.503 57.9803 146.526 57.4721 146.549 56.9407C146.618 55.5547 146.688 54.1686 146.734 52.7826C146.826 50.7959 146.919 48.8324 147.011 46.8457C147.127 44.5587 147.219 42.2486 147.335 39.9616C147.45 37.6054 147.566 35.2722 147.658 32.939C147.751 30.8137 147.866 28.7115 147.959 26.5863C148.12 23.3059 148.19 20.0025 148.606 16.7453C148.629 16.4681 148.675 16.214 148.721 15.9368C148.744 15.8213 148.744 15.2437 148.814 15.1744C151.194 13.465 153.412 11.5245 155.561 9.44544C155.584 9.42234 155.631 9.37614 155.654 9.35304C155.862 9.14513 156.07 8.86792 156.047 8.54451C156.047 8.42901 156 8.3135 156.024 8.198C156.047 8.08249 156.139 8.01319 156.208 7.92079C156.301 7.85148 156.37 7.75908 156.463 7.68978C156.509 7.64358 156.555 7.59738 156.624 7.55117C156.971 7.22776 157.318 6.92745 157.641 6.60404C157.641 6.60404 157.641 6.60404 157.664 6.58094C158.219 6.07272 158.75 5.5645 159.305 5.07939C159.513 4.87148 159.744 4.66357 159.975 4.47876C160.276 4.20155 160.599 3.90124 160.9 3.62403C161.061 3.46233 161.223 3.32372 161.362 3.11582V3.09271C161.385 3.06961 161.385 3.04651 161.385 3.02341C161.731 2.23798 161.061 1.33705 160.368 1.56806C160.137 1.63736 159.952 1.79907 159.744 1.93767C158.519 2.86171 157.341 3.94745 156.047 4.75597C155.931 4.82528 155.816 4.89458 155.7 4.98698C155.238 5.26419 154.753 5.4952 154.244 5.65691C152.765 6.16512 151.263 6.39613 149.784 6.78885C149.16 6.95055 148.536 7.13536 147.935 7.38947C147.196 7.68978 146.503 8.08249 145.833 8.56761C144.931 9.23753 144.215 10.023 143.614 10.9239C143.106 11.6862 142.713 12.4948 142.389 13.3495C141.719 15.082 141.349 16.9532 141.026 18.7551C140.125 23.8835 139.015 28.9887 138.068 34.1171C137.56 36.8661 137.12 39.6151 136.658 42.3641L135.665 48.301C135.387 49.9412 135.11 51.6045 134.833 53.2446C134.648 54.3765 134.44 55.5085 134.255 56.6404C134.186 57.0562 134.116 57.4952 134.047 57.911L131.366 69.4845L128.94 79.9954Z" fill="#FFE193"/>
<path d="M145.232 14.2964C144.654 14.1809 144.123 14.0654 143.568 13.8575C143.175 13.7188 142.782 13.534 142.413 13.303C142.736 12.4483 143.152 11.6167 143.637 10.8774C143.545 11.2702 143.522 11.6629 143.591 12.0556C143.637 12.3328 143.753 12.5869 143.868 12.8179C144.215 13.4185 144.677 13.9499 145.232 14.2964Z" fill="#FFCE6F"/>
<path d="M128.94 79.9955L143.129 83.8533L145.001 69.6925C144.77 69.7387 144.515 69.7618 144.284 69.7849C143.267 69.9235 142.228 69.9697 141.188 69.9928C137.906 70.0621 134.625 69.8773 131.389 69.4153L128.94 79.9955Z" fill="#FFCE6F"/>
<path d="M101.671 73.9199L103.682 82.9292L108.373 103.928L125.866 103.258L122.169 87.7342L120.459 80.6192L101.671 73.9199Z" fill="#FFE193"/>
<path d="M101.671 73.9199L103.682 82.9523C105.369 83.8071 107.102 84.5463 108.858 85.17C111.285 86.0248 113.78 86.7178 116.322 87.0874C118.171 87.3646 120.158 87.6187 122.169 87.7573L120.459 80.6423L101.671 73.9199Z" fill="#FFCE6F"/>
<path d="M94.9928 71.3787C93.9297 71.9332 93.2596 73.1344 93.1903 74.3357C93.0978 75.5369 93.5369 76.7381 94.1839 77.7546C96.2175 80.8963 100.608 82.2592 104.051 80.827C104.375 80.6884 104.698 80.5267 104.86 80.2264C104.999 79.9723 104.976 79.695 104.953 79.4178C104.814 78.4476 104.259 77.5929 103.659 76.8074C102.388 75.1442 100.793 73.8736 99.3603 72.3721C98.2049 71.1246 96.7028 70.5009 94.9928 71.3787Z" fill="#FFE193"/>
<path d="M92.3354 66.6664C93.0287 68.4452 93.8837 70.1777 94.9005 71.841C98.0202 76.9694 102.619 81.4047 108.049 83.7379C111.816 85.355 116.161 85.817 120.089 84.6157C123.232 83.6686 125.173 81.4509 126.167 78.7481C127.461 75.2368 126.953 70.9631 126.167 67.3825C125.427 63.9174 124.341 60.4061 122.793 57.172C122.308 56.1555 121.799 55.1853 121.222 54.2612C117.709 48.5091 111.793 44.6744 104.884 45.3905C100.239 45.8757 95.8942 48.486 93.306 52.367C90.3019 56.8485 90.4405 61.7459 92.3354 66.6664Z" fill="#FFE193"/>
<path d="M92.3354 66.666C93.0287 68.4448 93.3753 69.8771 94.3921 71.5634C95.4551 71.4248 97.0034 71.4479 97.8585 70.8242C98.9446 70.0157 99.5916 68.6758 99.7072 67.3129C99.8227 65.9499 99.4299 64.587 98.7597 63.4088C98.5517 63.0392 98.2975 62.6696 97.9509 62.4386C99.7996 62.6465 101.879 61.8149 102.642 60.1285C102.989 59.3662 103.058 58.4884 103.081 57.6336C103.104 56.6865 103.104 55.7394 103.058 54.7691C105.923 56.34 109.136 57.3102 112.417 57.5874C115.028 57.8184 117.663 57.5874 120.297 57.3795C121.129 57.3102 121.961 57.2409 122.793 57.1485C122.308 56.1321 121.799 55.1618 121.222 54.2378C117.709 48.4857 111.793 44.651 104.884 45.3671C100.239 45.8522 95.8942 48.4626 93.306 52.3435C90.3019 56.8482 90.4405 61.7456 92.3354 66.666Z" fill="#FFCE6F"/>
<path d="M71.9995 246.298L76.136 257.641L81.9132 256.278L85.7031 255.377L91.411 254.014L92.5433 253.737L107.911 250.087L125.543 245.905C125.543 245.282 125.52 244.658 125.45 244.034C124.965 239.645 122.839 235.556 119.904 232.253C118.448 230.613 116.785 229.18 115.005 227.887L96.4025 235.857L87.3207 239.737L86.0959 240.269L81.0351 242.44L76.2747 244.473L71.9995 246.298Z" fill="#FFE193"/>
<path d="M71.9995 246.298L76.136 257.64L91.4341 254.014C90.6253 252.397 89.8627 250.756 89.1694 249.093C87.9678 246.229 86.951 243.272 86.119 240.269L71.9995 246.298Z" fill="#F2F2F2"/>
<path d="M86.9278 238.351C88.3606 243.387 89.8164 248.446 92.1966 253.09C92.4739 253.644 92.7744 254.198 93.0748 254.73C90.787 255.4 88.4299 255.885 86.119 256.578C86.3039 256.532 84.3396 252.581 84.1779 252.212C82.6989 249.139 81.867 245.767 81.0582 242.463C81.035 242.394 80.8271 241.632 80.8502 241.609L86.9278 238.351Z" fill="white"/>
<path d="M63.9808 246.876C63.7266 248.054 63.9115 249.278 64.0964 250.456C65.2749 257.895 66.4535 265.356 68.0018 272.749C68.5795 275.521 68.903 278.431 70.1047 281.019C70.3589 281.55 70.6362 282.081 71.0753 282.474C72.1614 283.49 73.779 283.098 74.4491 281.827C74.7496 281.273 74.8651 280.649 74.9807 280.048C75.05 279.702 75.1193 279.355 75.1886 279.009C75.3042 278.501 75.4428 277.969 75.5815 277.461C75.6277 277.299 75.6739 277.138 75.7201 276.953C76.3441 274.504 77.0142 272.079 77.6382 269.653C78.2621 267.204 78.8861 264.779 79.6949 262.376C79.9491 261.637 80.2033 260.898 80.4806 260.182C80.9659 258.934 81.5898 257.664 81.9364 256.37C79.2096 251.034 77.4533 250.04 76.2285 244.196C76.1823 243.988 73.1088 243.873 72.8084 243.849C71.445 243.711 70.0816 243.572 68.7413 243.457C68.3946 243.434 68.048 243.411 67.7245 243.434C66.8463 243.48 66.0606 243.757 65.3442 244.45C64.6741 245.097 64.1888 245.952 63.9808 246.876Z" fill="#6B9C89"/>
<path d="M63.9808 246.876C63.7266 248.054 63.9115 249.278 64.0964 250.456C65.2749 257.895 66.4535 265.356 68.0018 272.749C68.5795 275.521 68.903 278.432 70.1047 281.019C70.3589 281.55 70.6362 282.081 71.0753 282.474C72.1614 283.491 73.779 283.098 74.4491 281.827C74.7496 281.273 74.8651 280.649 74.9807 280.049C75.05 279.702 75.1193 279.356 75.1886 279.009C75.3042 278.501 75.4428 277.97 75.5815 277.461C75.3042 277.346 75.0269 277.207 74.7958 277.045C73.8483 276.399 73.2013 275.405 72.6467 274.412C71.3526 272.056 70.4513 269.491 69.7812 266.881C68.4639 261.614 68.1404 256.162 67.9324 250.757C67.84 248.308 67.7707 245.859 67.7014 243.411C66.8232 243.457 66.0375 243.734 65.3211 244.427C64.6741 245.097 64.1888 245.952 63.9808 246.876Z" fill="#60937E"/>
<path d="M96.4258 235.857C99.5686 238.86 102.434 242.163 104.999 245.674C106.039 247.107 107.033 248.585 107.957 250.087L125.589 245.905C125.589 245.282 125.566 244.658 125.497 244.034C125.011 239.645 122.885 235.556 119.951 232.253C118.495 230.613 116.831 229.18 115.052 227.887L96.4258 235.857Z" fill="#FFCE6F"/>
<path d="M82.6991 45.4828C82.8377 47.3309 83.8776 49.0634 85.3104 50.2647C85.5646 50.4957 85.8881 50.7267 86.2578 50.9577C88.9847 52.7365 94.1611 54.5845 95.7787 51.1887C96.8879 48.8786 95.5476 45.9448 93.8144 43.7733C93.075 42.8724 92.2661 42.1101 91.5267 41.6019C89.6548 40.3082 87.0898 39.6383 85.1024 40.724C83.4386 41.6481 82.5604 43.6116 82.6991 45.4828Z" fill="#39518F"/>
<path d="M86.2346 50.9573C88.9615 52.7361 94.1379 54.5841 95.7555 51.1883C96.8647 48.8782 95.5244 45.9444 93.7912 43.7729C93.2366 45.3669 92.4971 46.8916 91.2955 48.0697C89.9783 49.3633 88.2451 50.0795 86.5581 50.7956C86.4426 50.8649 86.3502 50.9111 86.2346 50.9573Z" fill="black" fill-opacity="0.3"/>
<path d="M60.2372 15.9834C60.3527 16.0989 60.4683 16.2144 60.4683 16.3761C60.4914 16.6302 60.2372 16.7689 60.0292 16.8151C58.4347 17.1616 56.7478 16.2144 55.0839 16.1682C54.1596 15.7986 53.2583 15.198 52.5188 14.4357C52.4264 14.3433 52.3571 14.2509 52.2646 14.1585C52.0335 13.8812 51.7793 13.5347 51.8256 13.1882C51.8487 12.9572 51.9873 12.7724 52.1722 12.6569C52.6113 12.3566 53.2121 12.4952 53.7436 12.6338C54.9453 12.9572 56.17 13.373 57.3255 13.9506C58.3885 14.4357 59.3822 15.1056 60.2372 15.9834Z" fill="#FFE193"/>
<path d="M60.2369 15.9832C60.3525 16.0987 60.468 16.2142 60.468 16.3759C60.4911 16.63 60.2369 16.7686 60.0289 16.8149C58.4344 17.1614 56.7475 16.2142 55.0836 16.168C54.1593 15.7984 53.258 15.1978 52.5186 14.4355C53.0038 14.4586 53.466 14.4586 53.9513 14.4355C55.0836 14.3662 56.216 14.1583 57.3252 13.9272C58.3882 14.4355 59.3819 15.1054 60.2369 15.9832Z" fill="#FFCE6F"/>
<path d="M55.0376 17.4156C55.4305 17.6928 56.0775 18.201 55.8926 18.8016C55.6847 19.4484 55.0376 19.1943 54.6217 19.0095C53.212 18.4551 51.7562 18.1317 50.3003 18.0393C49.5839 17.9931 48.8907 17.9931 48.1743 17.97C46.5104 17.9238 44.8466 17.7159 43.1828 17.3463C43.021 17.3001 42.8592 17.277 42.7206 17.1614C42.4433 16.9304 42.4202 16.4222 42.5819 16.1219C42.605 16.0988 42.605 16.0526 42.6281 16.0295C42.813 15.7754 43.0672 15.6137 43.3445 15.5213C43.5525 15.452 43.7374 15.3827 43.9453 15.3134C45.0084 15.0362 46.1407 15.0593 47.2499 15.1286C49.9074 15.3365 52.6574 15.7754 55.0376 17.4156Z" fill="#FFE193"/>
<path d="M53.0041 17.3232C49.6071 16.376 46.1638 16.3298 42.7437 16.0526C42.6975 16.0526 42.6744 16.0526 42.6282 16.0526C42.813 15.7985 43.0672 15.6368 43.3445 15.5444C43.5525 15.4751 43.7374 15.4058 43.9454 15.3365C44.1996 15.3365 44.4769 15.3365 44.7311 15.3134C45.1702 15.3134 45.6092 15.2903 46.0483 15.3365C46.6029 15.3827 47.1344 15.4751 47.689 15.5906C49.5377 15.9371 51.3171 16.2605 53.0041 17.3232Z" fill="#FFCE6F"/>
<path d="M55.0375 16.6765C55.1993 16.7689 55.3379 16.8844 55.4304 17.0692C55.6615 17.5081 55.2917 18.1318 55.0144 18.4783C54.1594 17.947 53.2581 17.5081 52.3338 17.1847C49.4683 16.1682 46.441 15.9834 43.5293 15.7524C43.1596 15.7062 42.6974 15.5676 42.6512 15.1749C42.6281 15.0363 42.6743 14.9208 42.7205 14.8053C42.9054 14.3895 43.2289 14.1354 43.6217 13.9737C44.0377 13.812 44.523 13.7426 44.9621 13.7195C45.4011 13.6964 45.8633 13.6733 46.3255 13.7195C47.3654 13.835 48.3591 14.3433 49.3759 14.6898C49.4221 14.7129 49.4683 14.736 49.5376 14.736C51.3632 15.3828 53.3275 15.5676 55.0375 16.6765Z" fill="#FFE193"/>
<path d="M51.3403 15.9836C50.3697 15.5909 49.3991 15.2213 48.4286 14.8285C47.9433 14.6437 47.4349 14.4358 46.9265 14.2972C46.2332 14.1124 45.5399 14.02 44.8467 13.9969C44.5 13.9738 44.1303 13.9738 43.7837 13.9738C43.7143 13.9738 43.645 13.9507 43.5757 13.9507C43.9916 13.789 44.4769 13.7197 44.916 13.6966C45.3551 13.6735 45.8172 13.6504 46.2794 13.6966C47.3193 13.8121 48.313 14.3203 49.3298 14.6668C49.376 14.6899 49.4222 14.713 49.4916 14.713C50.0924 15.2213 50.6932 15.6602 51.3403 15.9836Z" fill="#FFCE6F"/>
<path d="M46.8339 13.7656C46.857 13.7887 46.857 13.7887 46.8801 13.8118L46.9033 13.8349C47.065 14.0197 47.273 14.1352 47.4579 14.2507C47.8276 14.4586 48.1974 14.6665 48.544 14.8975C48.7982 15.0592 49.0755 15.1978 49.3297 15.3596C49.9767 15.7292 50.6007 16.0988 51.2477 16.4684C51.2477 16.4684 51.2477 16.4684 51.2708 16.4684C51.6637 16.6994 52.0796 16.9535 52.4725 17.1845C52.5418 17.2307 52.588 17.2538 52.6343 17.2769C52.7267 17.3462 52.8422 17.3924 52.9347 17.4617C53.0271 17.5079 53.1195 17.5772 53.1658 17.6927C53.212 17.7851 53.212 17.9237 53.212 18.0392C53.2582 18.3627 53.5124 18.5706 53.7666 18.7554C53.7897 18.7785 53.8359 18.8016 53.8821 18.8247C56.4472 20.3955 59.0123 21.8278 61.7161 22.9828C61.8085 23.029 61.924 23.5834 61.9703 23.699C62.0627 23.9531 62.1551 24.2072 62.2476 24.4613C63.3568 27.5568 64.1425 30.7447 64.9975 33.9326C65.5521 35.9886 66.1067 38.0215 66.6614 40.0774C67.2622 42.3413 67.8861 44.6052 68.487 46.8691C69.0878 49.0868 69.6886 51.3044 70.2895 53.5221C70.7978 55.4395 71.3294 57.3337 71.8378 59.2511C72.2075 60.591 72.5541 61.9308 72.9239 63.2707C73.0625 63.7789 73.2012 64.2871 73.3398 64.7953L76.6675 73.9663L82.0519 88.8433L95.0853 82.0285L91.0644 73.5736L85.3333 61.515C85.1716 61.1223 85.0098 60.7065 84.8481 60.3138C84.409 59.2511 83.993 58.1885 83.554 57.1258C82.93 55.5781 82.3061 54.0303 81.6821 52.4826L79.4175 46.8922C78.3776 44.3049 77.3377 41.7176 76.2747 39.1534C74.2642 34.3484 72.0688 29.6128 70.0815 24.7847C69.3882 23.1214 68.6256 21.3658 67.5857 19.818C67.0773 19.0557 66.5227 18.3396 65.8525 17.6927C65.09 16.9535 64.2118 16.3298 63.195 15.8678C62.4555 15.5444 61.6698 15.3134 60.8841 15.1747C60.2371 15.0592 59.59 15.013 58.943 14.9899C57.3947 14.9206 55.8695 15.013 54.3212 14.8513C53.7897 14.782 53.2582 14.6665 52.7498 14.5048C52.6112 14.4586 52.4725 14.4124 52.357 14.3662C50.9242 13.858 49.5377 13.0495 48.1511 12.4026C47.92 12.3102 47.7121 12.1947 47.481 12.1716C46.7877 12.0561 46.3255 13.0726 46.8339 13.7656Z" fill="#FFE193"/>
<path d="M65.113 21.3197C65.6445 21.0887 66.1529 20.8577 66.6382 20.5342C66.9849 20.3032 67.3315 20.0491 67.655 19.7488C67.1466 18.9865 66.592 18.2704 65.9218 17.6235C66.1067 17.97 66.2223 18.3628 66.2223 18.7555C66.2223 19.0327 66.176 19.3099 66.1067 19.564C65.9218 20.257 65.5752 20.8577 65.113 21.3197Z" fill="#FFCE6F"/>
<path d="M76.7368 73.943L82.1212 88.8199L95.1546 82.0052L91.1337 73.5503C91.0874 73.5734 91.0643 73.5734 91.0181 73.5965C89.2849 74.2895 87.4825 74.7284 85.6337 74.8901C84.617 74.9825 83.6002 75.0056 82.5834 74.9363C80.6191 74.7746 78.678 74.3588 76.7368 73.943Z" fill="#FFCE6F"/>
<path d="M83.8543 163.158C86.6505 162.881 89.4698 162.696 92.2891 162.465C99.7764 161.841 107.264 161.241 114.751 160.617C115.698 160.548 127.276 160.294 127.484 159.578C128.039 157.614 128.478 155.604 128.87 153.594C129.91 148.281 130.65 142.853 132.152 137.609C132.915 134.906 133.746 132.226 134.578 129.546C135.017 128.137 135.457 126.751 135.896 125.342C135.896 125.319 135.919 125.296 135.919 125.273C136.335 123.956 136.728 122.639 137.143 121.323C137.513 120.098 137.883 118.874 138.23 117.626C138.299 117.419 138.345 117.211 138.414 117.003C138.484 116.726 138.576 116.471 138.646 116.194C138.923 115.224 139.177 114.254 139.431 113.284C139.454 113.214 139.477 113.145 139.477 113.076C139.57 112.706 139.662 112.336 139.755 111.99C140.032 110.904 140.286 109.818 140.54 108.733C140.633 108.34 140.725 107.947 140.795 107.555C140.887 107.116 140.98 106.7 141.072 106.261C141.164 105.753 141.28 105.244 141.372 104.736C141.557 103.835 141.696 102.934 141.858 102.01C141.927 101.548 141.996 101.086 142.066 100.624C142.181 99.7695 142.297 98.9148 142.389 98.0601C142.459 97.5519 142.505 97.0205 142.551 96.5123C142.643 95.6114 142.713 94.7336 142.805 93.8326C142.921 92.4697 143.036 91.1298 143.175 89.7669C143.267 88.6349 143.383 87.503 143.475 86.3711C143.498 86.0708 143.522 85.7704 143.545 85.4701C143.614 84.5923 143.66 83.6914 143.729 82.8135C143.822 81.4044 143.937 79.9721 144.122 78.5861C144.215 77.8238 144.353 77.0383 144.515 76.276C143.152 75.9757 129.957 73.9659 130.026 73.5039C129.887 74.22 129.518 75.6985 129.24 76.8766C128.94 78.2165 128.616 79.6256 128.247 81.0117C128.039 81.7971 127.807 82.6056 127.576 83.3911C127.16 84.7771 126.675 86.117 126.097 87.3875C125.982 87.6647 125.843 87.9188 125.728 88.1729C125.566 88.4963 125.404 88.7966 125.242 89.097C125.011 89.5128 124.757 89.9286 124.503 90.2982C124.48 90.2289 124.457 90.1827 124.434 90.1134C124.295 89.8131 124.156 89.5128 124.018 89.2125C123.902 88.9815 123.787 88.7273 123.671 88.4732C123.509 88.1036 123.394 87.5492 123.001 87.3413C122.677 87.1565 122.261 87.3875 121.961 87.503C116.877 89.4666 110.198 90.7371 105.068 88.4039C104.699 88.2191 104.306 88.1729 103.959 88.196C103.173 88.2653 102.503 88.8198 102.18 89.5821C102.133 89.6976 102.087 89.8131 102.064 89.9286C101.995 90.1365 101.949 90.3444 101.902 90.5523L101.856 90.5061C101.51 90.1827 101.186 89.8362 100.862 89.4897C100.724 89.3511 100.608 89.1894 100.47 89.0508C100.308 88.8659 100.169 88.6811 100.007 88.4963C99.707 88.1036 99.4066 87.7109 99.1293 87.2951C98.852 86.8793 98.5747 86.4404 98.2974 86.0015C97.8121 85.216 97.3731 84.4075 96.9571 83.5759C96.8184 83.3218 96.31 82.3284 95.663 81.081C95.0622 79.8797 94.3458 78.4706 93.745 77.2693C93.0055 75.7678 92.4509 74.5896 92.4971 74.5434C88.1295 78.1934 82.8607 80.5728 77.2683 81.6585C77.6149 82.6056 77.9385 83.5528 78.2158 84.4999C78.6086 85.8628 78.9553 87.2489 79.2788 88.6349C79.6254 90.1134 79.972 91.6149 80.3649 93.0934C80.7115 94.4563 81.1044 95.8193 81.5897 97.136C81.6821 97.3902 81.7745 97.6443 81.867 97.8984C81.8901 97.9677 81.9363 98.0601 81.9594 98.1294C82.2598 98.8917 82.5602 99.654 82.8838 100.416C82.8838 100.439 82.9069 100.463 82.9069 100.463C83.1842 101.132 83.4615 101.779 83.7388 102.449C84.0161 103.073 84.2934 103.697 84.5707 104.32C84.5707 104.343 84.5938 104.367 84.5938 104.367C84.7094 104.621 84.8249 104.875 84.9405 105.129C85.1253 105.545 85.3102 105.984 85.5182 106.399C85.9341 107.324 86.3501 108.271 86.7661 109.195C86.7892 109.264 86.8354 109.333 86.8585 109.403C86.9047 109.495 86.9278 109.564 86.974 109.657C87.0665 109.888 87.182 110.119 87.2745 110.35C87.6673 111.274 88.0602 112.198 88.4299 113.099C88.453 113.145 88.453 113.191 88.4761 113.214C88.5917 113.491 88.6841 113.792 88.7996 114.069C89.2849 115.409 89.6547 116.679 89.932 117.927C90.0475 118.435 90.14 118.943 90.2093 119.428C90.2786 119.844 90.3248 120.26 90.3711 120.699C90.5097 122.131 90.5559 123.563 90.4635 125.088C90.4404 125.666 90.3942 126.266 90.3248 126.89C90.3017 127.121 90.2786 127.329 90.2555 127.56C89.308 135.414 88.3375 143.315 86.8123 151.076C86.743 151.377 86.6967 151.677 86.6274 152C86.4194 153.179 86.2115 154.403 86.0035 155.65C85.4951 158.353 84.9174 160.987 83.8543 163.158Z" fill="#BADDD4"/>
<path d="M81.9365 98.1757C82.2369 98.938 82.5374 99.7003 82.8609 100.463C82.8609 100.486 82.884 100.509 82.884 100.509C83.1613 101.179 83.4386 101.826 83.7159 102.496C102.919 101.571 122.192 103.42 141.419 104.782C141.604 103.882 141.742 102.981 141.904 102.057C141.973 101.595 142.043 101.133 142.112 100.671C122.123 98.5684 102.018 97.7137 81.9365 98.1757Z" fill="white"/>
<path d="M84.9175 105.198C85.1024 105.614 85.2872 106.053 85.4952 106.469C85.9112 107.393 86.3271 108.34 86.7431 109.264C86.7662 109.333 86.8124 109.403 86.8355 109.472C87.4364 109.495 88.0372 109.518 88.638 109.541C105.646 110.396 122.77 113.815 139.801 111.99C140.078 110.904 140.333 109.818 140.587 108.733C140.679 108.34 140.772 107.947 140.841 107.555C136.82 108.063 132.776 108.271 128.732 108.248C114.058 108.248 99.5223 105.568 84.9175 105.198Z" fill="white"/>
<path d="M88.3838 113.191C90.3019 118.019 90.8103 122.016 90.3019 127.005C91.5729 122.524 92.0582 117.788 92.5434 113.145C92.4972 113.145 87.9217 110.535 87.5057 110.211C87.3208 110.049 87.1128 109.888 86.928 109.726C87.4364 110.881 87.9217 112.036 88.3838 113.191Z" fill="#ACD1C6"/>
<path d="M88.4299 113.307C88.5455 113.584 88.6379 113.884 88.7535 114.161C89.2387 115.501 89.6085 116.772 89.8858 118.019C90.2786 118.112 90.6484 118.181 91.0412 118.273C98.3205 119.775 105.715 120.468 113.133 120.953C121.106 121.461 129.148 121.692 137.143 121.323C137.513 120.098 137.883 118.874 138.23 117.626C138.299 117.419 138.345 117.211 138.414 117.003C136.681 117.095 134.925 117.164 133.192 117.211C125.866 117.395 118.518 117.095 111.215 116.564C104.005 116.056 96.7722 115.247 89.724 113.607C89.285 113.515 88.869 113.422 88.4299 113.307Z" fill="white"/>
<path d="M90.4406 125.181C99.2451 127.283 108.258 128.484 117.293 129.038C123.047 129.408 128.824 129.547 134.602 129.5C135.041 128.068 135.503 126.659 135.942 125.227C121.545 125.412 107.056 124.557 92.9595 121.392C92.0813 121.207 91.2263 120.999 90.3481 120.768C90.4868 122.224 90.5099 123.679 90.4406 125.181Z" fill="white"/>
<path d="M126.097 87.4108C131.597 89.2126 137.421 90.0211 143.198 89.8132C143.29 88.6813 143.406 87.5494 143.498 86.4174C143.522 86.1171 143.545 85.8168 143.568 85.5165C138.16 85.7937 132.73 85.0776 127.576 83.4143C127.137 84.8004 126.652 86.1402 126.097 87.4108Z" fill="white"/>
<path d="M128.247 81.0348C133.261 82.3978 138.507 82.8136 143.753 82.8598C143.845 81.4506 143.961 80.0184 144.146 78.6323C139.108 78.6092 134.07 78.2396 129.263 76.9229C128.94 78.2396 128.616 79.6488 128.247 81.0348Z" fill="white"/>
<path d="M78.1926 84.5231C78.5855 85.886 78.9321 87.2721 79.2556 88.6581C81.7052 88.1037 84.0854 87.3645 86.3963 86.2787C89.5853 84.8003 92.6588 83.0215 95.6167 81.1041C95.0159 79.9029 94.2995 78.4937 93.6987 77.2925C90.8794 79.1405 87.9446 80.85 84.9173 82.2823C82.722 83.2987 80.4804 84.0148 78.1926 84.5231Z" fill="white"/>
<path d="M80.3418 93.1166C80.6884 94.4796 81.0813 95.8425 81.5666 97.1593C84.7325 96.1429 87.7829 94.8723 90.6946 93.1629C93.6294 91.4303 96.4025 89.3974 99.1062 87.3183C98.2974 86.1402 97.581 84.8697 96.934 83.5991C94.2302 85.7013 91.4803 87.7111 88.5686 89.4667C85.9804 91.0607 83.2073 92.1926 80.3418 93.1166Z" fill="white"/>
<path d="M99.4761 97.6675C100.008 96.0735 100.516 94.4564 101.047 92.8625C101.302 92.1002 101.556 91.3147 101.81 90.5524C101.163 89.9287 100.539 89.2357 99.9845 88.5195C100.169 90.5293 100.285 92.5391 100.054 94.5489C99.9151 95.6115 99.7072 96.6279 99.4761 97.6675Z" fill="#ACD1C6"/>
<path d="M124.642 90.8757C124.803 91.2453 125.011 91.615 125.173 91.9153C125.982 93.3706 126.906 94.7567 127.854 96.1427C128.57 96.3044 129.286 96.4892 130.003 96.6279C134.093 97.4826 138.23 97.9908 142.412 98.1063C142.482 97.5981 142.528 97.0668 142.574 96.5585C142.667 95.6576 142.736 94.7798 142.828 93.8788C137.606 93.7633 132.406 93.0241 127.368 91.6612C126.467 91.4302 125.543 91.1529 124.642 90.8757Z" fill="white"/>
<path d="M99.6376 92.0309C99.8225 90.9683 101.001 90.0211 102.133 90.3214C105.923 91.3379 109.736 91.4072 113.642 91.3148C117.431 91.2224 121.198 90.8759 124.688 89.305C125.728 88.8199 127.045 89.536 127.438 90.5525C127.854 91.7075 127.23 92.8163 126.19 93.3015C122.377 95.034 118.171 95.4729 114.034 95.5653C109.782 95.6808 105.53 95.6346 101.394 94.5258C100.238 94.2024 99.4297 93.2091 99.6376 92.0309Z" fill="white"/>
<path d="M124.41 90.1597C124.457 90.3907 124.549 90.6448 124.641 90.8758C124.803 91.2454 125.011 91.6151 125.173 91.9154C125.982 93.3707 126.906 94.7568 127.854 96.1428C128.801 97.5058 129.772 98.8687 130.673 100.255C131.713 101.849 132.637 103.466 133.33 105.198C133.608 105.868 133.839 106.584 134.024 107.301C133.862 106.607 133.7 105.938 133.538 105.245C133.146 103.651 132.707 102.08 132.059 100.578C131.967 100.324 131.851 100.07 131.736 99.839C131.251 98.7994 130.65 97.8061 130.095 96.8127C130.072 96.7665 130.026 96.6972 130.003 96.651C129.078 95.0109 128.177 93.3707 127.345 91.6844C126.768 90.5524 126.213 89.3974 125.681 88.2192C125.312 88.9816 124.896 89.6977 124.457 90.3445C124.457 90.2752 124.434 90.229 124.41 90.1597Z" fill="#ACD1C6"/>
<g opacity="0.5">
<path opacity="0.5" d="M85.9575 155.766C91.5037 156.852 97.2347 157.291 102.873 157.707C106.848 158.007 110.846 158.307 114.797 157.776C118.772 157.245 122.585 155.859 126.352 154.496C127.184 154.195 128.039 153.895 128.871 153.572C129.911 148.258 130.65 142.83 132.152 137.586C132.915 134.883 133.747 132.203 134.579 129.524C135.018 128.114 135.457 126.728 135.896 125.319C134.902 124.441 134.001 123.517 133.261 122.432C132.037 120.584 131.436 118.366 130.927 116.218C128.755 107.301 126.19 98.2682 125.22 89.1434C124.988 89.5592 124.734 89.975 124.48 90.3446C124.457 90.2753 124.434 90.2291 124.411 90.1598C124.272 89.8595 124.133 89.5592 123.995 89.2589C123.925 89.3975 123.856 89.5592 123.81 89.7209C123.602 90.3908 123.625 91.13 123.648 91.8462C123.81 96.5125 124.526 101.202 123.925 105.822C123.879 106.192 123.81 106.584 123.579 106.885C123.394 107.093 123.14 107.231 122.909 107.347C118.218 109.68 112.741 109.472 107.495 109.241C105.577 109.149 103.613 109.056 101.787 108.479C100.146 102.242 101.533 95.2882 100.47 89.0972C100.308 88.9124 100.169 88.7276 100.008 88.5427C99.7073 88.15 99.4069 87.7573 99.1296 87.3415C98.8523 86.9257 98.575 86.4868 98.2977 86.0479C98.3208 92.3313 98.1359 98.6147 96.7032 104.713C95.4553 110.003 93.2137 115.039 90.1864 119.544C90.2558 119.96 90.302 120.376 90.3482 120.815C90.4869 122.247 90.5331 123.679 90.4406 125.204C90.4175 125.781 90.3713 126.382 90.302 127.006C90.2789 127.237 90.2558 127.445 90.2327 127.676C89.2852 135.53 88.3146 143.43 86.7894 151.192C86.7201 151.492 86.6739 151.793 86.6046 152.116C86.3735 153.271 86.1886 154.519 85.9575 155.766Z" fill="#99C1B3"/>
</g>
<path d="M100.377 229.712C101.325 229.111 102.272 228.626 103.358 228.187C107.379 226.547 111.354 224.745 115.444 223.267C118.703 222.088 120.805 223.036 122.284 225.946C125.289 231.837 127.969 237.889 130.257 244.057C131.412 247.153 132.452 250.248 133.423 253.39C134.116 255.677 135.387 258.68 132.637 260.251C126.421 263.785 113.503 266.373 111.747 262.931C110.522 260.528 108.257 256 107.402 253.459C105.6 248.192 102.942 242.764 100.724 237.658C100.169 236.365 99.5452 235.094 99.0137 233.801C98.6209 232.807 98.1818 231.768 98.9906 230.82C99.2217 230.543 99.5221 230.335 99.8225 230.104C99.9843 229.966 100.169 229.827 100.377 229.712Z" fill="#F78D0F"/>
<path d="M101.718 234.54C104.537 237.658 107.333 241.008 107.541 245.443C107.564 245.813 107.564 246.16 107.541 246.529C107.449 250.064 106.085 253.529 104.768 256.878C104.468 257.618 104.19 258.357 103.89 259.096C102.573 262.446 101.255 265.795 99.9151 269.145C99.2219 270.877 98.3206 272.702 97.5811 274.55C96.4488 277.346 95.1547 281.273 97.0727 284.022C97.9509 285.269 99.4298 286.008 100.863 286.701C105.346 288.873 109.852 291.021 114.335 293.193C119.096 295.48 120.806 294.764 124.688 291.322C125.751 290.375 126.745 289.358 127.646 288.272C129.726 285.824 131.459 283.121 133.123 280.418C134.717 277.831 136.381 275.29 138.045 272.702C142.066 266.465 146.04 260.159 148.744 253.367C148.767 253.321 148.79 253.275 148.86 253.275C148.883 253.275 148.906 253.251 148.906 253.251C149.114 253.182 149.299 253.113 149.484 253.044C153.019 251.819 156.971 250.456 160.738 248.701C166.838 245.859 172.431 242.048 174.903 236.342C177.399 230.566 177.191 224.306 175.782 218.369C174.256 211.924 172.5 205.479 169.311 199.565C164.297 190.279 157.271 182.24 149.923 174.524C144.862 169.188 139.616 164.036 134.162 159.069C134.139 159.046 134.116 159.023 134.116 158.977C134.093 158.838 134.07 158.723 134.047 158.584C134.047 158.538 134.024 158.515 134.024 158.469C134.024 158.446 134.001 158.4 134.001 158.376C133.978 158.215 133.931 158.053 133.908 157.891C133.908 157.868 133.908 157.845 133.885 157.822C133.816 157.383 133.747 156.944 133.677 156.505C133.631 156.159 133.585 155.812 133.539 155.466C133.515 155.304 133.492 155.119 133.492 154.957C133.469 154.796 133.469 154.634 133.446 154.472V154.403C133.423 154.241 133.423 154.057 133.4 153.895C133.4 153.779 133.377 153.687 133.377 153.571C133.377 153.41 133.354 153.271 133.354 153.109C133.354 152.994 133.331 152.878 133.331 152.763C133.331 152.74 133.331 152.694 133.331 152.671C133.331 152.532 133.331 152.393 133.307 152.255C133.307 152.185 133.307 152.116 133.307 152.024C133.307 152.001 133.307 151.977 133.307 151.954C133.307 151.77 133.307 151.562 133.284 151.377C133.261 149.367 133.4 147.357 133.723 145.324C134.555 140.057 135.341 133.543 135.48 128.738C135.503 128.322 135.341 127.93 135.087 127.56C134.232 126.336 132.221 125.273 131.413 123.771C128.663 118.666 128.501 112.891 128.593 107.231C128.616 106.145 128.639 105.083 128.663 104.02C128.732 100.601 128.778 97.1361 128.27 93.7634C128.016 92.1463 127.646 90.5524 127.091 89.0046C126.953 88.5888 126.537 87.1566 126.213 86.8332C126.167 86.787 126.121 86.7639 126.097 86.7639C125.612 86.7177 124.272 87.4338 123.602 87.7572C123.463 87.8265 123.371 87.9882 123.417 88.1268C123.44 88.2423 123.486 88.3578 123.509 88.4733C123.602 88.7967 123.694 89.1201 123.763 89.4435C125.474 96.0273 126.282 102.68 125.774 109.495C125.774 109.587 125.682 109.657 125.589 109.657C117.57 109.587 109.528 109.541 101.51 109.472C101.417 109.472 101.325 109.403 101.325 109.31C101.348 108.733 101.371 108.132 101.417 107.555C101.602 103.604 101.81 99.6541 101.995 95.7039C102.064 94.0175 102.157 92.3542 102.249 90.6679C102.272 90.1366 102.434 89.5129 102.434 88.9815C102.434 88.8891 102.434 88.7967 102.434 88.7043C102.411 88.4964 102.596 88.173 102.18 88.1268C101.487 88.0575 101.279 88.0575 100.447 87.8727C99.7996 87.7341 99.3605 87.6648 99.3605 87.7572V87.7803C99.4067 89.2587 99.1525 91.1761 99.1987 92.6777C99.245 94.2254 99.2681 95.7732 99.2681 97.3209C99.2219 107.531 97.6273 117.788 90.4867 125.25C90.4405 125.319 90.3711 125.365 90.3249 125.412C89.4237 126.312 88.7766 126.52 88.1989 126.728C85.241 133.428 85.8418 141.536 85.6338 148.674C85.6338 148.882 85.6338 149.09 85.6107 149.275C85.6107 149.39 85.6107 149.506 85.6107 149.598C85.6107 149.829 85.6107 150.037 85.5876 150.245C85.5876 150.314 85.5876 150.407 85.5876 150.476C85.5876 150.545 85.5876 150.615 85.5876 150.684C85.5876 150.776 85.5876 150.846 85.5645 150.938C85.5645 151.053 85.5414 151.169 85.5414 151.284C85.449 152.717 85.1716 154.126 84.3859 155.35C84.3166 155.466 84.2473 155.581 84.1549 155.674C83.9931 155.905 83.8082 156.113 83.6465 156.344C83.6233 156.367 83.6002 156.39 83.6002 156.413L83.2536 156.829C83.2074 156.875 83.1612 156.944 83.115 157.013C82.9763 157.221 82.8376 157.429 82.7221 157.66C82.6066 157.868 82.5141 158.053 82.4217 158.261C81.6822 159.762 81.1507 161.356 80.6192 162.95C80.5037 163.274 80.4112 163.597 80.3188 163.921C79.6717 166.023 79.1402 168.148 78.7936 170.32C78.4238 172.491 78.239 174.709 78.2159 176.926C78.1928 178.705 78.2852 180.484 78.4932 182.24C80.0184 196.4 84.825 210.33 92.4509 222.343C95.2471 226.709 98.3206 230.774 101.718 234.54Z" fill="#39518F"/>
<path d="M83.7157 156.505C83.7388 156.482 83.7619 156.459 83.7619 156.436C83.9468 156.205 84.1317 155.997 84.2703 155.766C84.3396 155.651 84.4321 155.535 84.5014 155.443C84.5476 155.373 84.5938 155.281 84.6401 155.212C85.3333 154.01 85.5644 152.809 85.6569 151.377C85.6569 151.261 85.68 151.146 85.68 151.03C85.68 150.938 85.68 150.869 85.7031 150.776C85.7031 150.707 85.7031 150.638 85.7031 150.568C85.7031 150.499 85.7031 150.407 85.7031 150.337C85.7031 150.13 85.7031 149.922 85.7262 149.691C85.7262 149.575 85.7262 149.46 85.7262 149.367C86.1653 149.436 86.6274 149.529 87.0665 149.598C91.6421 150.384 96.2407 151.007 100.863 151.446C110.291 152.347 119.789 152.44 129.217 151.77C129.772 151.723 130.303 151.677 130.858 151.654C131.713 151.585 132.545 151.516 133.377 151.423C133.377 151.608 133.377 151.816 133.4 152.001C133.4 152.024 133.4 152.047 133.4 152.07C133.4 152.139 133.4 152.209 133.4 152.301C133.4 152.44 133.4 152.578 133.423 152.717C133.423 152.74 133.423 152.786 133.423 152.809C133.423 152.925 133.423 153.04 133.446 153.156C133.446 153.317 133.469 153.456 133.469 153.618C133.469 153.733 133.492 153.826 133.492 153.941C133.515 154.103 133.515 154.288 133.538 154.449V154.519C133.562 154.68 133.562 154.842 133.585 155.004C133.608 155.165 133.608 155.35 133.631 155.512C133.677 155.859 133.723 156.205 133.77 156.552C133.839 156.99 133.885 157.429 133.978 157.868C133.978 157.891 133.978 157.914 134.001 157.938C134.024 158.099 134.047 158.261 134.093 158.423C134.093 158.446 134.093 158.492 134.116 158.515C134.116 158.561 134.139 158.584 134.139 158.631C133.654 158.7 133.146 158.769 132.66 158.839C130.973 159.046 129.286 159.208 127.6 159.37C119.188 160.109 110.661 160.225 102.272 159.878C96.7029 159.647 91.0643 159.162 85.5413 158.284C84.6632 158.145 83.7619 157.984 82.8838 157.822C82.9993 157.591 83.138 157.383 83.2766 157.175L83.7157 156.505Z" fill="white"/>
<path d="M144.631 209.014C149.992 218.647 153.366 229.55 152.164 240.408C151.679 244.774 150.477 249.07 148.952 253.252C149.16 253.182 149.345 253.113 149.53 253.044C153.066 251.819 157.017 250.456 160.784 248.701C161.57 238.698 159.652 228.557 155.238 219.478C153.898 216.706 152.326 214.049 150.639 211.439C143.591 200.466 134.994 190.787 124.665 182.401C131.944 190.879 139.247 199.404 144.631 209.014Z" fill="#6080D1"/>
<path d="M85.7034 150.337C86.0962 150.43 86.4891 150.499 86.8819 150.568C92.2201 151.608 97.6276 152.324 103.104 152.694C111.724 153.294 120.505 153.086 129.033 152.832C129.495 152.809 129.98 152.809 130.442 152.786C131.436 152.763 132.43 152.717 133.446 152.671C133.446 152.532 133.446 152.393 133.423 152.255C133.423 152.185 133.423 152.116 133.423 152.024C132.43 152.07 131.413 152.093 130.442 152.139C130.026 152.162 129.61 152.162 129.171 152.185C120.621 152.44 111.816 152.671 103.174 152.047C97.7431 151.654 92.3587 150.961 87.0437 149.922C86.6046 149.829 86.1887 149.76 85.7496 149.667C85.7034 149.922 85.7034 150.129 85.7034 150.337Z" fill="#6080D1"/>
<path d="M83.2075 157.106C84.0163 157.245 84.802 157.383 85.6108 157.499C90.3713 158.261 95.201 158.815 100.054 159.185C109.251 159.878 118.472 159.855 127.577 159.116C127.923 159.093 128.27 159.046 128.616 159.023C130.442 158.862 132.245 158.677 134.07 158.469C134.07 158.446 134.047 158.4 134.047 158.377C134.024 158.215 133.978 158.053 133.955 157.891C133.955 157.868 133.955 157.845 133.932 157.822C131.875 158.053 129.818 158.261 127.738 158.446C113.757 159.578 99.5455 159.046 85.7264 156.852C85.0331 156.736 84.363 156.644 83.6697 156.505L83.2075 157.106Z" fill="#6080D1"/>
<path d="M120.482 214.142C120.621 214.049 120.829 214.073 120.921 214.211C121.453 214.95 121.915 215.643 122.354 216.29C122.446 216.429 122.423 216.637 122.261 216.729C122.215 216.752 122.169 216.775 122.1 216.775C121.984 216.775 121.869 216.729 121.799 216.637C121.36 215.99 120.898 215.32 120.366 214.558C120.297 214.442 120.32 214.234 120.482 214.142Z" fill="#6080D1"/>
<path d="M123.301 218.323C123.44 218.231 123.648 218.277 123.74 218.416C124.202 219.155 124.641 219.894 125.034 220.587C125.127 220.749 125.057 220.934 124.919 221.026C124.872 221.049 124.826 221.072 124.78 221.072C124.665 221.072 124.549 221.026 124.48 220.911C124.087 220.218 123.648 219.501 123.186 218.762C123.093 218.6 123.139 218.416 123.301 218.323Z" fill="#6080D1"/>
<path d="M117.455 210.492C117.362 210.353 117.385 210.145 117.524 210.053C117.663 209.961 117.871 209.984 117.963 210.122L118.425 210.769C118.772 211.231 119.095 211.693 119.442 212.178C119.534 212.317 119.511 212.525 119.373 212.617C119.326 212.663 119.28 212.663 119.211 212.686C119.095 212.686 119.003 212.64 118.934 212.548C118.587 212.086 118.263 211.601 117.917 211.139L117.455 210.492Z" fill="#6080D1"/>
<path d="M110.822 200.12C110.776 200.143 110.73 200.166 110.684 200.166C110.568 200.166 110.453 200.12 110.383 200.004C109.944 199.288 109.482 198.549 109.066 197.856C108.974 197.694 109.02 197.509 109.182 197.417C109.343 197.325 109.528 197.371 109.621 197.532C110.037 198.226 110.476 198.965 110.938 199.681C111.03 199.819 110.984 200.027 110.822 200.12Z" fill="#6080D1"/>
<path d="M125.797 222.689C125.959 222.62 126.144 222.666 126.236 222.828C126.629 223.613 126.976 224.376 127.299 225.138C127.368 225.3 127.299 225.484 127.137 225.554C127.114 225.577 127.068 225.577 127.045 225.577C126.906 225.6 126.768 225.507 126.721 225.392C126.398 224.653 126.051 223.89 125.658 223.128C125.589 222.966 125.658 222.758 125.797 222.689Z" fill="#6080D1"/>
<path d="M129.448 235.325C129.263 235.348 129.125 235.21 129.102 235.025C129.102 234.909 129.078 234.771 129.078 234.655C129.009 233.939 128.94 233.223 128.824 232.553C128.801 232.368 128.917 232.207 129.102 232.184C129.286 232.16 129.448 232.276 129.471 232.461C129.587 233.154 129.679 233.893 129.725 234.609C129.725 234.725 129.749 234.863 129.749 234.979C129.749 235.164 129.61 235.302 129.448 235.325Z" fill="#6080D1"/>
<path d="M128.709 230.336C128.686 230.336 128.686 230.336 128.662 230.336C128.501 230.359 128.362 230.243 128.316 230.105C128.131 229.319 127.877 228.511 127.623 227.702C127.576 227.54 127.646 227.356 127.83 227.286C127.992 227.24 128.177 227.309 128.246 227.494C128.524 228.303 128.755 229.134 128.963 229.943C128.986 230.128 128.87 230.313 128.709 230.336Z" fill="#6080D1"/>
<path d="M129.102 240.015C129.148 239.183 129.194 238.328 129.194 237.52C129.194 237.335 129.333 237.197 129.518 237.197C129.702 237.197 129.841 237.335 129.841 237.52C129.841 238.352 129.818 239.206 129.749 240.061C129.749 240.223 129.61 240.338 129.448 240.361C129.425 240.361 129.425 240.361 129.402 240.361C129.217 240.361 129.102 240.2 129.102 240.015Z" fill="#6080D1"/>
<path d="M128.847 242.51C128.87 242.325 129.032 242.209 129.217 242.232C129.402 242.256 129.517 242.417 129.494 242.602C129.379 243.434 129.24 244.265 129.078 245.12C129.055 245.259 128.94 245.374 128.801 245.374C128.778 245.374 128.732 245.374 128.709 245.374C128.524 245.351 128.431 245.166 128.454 245.005C128.616 244.15 128.755 243.318 128.847 242.51Z" fill="#6080D1"/>
<path d="M97.581 169.627C97.7428 169.581 97.9277 169.696 97.9739 169.858C98.1587 170.666 98.3667 171.475 98.5747 172.283C98.6209 172.445 98.5285 172.63 98.3436 172.676C98.3205 172.676 98.2974 172.676 98.2974 172.676C98.1356 172.699 97.997 172.584 97.9508 172.445C97.7428 171.636 97.5348 170.805 97.3499 169.996C97.2806 169.835 97.3961 169.673 97.581 169.627Z" fill="#6080D1"/>
<path d="M98.8518 174.501C99.0136 174.455 99.1985 174.547 99.2447 174.709C99.4758 175.494 99.73 176.303 100.007 177.111C100.054 177.273 99.9842 177.458 99.7993 177.527C99.7762 177.527 99.7531 177.55 99.73 177.55C99.5913 177.573 99.4527 177.481 99.4065 177.342C99.1292 176.534 98.875 175.725 98.6439 174.94C98.5745 174.732 98.667 174.547 98.8518 174.501Z" fill="#6080D1"/>
<path d="M100.423 179.283C100.585 179.213 100.77 179.306 100.839 179.468C101.117 180.253 101.44 181.038 101.741 181.801C101.81 181.962 101.718 182.147 101.556 182.217C101.533 182.24 101.486 182.24 101.463 182.24C101.325 182.263 101.186 182.17 101.14 182.032C100.816 181.246 100.516 180.461 100.239 179.676C100.169 179.537 100.262 179.352 100.423 179.283Z" fill="#6080D1"/>
<path d="M96.6335 164.66C96.8184 164.637 96.9801 164.752 97.0033 164.937C97.1188 165.746 97.2806 166.577 97.4192 167.409C97.4423 167.594 97.3499 167.755 97.165 167.779H97.1419C96.9801 167.802 96.8415 167.686 96.7953 167.524C96.6335 166.693 96.4949 165.861 96.3562 165.03C96.3562 164.868 96.4717 164.683 96.6335 164.66Z" fill="#6080D1"/>
<path d="M96.102 159.647C96.2869 159.624 96.4255 159.763 96.4487 159.947C96.4718 160.225 96.4949 160.525 96.518 160.802C96.5642 161.333 96.6104 161.888 96.6797 162.442C96.7029 162.627 96.5642 162.766 96.4024 162.789C96.2407 162.812 96.0789 162.673 96.0558 162.512C95.9865 161.957 95.9403 161.403 95.894 160.848C95.8709 160.548 95.8478 160.271 95.8247 159.97C95.8016 159.832 95.9171 159.67 96.102 159.647Z" fill="#6080D1"/>
<path d="M102.295 183.972C102.457 183.903 102.642 183.972 102.711 184.134C103.035 184.896 103.381 185.659 103.728 186.421C103.797 186.583 103.728 186.767 103.566 186.837C103.543 186.86 103.497 186.86 103.451 186.86C103.312 186.86 103.197 186.791 103.127 186.675C102.781 185.913 102.434 185.127 102.087 184.365C102.041 184.226 102.134 184.042 102.295 183.972Z" fill="#6080D1"/>
<path d="M111.839 201.714C111.978 201.621 112.186 201.667 112.278 201.806C112.717 202.499 113.18 203.215 113.665 203.908C113.757 204.047 113.711 204.255 113.572 204.347C113.526 204.37 113.48 204.393 113.434 204.393C113.318 204.393 113.203 204.347 113.133 204.255C112.671 203.539 112.186 202.822 111.747 202.129C111.654 201.991 111.701 201.806 111.839 201.714Z" fill="#6080D1"/>
<path d="M104.398 188.546C104.56 188.477 104.745 188.523 104.837 188.685C105.207 189.424 105.577 190.186 105.969 190.926C106.062 191.087 105.993 191.272 105.831 191.365C105.785 191.388 105.762 191.388 105.715 191.411C105.6 191.411 105.461 191.365 105.392 191.249C104.999 190.51 104.629 189.748 104.259 188.985C104.167 188.824 104.236 188.639 104.398 188.546Z" fill="#6080D1"/>
<path d="M114.612 205.918C114.751 205.826 114.959 205.849 115.051 206.01C115.513 206.703 115.999 207.397 116.484 208.09C116.576 208.228 116.553 208.436 116.415 208.528C116.369 208.552 116.322 208.575 116.253 208.575C116.137 208.575 116.022 208.528 115.953 208.436C115.467 207.743 114.982 207.05 114.52 206.357C114.45 206.218 114.474 206.01 114.612 205.918Z" fill="#6080D1"/>
<path d="M106.709 193.028C106.871 192.935 107.056 193.005 107.148 193.166C107.541 193.882 107.957 194.622 108.373 195.361C108.465 195.523 108.396 195.707 108.257 195.8C108.211 195.823 108.165 195.846 108.119 195.846C108.003 195.846 107.888 195.8 107.818 195.684C107.402 194.945 106.986 194.206 106.594 193.49C106.478 193.305 106.547 193.12 106.709 193.028Z" fill="#6080D1"/>
<path d="M126.86 237.497C126.883 236.642 126.86 235.764 126.814 234.933C126.814 234.748 126.93 234.609 127.114 234.586C127.299 234.586 127.438 234.702 127.461 234.886C127.507 235.741 127.53 236.642 127.507 237.52C127.507 237.682 127.369 237.82 127.207 237.82C127.184 237.82 127.184 237.82 127.161 237.82C126.999 237.82 126.86 237.682 126.86 237.497Z" fill="#6080D1"/>
<path d="M126.698 240.061C126.721 239.876 126.883 239.761 127.045 239.784C127.23 239.807 127.345 239.945 127.322 240.13C127.253 240.985 127.137 241.863 126.999 242.741C126.976 242.879 126.86 242.995 126.721 243.018C126.698 243.018 126.675 243.018 126.652 243.018C126.467 242.995 126.352 242.833 126.398 242.648C126.513 241.77 126.629 240.916 126.698 240.061Z" fill="#6080D1"/>
<path d="M125.89 245.166C125.936 245.005 126.098 244.889 126.282 244.912C126.444 244.958 126.56 245.12 126.537 245.305C126.352 246.136 126.144 246.991 125.89 247.846C125.843 247.985 125.728 248.077 125.612 248.077C125.566 248.077 125.543 248.077 125.497 248.077C125.335 248.031 125.219 247.846 125.266 247.684C125.497 246.83 125.705 245.998 125.89 245.166Z" fill="#6080D1"/>
<path d="M119.142 215.667C119.281 215.574 119.489 215.597 119.581 215.736C120.112 216.498 120.598 217.214 121.06 217.884C121.152 218.023 121.106 218.231 120.967 218.323C120.921 218.346 120.875 218.369 120.829 218.369C120.713 218.369 120.598 218.323 120.528 218.231C120.089 217.561 119.604 216.845 119.073 216.105C118.957 215.99 119.003 215.782 119.142 215.667Z" fill="#6080D1"/>
<path d="M108.905 201.413C108.858 201.437 108.812 201.46 108.766 201.46C108.65 201.46 108.535 201.413 108.466 201.321L108.304 201.067C107.888 200.42 107.449 199.773 107.056 199.126C106.963 198.988 107.01 198.78 107.148 198.687C107.287 198.595 107.495 198.641 107.587 198.78C107.98 199.404 108.419 200.074 108.835 200.72L108.997 200.974C109.089 201.113 109.066 201.298 108.905 201.413Z" fill="#6080D1"/>
<path d="M115.999 211.924C115.884 211.785 115.93 211.578 116.068 211.485C116.207 211.37 116.415 211.416 116.507 211.554L117.108 212.34C117.432 212.779 117.755 213.195 118.056 213.634C118.171 213.772 118.125 213.98 117.986 214.072C117.94 214.119 117.871 214.119 117.825 214.142C117.709 214.142 117.617 214.096 117.547 214.003C117.224 213.564 116.9 213.148 116.6 212.709L115.999 211.924Z" fill="#6080D1"/>
<path d="M114.89 209.914C114.844 209.961 114.774 209.961 114.728 209.984C114.613 209.984 114.52 209.937 114.451 209.845C113.942 209.152 113.434 208.436 112.926 207.743C112.833 207.604 112.856 207.396 112.995 207.304C113.134 207.212 113.342 207.235 113.434 207.373C113.942 208.066 114.451 208.782 114.959 209.475C115.075 209.591 115.052 209.799 114.89 209.914Z" fill="#6080D1"/>
<path d="M123.625 222.828C123.579 222.851 123.556 222.851 123.509 222.874C123.394 222.874 123.255 222.828 123.209 222.712C122.816 221.996 122.4 221.234 121.938 220.471C121.846 220.31 121.892 220.125 122.054 220.032C122.215 219.94 122.4 219.986 122.493 220.148C122.955 220.91 123.394 221.696 123.787 222.412C123.833 222.55 123.787 222.735 123.625 222.828Z" fill="#6080D1"/>
<path d="M126.883 232.646C126.883 232.646 126.86 232.646 126.883 232.646C126.698 232.669 126.537 232.553 126.514 232.369C126.375 231.514 126.213 230.682 126.005 229.85C125.959 229.689 126.074 229.504 126.236 229.458C126.398 229.412 126.583 229.527 126.629 229.689C126.837 230.544 127.022 231.398 127.161 232.253C127.184 232.461 127.068 232.623 126.883 232.646Z" fill="#6080D1"/>
<path d="M125.682 227.586C125.658 227.586 125.635 227.61 125.612 227.61C125.474 227.633 125.335 227.54 125.289 227.402C125.011 226.593 124.688 225.785 124.341 224.999C124.272 224.838 124.341 224.653 124.503 224.583C124.665 224.514 124.85 224.583 124.919 224.745C125.266 225.554 125.612 226.362 125.89 227.194C125.936 227.355 125.843 227.54 125.682 227.586Z" fill="#6080D1"/>
<path d="M94.4847 170.32C94.6464 170.273 94.8313 170.389 94.8775 170.551C95.0855 171.382 95.2935 172.214 95.5477 173.046C95.5939 173.207 95.5015 173.392 95.3166 173.438C95.2935 173.438 95.2704 173.438 95.2473 173.438C95.1086 173.461 94.9469 173.346 94.9006 173.207C94.6696 172.376 94.4385 171.521 94.2305 170.689C94.2074 170.528 94.3229 170.366 94.4847 170.32Z" fill="#6080D1"/>
<path d="M97.6274 180.23C97.7892 180.161 97.9741 180.253 98.0434 180.415C98.3669 181.2 98.6904 182.009 99.0371 182.817C99.1064 182.979 99.0371 183.164 98.8753 183.233C98.8522 183.256 98.806 183.256 98.7829 183.256C98.6442 183.279 98.5056 183.187 98.4594 183.071C98.1127 182.263 97.7892 181.454 97.4657 180.669C97.3732 180.484 97.4657 180.299 97.6274 180.23Z" fill="#6080D1"/>
<path d="M101.949 189.678C102.11 189.586 102.295 189.655 102.388 189.817C102.781 190.579 103.196 191.341 103.612 192.104C103.705 192.265 103.636 192.45 103.497 192.543C103.451 192.566 103.404 192.589 103.358 192.589C103.243 192.589 103.104 192.543 103.058 192.427C102.642 191.665 102.226 190.879 101.81 190.14C101.718 189.955 101.787 189.771 101.949 189.678Z" fill="#6080D1"/>
<path d="M95.8942 175.332C96.056 175.286 96.2409 175.379 96.2871 175.54C96.5413 176.349 96.8186 177.181 97.119 177.989C97.1883 178.151 97.0959 178.336 96.9341 178.405C96.911 178.405 96.8879 178.428 96.8648 178.428C96.7262 178.451 96.5875 178.359 96.5413 178.22C96.2409 177.388 95.9636 176.557 95.7094 175.748C95.6169 175.563 95.7094 175.379 95.8942 175.332Z" fill="#6080D1"/>
<path d="M99.6611 185.012C99.8228 184.943 100.008 185.012 100.077 185.174C100.447 185.959 100.817 186.744 101.186 187.507C101.256 187.668 101.209 187.853 101.048 187.946C101.001 187.969 100.978 187.969 100.932 187.969C100.793 187.969 100.678 187.923 100.609 187.784C100.216 186.999 99.846 186.213 99.4762 185.428C99.43 185.289 99.4993 185.081 99.6611 185.012Z" fill="#6080D1"/>
<path d="M92.8439 160.063C93.0287 160.04 93.1674 160.178 93.1905 160.363L93.2136 160.71C93.2829 161.449 93.3523 162.211 93.4447 162.95C93.4678 163.135 93.3523 163.297 93.1674 163.297C93.1674 163.297 93.1674 163.297 93.1443 163.297C92.9825 163.32 92.8208 163.181 92.7977 163.02C92.7052 162.28 92.6128 161.518 92.5666 160.756L92.5435 160.409C92.5435 160.225 92.6821 160.086 92.8439 160.063Z" fill="#6080D1"/>
<path d="M93.468 165.214C93.6529 165.168 93.8146 165.307 93.8377 165.468C93.9764 166.3 94.1381 167.155 94.323 168.01C94.3692 168.171 94.2537 168.356 94.0688 168.379C94.0457 168.379 94.0457 168.379 94.0226 168.379C93.8608 168.402 93.7222 168.287 93.676 168.125C93.4911 167.27 93.3293 166.416 93.1907 165.561C93.1676 165.422 93.2831 165.261 93.468 165.214Z" fill="#6080D1"/>
<path d="M110.014 203.03C110.153 202.938 110.361 202.961 110.453 203.123C110.915 203.816 111.424 204.532 111.932 205.248C112.024 205.387 112.001 205.595 111.863 205.687C111.816 205.71 111.77 205.733 111.701 205.733C111.585 205.733 111.47 205.687 111.4 205.595C110.892 204.855 110.384 204.139 109.921 203.446C109.829 203.331 109.852 203.123 110.014 203.03Z" fill="#6080D1"/>
<path d="M104.444 194.229C104.606 194.137 104.791 194.183 104.884 194.344C105.323 195.084 105.762 195.823 106.224 196.562C106.316 196.724 106.27 196.909 106.108 197.001C106.062 197.024 106.016 197.047 105.97 197.047C105.854 197.047 105.739 197.001 105.669 196.886C105.207 196.146 104.768 195.384 104.329 194.645C104.237 194.529 104.306 194.321 104.444 194.229Z" fill="#6080D1"/>
<path d="M99.684 185.566C101.579 184.457 103.197 182.655 104.375 180.368C105.299 178.59 105.97 176.464 106.501 173.715C107.449 168.934 107.68 164.036 107.194 159.185L106.547 159.254C107.01 164.036 106.778 168.864 105.854 173.6C105.323 176.28 104.676 178.336 103.774 180.068C102.665 182.24 101.117 183.949 99.3374 185.012L99.684 185.566Z" fill="#6080D1"/>
<path d="M100.539 233.108C103.682 237.197 107.287 239.946 107.541 245.444C107.564 245.813 107.564 246.16 107.541 246.529C107.934 246.414 108.304 246.275 108.673 246.114C109.967 245.536 111.1 244.704 112.255 243.873C113.549 242.926 114.843 241.978 116.137 241.031C111.885 240.154 107.98 238.051 104.514 235.418C101.833 233.362 99.4066 231.006 97.0957 228.557C98.228 230.058 99.3835 231.583 100.539 233.108Z" fill="#6080D1"/>
<path d="M125.843 111.158C128.57 110.927 128.963 115.178 126.213 115.409C123.486 115.663 123.093 111.412 125.843 111.158Z" fill="#6080D1"/>
<path d="M100.77 111.112C103.497 110.881 103.89 115.132 101.14 115.363C98.39 115.617 98.0202 111.366 100.77 111.112Z" fill="#6080D1"/>
<path d="M124.549 129.916L122.7 147.866L95.9172 147.126L100.239 128.807L124.549 129.916Z" fill="#6080D1"/>
<path d="M116.785 158.862C116.97 158.839 117.108 158.977 117.131 159.162C117.362 161.726 118.171 164.221 118.957 166.624L120.759 172.168C122.054 176.141 123.509 180.646 126.514 183.926C126.722 184.111 126.906 184.273 127.091 184.457C127.299 183.88 127.553 183.302 127.808 182.771C127.946 182.471 128.108 182.147 128.224 181.847C128.848 180.392 129.217 179.029 129.564 177.458C126.121 171.775 122.562 165.907 120.967 159.301C120.921 159.139 121.037 158.954 121.199 158.908C121.36 158.862 121.545 158.977 121.591 159.139C123.163 165.699 126.722 171.567 130.165 177.227C130.211 177.296 130.211 177.389 130.211 177.458C129.841 179.121 129.448 180.53 128.801 182.078C128.663 182.401 128.501 182.725 128.362 183.025C128.016 183.741 127.715 184.411 127.53 185.15C127.507 185.266 127.415 185.358 127.299 185.381C127.276 185.381 127.276 185.381 127.253 185.381C127.161 185.381 127.045 185.358 126.999 185.289C126.698 184.966 126.444 184.711 126.121 184.434C126.098 184.411 126.074 184.411 126.051 184.388C126.005 184.342 125.936 184.296 125.866 184.249C125.82 184.203 125.774 184.134 125.774 184.065C122.862 180.692 121.406 176.28 120.135 172.353L118.333 166.808C117.524 164.36 116.715 161.819 116.461 159.185C116.461 159.023 116.6 158.885 116.785 158.862Z" fill="#6080D1"/>
<path d="M112.394 75.4212C112.81 76.5532 113.457 77.5234 114.243 78.2857C114.404 78.4474 114.589 78.6091 114.751 78.7477C116.322 80.0183 118.264 80.4803 120.043 79.8335C121.453 79.3022 122.493 78.1702 123.024 76.7149C123.07 76.5994 123.116 76.4839 123.14 76.3684C123.602 74.8899 123.579 73.1573 122.932 71.471C122.862 71.2631 122.77 71.0783 122.677 70.8704L112.163 74.7744C112.255 75.0285 112.325 75.2133 112.394 75.4212Z" fill="#D55454"/>
<path d="M121.522 75.9525C121.661 75.4443 121.753 74.8899 121.568 74.4048C121.337 73.758 120.69 73.296 120.02 73.1574C119.35 73.0187 118.633 73.1574 117.986 73.3884C117.339 73.6194 116.715 73.9197 116.045 74.1276C115.745 74.22 115.421 74.3124 115.144 74.451C114.844 74.5896 114.589 74.7975 114.451 75.0978C114.266 75.4674 114.358 75.9294 114.497 76.3222C114.913 77.3848 115.907 78.1702 117.016 78.4474C117.871 78.6553 118.749 78.5398 119.581 78.2395C120.159 78.0316 120.598 77.8699 120.944 77.3386C121.222 76.8766 121.406 76.4146 121.522 75.9525Z" fill="#B53434"/>
<path d="M114.774 78.7708C116.346 80.0414 118.287 80.5034 120.066 79.8566C121.476 79.3252 122.516 78.1933 123.047 76.7379C122.724 76.53 122.377 76.3452 122.007 76.2066C120.759 75.7446 119.28 75.7215 117.848 76.2528C116.762 76.6455 115.883 77.3155 115.236 78.1009C115.051 78.3088 114.913 78.5398 114.774 78.7708Z" fill="#F37C7C"/>
<path d="M113.573 74.3125C113.896 74.4742 114.22 74.6128 114.589 74.7052C115.745 75.0286 117.085 74.9824 118.402 74.4742C119.789 73.9428 120.898 73.0188 121.545 71.9562C121.684 71.7021 121.822 71.448 121.915 71.1938L113.573 74.3125Z" fill="white"/>
<path d="M110.014 66.3192C109.32 66.4116 108.835 67.0353 108.905 67.7052C108.997 68.3983 109.621 68.8834 110.291 68.8141C110.984 68.7217 111.47 68.098 111.4 67.428C111.331 66.735 110.707 66.2268 110.014 66.3192Z" fill="white"/>
<path d="M119.799 65.5763C120.228 65.0374 120.139 64.2526 119.6 63.8232C119.061 63.3939 118.276 63.4826 117.847 64.0214C117.417 64.5603 117.506 65.3451 118.045 65.7745C118.584 66.2038 119.369 66.1151 119.799 65.5763Z" fill="white"/>
<path d="M111.423 66.9201C111.493 67.5207 111.054 68.0751 110.453 68.1444C109.852 68.2137 109.297 67.7748 109.228 67.1742C109.159 66.5736 109.598 66.0191 110.198 65.9498C110.799 65.8805 111.354 66.3194 111.423 66.9201Z" fill="#24404C"/>
<path d="M119.997 64.0326C120.066 64.6332 119.627 65.1877 119.026 65.257C118.425 65.3263 117.871 64.8873 117.801 64.2867C117.732 63.6861 118.171 63.1317 118.772 63.0624C119.373 62.9931 119.927 63.432 119.997 64.0326Z" fill="#24404C"/>
<path d="M121.476 56.0627C119.604 56.2937 118.009 57.2408 116.923 58.6269L108.997 61.0063C108.188 60.7984 107.31 60.7291 106.432 60.8446C102.48 61.3066 99.6609 64.9103 100.123 68.8374C100.585 72.7877 104.19 75.606 108.119 75.144C112.047 74.682 114.89 71.0782 114.427 67.1511C114.335 66.3657 114.104 65.6264 113.804 64.9565L115.652 64.4252C116.438 67.7517 119.627 70.0618 123.116 69.646C126.86 69.2071 129.541 65.7881 129.102 62.0689C128.616 58.3035 125.219 55.6238 121.476 56.0627ZM108.073 74.7513C104.329 75.1902 100.932 72.5105 100.493 68.7681C100.054 65.0258 102.734 61.63 106.478 61.1911C110.222 60.7522 113.619 63.4319 114.058 67.1742C114.497 70.8934 111.816 74.3123 108.073 74.7513ZM113.619 64.5869C113.526 64.4021 113.411 64.2173 113.295 64.0325L115.467 63.3857C115.467 63.4781 115.467 63.5474 115.49 63.6398C115.514 63.7784 115.537 63.8939 115.56 64.0325L113.619 64.5869ZM115.444 63.016L113.064 63.7322C112.209 62.554 110.984 61.6531 109.621 61.1911L116.554 59.112C115.814 60.2439 115.421 61.5838 115.444 63.016ZM123.047 69.2533C119.511 69.6691 116.299 67.128 115.86 63.5936C115.444 60.0591 117.986 56.8481 121.522 56.4092C125.058 55.9934 128.27 58.5345 128.709 62.0689C129.125 65.6033 126.583 68.8374 123.047 69.2533Z" fill="#999999"/>
<path d="M115.791 70.2929C115.906 69.9695 116.161 69.6923 116.507 69.5537C116.854 69.4151 117.27 69.4382 117.593 69.623C117.917 69.8078 118.171 70.1774 118.171 70.547C118.171 70.9166 117.963 71.2863 117.639 71.4249C117.871 71.1708 117.917 70.8473 117.871 70.5701C117.824 70.2929 117.639 70.0619 117.385 69.9464C117.154 69.8078 116.854 69.7616 116.576 69.8309C116.299 69.9002 116.022 70.0619 115.791 70.2929Z" fill="#B53434"/>
<path d="M119.003 63.7088C118.703 63.755 118.749 64.2171 119.049 64.1709C119.35 64.1478 119.304 63.6857 119.003 63.7088Z" fill="white"/>
<path d="M110.407 66.5967C110.106 66.6429 110.152 67.105 110.453 67.0588C110.776 67.0126 110.707 66.5505 110.407 66.5967Z" fill="white"/>
<path d="M107.402 64.0787C107.31 64.0787 107.241 64.0325 107.194 63.9632C107.171 63.8708 107.217 63.7553 107.31 63.7322L109.898 62.8775C109.991 62.8544 110.106 62.9006 110.129 62.993C110.152 63.0854 110.106 63.2009 110.014 63.224L107.425 64.0787H107.402Z" fill="#24404C"/>
<path d="M116.993 61.3297C116.9 61.3297 116.831 61.2835 116.785 61.1911C116.762 61.0987 116.808 60.9832 116.9 60.9601L119.373 60.1978C119.465 60.1747 119.581 60.2209 119.604 60.3133C119.627 60.4057 119.581 60.5212 119.488 60.5443L117.016 61.3066C117.016 61.3297 116.993 61.3297 116.993 61.3297Z" fill="#24404C"/>
<path d="M97.766 73.6887C98.7135 73.8273 99.5916 74.2662 100.262 74.9593C99.892 74.6821 99.3836 74.7976 98.9677 74.9593C97.974 75.3289 96.9572 75.9526 96.6337 76.969C96.495 76.4146 96.6337 75.7909 96.9803 75.3289C97.327 74.8669 97.8816 74.5666 98.4593 74.5203C98.0202 74.5434 97.4425 74.3124 97.0034 74.2893C96.7492 74.2662 96.495 74.2662 96.2408 74.2662C96.1022 74.2662 95.2703 74.2662 95.2703 74.2662C95.2703 74.2662 96.0329 73.8042 96.1715 73.7811C96.703 73.6425 97.2345 73.6194 97.766 73.6887Z" fill="#FFCE6F"/>
<path d="M88.3836 63.7557C88.5223 64.4718 88.7072 65.1879 88.9151 65.8809C89.1231 66.5971 91.0874 72.3954 91.6651 72.3723C92.7512 72.3261 93.8142 72.072 94.8079 71.633C95.5705 71.2865 96.2869 70.8476 96.9108 70.2932C98.2973 69.092 99.291 67.2901 99.1062 65.4651C98.9906 64.1946 98.1125 62.9702 97.4192 61.8845C98.1587 61.7228 98.8982 61.538 99.5221 61.1222C100.262 60.6371 100.77 59.8978 101.14 59.1124C102.018 57.2643 101.972 55.116 101.417 53.1524C107.148 55.578 113.549 56.4096 119.696 55.5318C119.904 55.5087 120.112 55.4625 120.32 55.4394C120.829 55.3701 121.314 55.2777 121.822 55.1391C122.562 54.9543 123.278 54.7232 123.948 54.3767C124.179 54.2612 118.287 47.1462 117.455 46.4532C114.982 44.3972 111.908 43.0342 108.696 42.6415C103.243 41.9716 97.2806 43.5193 93.0978 47.1462C90.4634 49.4101 88.892 52.5287 88.2681 55.8783C88.0601 56.9409 87.9677 58.0498 87.9446 59.1355C87.9446 59.2279 87.9446 59.2972 87.9446 59.3896C87.9215 60.8912 88.0832 62.3465 88.3836 63.7557Z" fill="#39518F"/>
<path opacity="0.2" d="M112.024 45.1595C110.014 44.4202 107.934 43.8196 105.785 43.7041C103.636 43.5886 101.44 44.0044 99.6379 45.1595C99.4299 45.2981 99.245 45.4367 99.1295 45.6446C99.0139 45.8525 99.037 46.1528 99.2219 46.2914C99.3374 46.3838 99.4992 46.3838 99.661 46.3838C100.516 46.3607 101.348 46.1297 102.18 45.968C106.062 45.1595 110.199 45.7832 113.665 47.6775C114.035 47.8854 114.474 48.1164 114.89 48.0009C115.953 47.7237 114.913 46.7534 114.543 46.4531C113.804 45.8525 112.902 45.4829 112.024 45.1595Z" fill="white"/>
</g>
</g>
</g>
<defs>
<filter id="filter0_d" x="67.6853" y="43.6758" width="276.098" height="318.571" filterUnits="userSpaceOnUse" color-interpolation-filters="sRGB">
<feFlood flood-opacity="0" result="BackgroundImageFix"/>
<feColorMatrix in="SourceAlpha" type="matrix" values="0 0 0 0 0 0 0 0 0 0 0 0 0 0 0 0 0 0 127 0"/>
<feOffset dy="14"/>
<feGaussianBlur stdDeviation="17"/>
<feColorMatrix type="matrix" values="0 0 0 0 0 0 0 0 0 0 0 0 0 0 0 0 0 0 0.12 0"/>
<feBlend mode="normal" in2="BackgroundImageFix" result="effect1_dropShadow"/>
<feBlend mode="normal" in="SourceGraphic" in2="effect1_dropShadow" result="shape"/>
</filter>
<filter id="filter1_d" x="8.48096" y="-18.4688" width="202.337" height="410.091" filterUnits="userSpaceOnUse" color-interpolation-filters="sRGB">
<feFlood flood-opacity="0" result="BackgroundImageFix"/>
<feColorMatrix in="SourceAlpha" type="matrix" values="0 0 0 0 0 0 0 0 0 0 0 0 0 0 0 0 0 0 127 0"/>
<feOffset dy="14"/>
<feGaussianBlur stdDeviation="17"/>
<feColorMatrix type="matrix" values="0 0 0 0 0 0 0 0 0 0 0 0 0 0 0 0 0 0 0.12 0"/>
<feBlend mode="normal" in2="BackgroundImageFix" result="effect1_dropShadow"/>
<feBlend mode="normal" in="SourceGraphic" in2="effect1_dropShadow" result="shape"/>
</filter>
<clipPath id="clip0">
<rect width="320" height="247" fill="white"/>
</clipPath>
</defs>
</svg>
