<svg width="545" height="484" viewBox="0 0 545 484" fill="none" xmlns="http://www.w3.org/2000/svg">
<g clip-path="url(#clip0)">
<path d="M58.0281 327.108C27.8511 265.939 20.6455 189.444 20.4542 86.393L236.937 32.6256L453.42 86.393C453.228 189.444 446.023 265.939 415.846 327.108C385.64 388.336 332 434.967 236.937 477.008C141.873 434.967 88.2341 388.336 58.0281 327.108Z" fill="white" stroke="#56B84E" stroke-width="11"/>
<mask id="mask0" mask-type="alpha" maskUnits="userSpaceOnUse" x="0" y="-71" width="545" height="555">
<path d="M0 69.9617L14.9501 82.0931C14.9501 292.582 42.6758 397.826 236.937 483.017C374.75 422.542 428.751 351.971 448.504 240.888C456.568 195.44 545 254.11 545 193V-69.642L0 -71V69.9617Z" fill="#C4C4C4"/>
</mask>
<g mask="url(#mask0)">
<g filter="url(#filter0_d)">
<path d="M348.972 417.634C339.459 425.058 329.718 432.165 321.02 440.494C320.522 440.992 319.978 441.49 319.48 441.987C310.555 450.769 301.494 459.46 292.434 468.061C262.126 496.805 231.048 524.734 199.245 551.804C195.031 555.425 191.181 556.557 186.56 552.845C181.44 548.726 176.548 544.29 172.017 539.537C171.428 538.903 170.839 538.269 170.25 537.635C164.678 531.57 170.16 523.105 174.192 517.944C190.456 497.303 206.72 476.797 223.482 456.563C241.014 435.379 258.773 414.33 276.713 393.462C285.683 383.051 294.699 372.639 303.76 362.319C305.119 360.78 306.478 359.014 307.927 357.203C313.545 349.961 319.888 341.632 328.631 340.093C340.546 337.965 354.726 339.006 366.641 340.545C366.686 340.545 366.731 340.545 366.777 340.545C374.841 341.632 378.42 348.15 380.232 355.393C381.092 358.924 381.545 362.635 381.863 365.94C384.354 390.61 366.641 404.099 348.972 417.634Z" fill="#56B84E"/>
<path d="M343.083 363.903C333.433 388.709 326.049 414.375 320.975 440.494C320.476 440.992 319.933 441.489 319.434 441.987C280.655 479.966 240.561 516.632 199.199 551.804C194.986 555.425 191.135 556.557 186.514 552.845C181.395 548.725 176.502 544.289 171.972 539.536C173.965 538.903 176.411 538.495 178.812 538.043C197.84 534.512 216.55 519.167 230.685 506.673C239.293 499.068 247.266 490.739 254.696 482.003C272.183 461.407 286.589 438.366 299.999 414.918C305.436 405.367 310.827 395.68 317.849 387.215C325.188 378.343 334.158 371.1 343.083 363.903Z" fill="#2F9227"/>
<path d="M391.965 568.326C392.327 571.902 389.881 573.758 386.619 575.07C381.228 577.243 375.746 579.054 370.129 580.548C366.187 581.589 360.253 583.807 356.447 581.408C355.405 580.729 354.635 579.733 353.865 578.782C343.037 564.795 332.708 550.446 322.923 535.734C322.016 534.331 321.065 532.973 320.159 531.569C310.645 517.129 297.915 501.105 293.747 484.085C292.479 478.879 292.116 473.493 292.388 468.061C292.886 457.559 295.559 446.876 298.096 437.008C302.581 419.49 309.105 402.56 316.535 386.129C320.204 378.026 324.1 369.968 328.087 362.002C328.54 361.096 329.039 359.874 329.582 358.516C331.893 352.858 335.064 344.529 339.594 343.126C340.546 342.809 341.588 342.763 342.584 342.673C350.648 342.13 358.667 341.451 366.64 340.545C374.387 339.64 382.134 338.508 389.836 337.06C392.69 336.517 395.68 335.928 398.534 336.562C400.527 336.969 402.249 338.191 403.698 339.957C408.772 345.977 410.902 358.154 411.4 364.174C411.4 364.31 411.4 364.446 411.445 364.627C412.895 385.766 397.764 406.951 388.159 424.786C386.664 427.547 385.169 430.309 383.629 433.07C373.979 450.497 363.832 467.653 353.14 484.447C352.687 485.126 352.234 485.896 352.234 486.665C352.234 486.71 352.234 486.756 352.234 486.801C352.279 487.435 352.596 488.023 352.913 488.612C360.298 501.784 367.365 515.092 374.07 528.627C377.423 535.372 380.639 542.207 383.765 549.042C386.347 554.746 390.425 561.309 391.784 567.375C391.874 567.647 391.92 568.009 391.965 568.326Z" fill="#56B84E"/>
<path d="M411.4 364.129C410.675 363.767 409.905 363.45 409.18 363.133C399.984 359.059 390.243 356.57 380.231 355.393C368.815 354.08 357.127 354.442 345.756 356.072C340.364 356.841 334.973 357.882 329.582 358.516C327.226 358.788 324.871 358.969 322.47 359.014C317.803 359.105 312.593 358.742 307.882 357.203C313.499 349.961 319.842 341.632 328.586 340.093C340.5 337.965 354.68 339.006 366.595 340.545C374.342 339.64 382.089 338.508 389.79 337.06C392.645 336.517 395.635 335.928 398.489 336.562C400.482 336.969 402.204 338.191 403.653 339.957C408.818 345.932 410.902 358.109 411.4 364.129Z" fill="#2F9227"/>
<path d="M314.27 207.236C316.625 203.66 318.573 199.812 320.068 195.783C324.236 184.467 326.683 172.652 325.233 160.566C325.006 158.71 324.735 156.764 324.327 154.862C323.24 152.78 321.88 150.879 320.295 149.114C319.208 147.937 318.03 146.85 316.58 146.262C314.405 145.357 311.959 145.628 309.649 145.99C306.659 146.443 303.714 146.986 300.679 146.896C300.497 146.896 300.316 146.896 300.09 146.85C296.737 146.669 293.475 145.764 290.123 145.357C283.327 144.496 276.169 145.809 270.28 149.34C264.39 152.871 255.013 163.508 255.013 163.508C255.013 163.508 258.365 179.397 261.672 185.417C263.394 188.495 265.568 191.302 267.969 193.837C270.053 196.01 272.409 197.956 274.72 199.903C276.622 201.487 278.888 201.758 281.107 202.664C286.272 204.837 290.893 208.548 296.556 209.363C301.177 209.997 305.798 208.548 310.192 207.055C311.642 206.738 313.001 207.009 314.27 207.236Z" fill="#443100"/>
<path d="M327.997 220.137C322.56 225.614 315.719 229.598 308.29 231.68C305.934 232.314 303.941 232.902 301.675 233.807C299.909 230.096 298.187 226.384 296.42 222.627C295.016 219.639 293.611 216.651 292.207 213.709C294.336 209.771 296.058 205.923 297.915 201.849C301.54 193.882 305.164 185.87 307.384 177.451C309.739 184.558 312.729 191.393 315.946 198.137C318.347 203.162 320.884 208.141 323.421 213.121C324.735 215.61 326.185 217.919 327.997 220.137Z" fill="#966C00"/>
<path d="M315.946 198.092C315.493 199.178 314.949 200.265 314.451 201.351C312.911 204.475 311.28 207.553 309.332 210.45C306.07 215.339 301.811 220.001 296.42 222.581C295.016 219.594 293.611 216.606 292.207 213.664C294.336 209.725 296.058 205.878 297.915 201.804C301.54 193.837 305.164 185.825 307.384 177.405C309.739 184.467 312.729 191.347 315.946 198.092Z" fill="#784F00"/>
<path d="M311.506 180.529C313.047 188.451 312.005 197.051 309.649 204.701C307.157 212.668 297.825 220.544 288.673 219.368C280.609 218.326 276.396 212.623 273.134 206.195C269.284 198.635 265.976 190.85 262.669 183.064C261.174 179.578 259.679 176.002 258.909 172.336C258.637 170.887 258.456 169.393 258.456 167.9C258.456 159.39 262.624 151.785 269.102 146.896C273.905 143.275 280.02 141.057 286.635 141.057C289.761 141.057 292.751 141.555 295.56 142.415C302.944 144.768 309.015 149.974 312.231 156.628C313.907 160.069 314.814 163.871 314.814 167.854C314.859 172.426 313.636 176.727 311.506 180.529Z" fill="#966C00"/>
<path d="M312.276 156.583C311.868 157.172 311.37 157.76 310.691 158.077C309.694 158.575 308.471 158.349 307.383 158.213C301.675 157.489 295.831 158.349 290.576 160.657C285.593 162.875 281.289 166.316 276.668 169.258C274.901 170.39 273.089 171.431 271.095 172.019C269.374 172.472 267.607 172.608 265.84 172.653C263.575 172.698 261.265 172.653 258.999 172.291C258.728 170.842 258.546 169.348 258.546 167.855C258.546 159.345 262.714 151.74 269.193 146.851C270.597 146.398 272.001 145.991 273.451 145.629C278.389 144.407 283.373 143.547 288.447 142.958C290.848 142.687 293.249 142.46 295.65 142.37C302.989 144.723 309.014 149.884 312.276 156.583Z" fill="#784F00"/>
<path d="M515.417 153.641C515.417 153.731 515.417 153.777 515.372 153.822C515.281 154.275 514.964 154.591 514.601 154.818C514.556 154.863 514.466 154.908 514.42 154.908C514.375 154.908 514.375 154.954 514.33 154.954C513.922 155.135 513.424 155.18 512.925 155.135C512.699 155.089 512.427 155.044 512.246 154.954C511.113 154.41 510.343 153.279 509.663 152.238C508.214 150.019 506.583 147.892 504.861 145.855C504.091 144.95 503.276 144.044 502.415 143.139C502.052 142.732 500.784 141.736 499.923 140.785C499.289 140.106 498.881 139.472 499.108 139.156C499.47 138.612 501.373 138.567 502.007 138.431C503.004 138.25 504 138.114 504.997 138.024C505.224 137.979 505.495 137.979 505.722 138.069C505.767 138.069 505.767 138.069 505.813 138.114C506.084 138.205 506.311 138.431 506.492 138.658C506.719 138.929 506.945 139.201 507.172 139.472C507.217 139.563 507.308 139.608 507.353 139.699C508.893 141.6 510.298 143.592 511.611 145.629C511.702 145.764 511.793 145.9 511.883 146.081C513.016 147.937 514.058 149.838 514.964 151.785C515.054 151.921 515.1 152.102 515.19 152.238C515.326 152.735 515.462 153.188 515.417 153.641Z" fill="#966C00"/>
<path d="M514.601 154.817C514.556 154.863 514.465 154.908 514.42 154.908C514.375 154.908 514.375 154.953 514.33 154.953C513.922 155.134 513.423 155.179 512.925 155.134C512.744 154.817 512.517 154.455 512.336 154.138C511.068 152.011 509.844 149.883 508.576 147.71C508.304 147.212 507.172 145.99 507.489 145.357C507.942 144.406 509.482 145.311 509.89 145.809C510.162 146.081 510.388 146.443 510.569 146.805C512.155 149.385 513.65 152.011 514.601 154.817Z" fill="#784F00"/>
<path d="M519.177 155.361C518.86 156.583 517.184 157.036 516.051 156.492C515.372 156.175 514.828 155.632 514.33 154.999C514.013 154.591 513.741 154.184 513.469 153.776C511.566 150.925 509.482 148.209 507.172 145.674C506.855 145.357 506.583 145.04 506.266 144.723C505.632 144.044 502.415 141.6 502.959 140.74C503.004 140.694 503.004 140.649 503.095 140.604C503.638 140.196 505.314 140.106 505.858 140.015C506.356 139.925 506.9 139.834 507.398 139.789C507.489 139.789 507.625 139.744 507.715 139.744C507.897 139.699 508.078 139.699 508.259 139.699C508.44 139.653 508.667 139.653 508.848 139.653C509.12 139.608 509.392 139.608 509.664 139.699C509.935 139.789 510.162 140.015 510.343 140.242C511.159 141.192 511.883 142.143 512.654 143.094C513.378 144.044 514.058 144.995 514.692 145.991C515.553 147.258 516.323 148.571 517.048 149.883C517.456 150.653 517.909 151.423 518.271 152.237C518.452 152.645 518.634 153.007 518.86 153.414C518.951 153.55 518.996 153.731 519.087 153.867C519.177 154.32 519.313 154.817 519.177 155.361Z" fill="#966C00"/>
<path d="M518.181 152.147C517.184 151.423 516.232 150.698 515.372 149.883C513.152 147.801 511.34 145.266 508.984 143.32L509.346 143.501C509.346 143.41 509.346 143.365 509.346 143.275C509.482 143.003 509.799 142.912 510.071 142.867C510.887 142.731 511.747 142.867 512.563 143.048C513.288 143.999 513.967 144.949 514.602 145.945C515.462 147.213 516.232 148.525 516.957 149.838C517.365 150.562 517.773 151.377 518.181 152.147Z" fill="#784F00"/>
<path d="M526.108 154.184C525.429 154.999 524.07 154.818 523.118 154.365C520.763 153.324 518.905 151.468 516.957 149.793C516.776 149.657 516.64 149.521 516.459 149.386C515.009 148.163 513.469 147.077 511.838 146.081C511.566 145.9 511.294 145.764 511.068 145.629C509.573 144.769 508.032 143.999 506.447 143.365C505.586 143.003 504.635 142.641 503.91 142.053C503.411 141.6 503.14 141.102 503.049 140.559C502.822 139.291 503.728 138.114 505.495 138.703C506.084 138.884 506.628 139.246 507.172 139.472C507.353 139.563 507.489 139.608 507.67 139.653C507.851 139.699 507.987 139.744 508.168 139.789C508.168 139.744 508.168 139.653 508.168 139.608C508.259 139.02 508.848 138.612 509.437 138.522C510.116 138.431 510.75 138.658 511.339 138.929C512.653 139.563 513.831 140.423 515.009 141.283C517.274 142.958 519.494 144.768 521.533 146.715C522.937 148.028 524.206 149.431 525.383 150.925C525.565 151.151 525.746 151.377 525.882 151.604C526.063 151.875 526.199 152.147 526.29 152.464C526.561 153.052 526.516 153.731 526.108 154.184Z" fill="#966C00"/>
<path d="M502.46 143.093C502.958 143.636 503.457 144.18 503.955 144.723C507.172 144.497 510.524 144.949 513.695 145.402C515.643 145.673 517.591 146.036 519.494 146.443C520.219 146.534 520.899 146.579 521.623 146.669C519.585 144.723 517.365 142.957 515.1 141.237C513.922 140.377 512.744 139.517 511.43 138.884C510.841 138.612 510.162 138.34 509.527 138.476C508.938 138.567 508.35 139.019 508.259 139.563C508.078 139.563 507.896 139.608 507.715 139.608C507.534 139.562 507.353 139.472 507.217 139.427C506.99 139.155 506.764 138.884 506.537 138.612C506.356 138.386 506.13 138.159 505.858 138.069C505.813 138.069 505.813 138.069 505.767 138.023C504.906 138.205 504.091 138.431 503.276 138.702C502.143 139.019 500.92 139.427 500.24 140.377C500.15 140.513 500.059 140.649 500.014 140.785C500.784 141.735 502.052 142.731 502.46 143.093Z" fill="#784F00"/>
<path d="M529.642 142.143C527.377 143.275 524.568 143.275 522.077 143.365C517.999 143.456 513.877 143.546 509.799 143.637C506.447 143.727 502.46 143.048 499.878 145.674C499.606 145.945 499.334 146.262 499.244 146.67C499.062 147.303 499.38 147.937 499.787 148.48C501.282 150.336 503.276 151.423 505.45 152.328C507.353 153.143 509.346 154.093 510.162 156.13C510.252 156.311 510.252 156.447 510.298 156.628C510.841 158.575 508.984 159.299 507.398 159.118C501.328 158.484 495.393 156.674 490.002 153.867C489.05 153.369 488.099 152.826 487.148 152.6C486.287 152.418 485.426 152.509 484.52 153.097C484.248 153.279 483.931 153.505 483.569 153.776C481.892 155.044 479.718 157.036 477.589 158.982C475.097 161.245 472.605 163.554 471.02 164.731C467.758 167.175 468.301 166.044 464.813 168.171C462.548 169.529 460.69 168.352 459.195 166.179C456.93 162.875 455.571 157.307 455.073 155.089C454.937 154.41 454.801 153.776 454.846 153.097C454.892 152.826 454.982 152.554 455.073 152.328C455.616 151.287 456.84 150.698 457.791 150.065C459.15 149.114 460.509 148.163 461.914 147.213C462.638 146.715 463.363 146.262 464.088 145.81C466.172 144.452 468.301 143.184 470.521 142.007C476.32 138.929 482.617 136.62 489.232 136.213C495.71 135.806 502.37 136.711 508.848 137.164C515.598 137.616 522.303 138.024 529.053 138.476C531.319 138.612 531.364 141.283 529.642 142.143Z" fill="#966C00"/>
<path d="M477.589 158.982C475.097 161.245 472.605 163.554 471.02 164.731C467.758 167.175 468.301 166.044 464.813 168.171C462.548 169.529 460.69 168.352 459.195 166.179C458.018 163.871 456.976 161.426 456.251 158.937C455.617 156.764 455.163 154.546 455.118 152.328C455.662 151.287 456.885 150.698 457.836 150.065C459.195 149.114 460.555 148.163 461.959 147.213C462.684 146.715 463.409 146.262 464.134 145.81C464.405 146.308 464.677 146.76 464.994 147.258C467.078 150.517 469.751 153.46 472.832 155.859C474.327 156.99 475.912 158.077 477.589 158.982Z" fill="#784F00"/>
<path d="M487.148 152.599C486.287 152.418 485.426 152.509 484.52 153.097C484.248 153.278 483.931 153.505 483.569 153.776C482.617 151.603 483.931 148.571 485.018 146.669C485.245 148.797 486.015 150.834 487.148 152.599Z" fill="#784F00"/>
<path d="M263.167 194.652C263.122 194.923 263.032 195.24 262.76 195.376C262.352 195.602 261.854 195.286 261.537 194.923C259.181 192.253 258.909 188.36 257.187 185.327C256.78 183.335 256.78 181.208 257.278 179.216C257.323 178.99 257.369 178.763 257.459 178.537C257.64 177.903 257.958 177.179 258.592 176.953C259 176.817 259.498 176.953 259.86 177.179C260.857 177.767 261.265 178.944 261.627 180.031C262.397 182.52 263.077 185.101 263.394 187.681C263.666 189.989 263.666 192.343 263.167 194.652Z" fill="#966C00"/>
<path d="M263.167 194.652C263.122 194.924 263.032 195.241 262.76 195.376C262.352 195.603 261.854 195.286 261.537 194.924C259.181 192.253 258.909 188.36 257.187 185.327C256.78 183.336 256.78 181.208 257.278 179.216C257.731 180.122 258.275 181.027 258.864 181.842C260.223 183.879 261.808 185.78 263.439 187.681C263.666 189.99 263.666 192.344 263.167 194.652Z" fill="#784F00"/>
<path d="M255.013 186.187C255.013 187.138 254.877 188.767 253.653 188.903C252.34 189.039 252.068 187.636 251.887 186.73C251.252 183.698 250.21 180.755 248.761 177.994C248.036 176.636 247.266 175.368 246.496 174.01C244.729 170.887 243.234 167.673 242.056 164.278C241.92 163.961 241.829 163.599 241.875 163.282C241.965 162.603 242.781 162.151 243.46 162.196C243.551 162.196 243.596 162.196 243.641 162.241C244.276 162.377 244.819 162.739 245.318 163.147C245.68 163.463 245.997 163.78 246.314 164.097C247.945 165.817 249.168 167.945 250.256 170.027C252.838 175.052 255.103 180.484 255.013 186.187Z" fill="#966C00"/>
<path d="M252.929 182.34C250.754 175.324 247.039 168.941 243.732 162.423C243.687 162.332 243.642 162.287 243.642 162.196C244.276 162.332 244.819 162.694 245.318 163.102C245.68 163.418 245.997 163.735 246.315 164.052C246.632 164.55 246.903 165.003 247.221 165.501C247.719 166.316 248.217 167.085 248.625 167.945C249.169 168.986 249.576 170.073 250.029 171.159C251.434 174.871 252.793 178.402 252.929 182.34Z" fill="#784F00"/>
<path d="M256.236 185.599C256.236 185.961 256.236 186.323 256.009 186.64C255.511 187.409 254.061 187.274 253.2 186.957C253.155 184.92 252.883 182.928 252.43 180.936C250.98 174.871 247.945 169.122 245.136 163.554C244.774 162.875 244.502 161.924 245.136 161.517C245.318 161.381 245.589 161.336 245.816 161.336C246.722 161.336 247.537 161.743 248.217 162.332C248.942 162.966 249.576 163.826 250.12 164.64C250.663 165.455 251.207 166.27 251.615 167.13C252.566 169.122 252.793 171.385 253.336 173.513C253.382 173.603 253.382 173.739 253.427 173.829C254.378 177.813 256.236 181.57 256.236 185.599Z" fill="#966C00"/>
<path d="M253.336 178.265C252.883 176.183 252.476 174.056 252.023 171.973C251.796 170.887 251.57 169.846 251.253 168.805C250.799 167.402 250.211 166.044 249.486 164.731C249.123 164.052 248.716 163.418 248.353 162.784C248.262 162.649 248.217 162.513 248.172 162.377C248.897 163.011 249.531 163.871 250.075 164.686C250.618 165.5 251.162 166.315 251.57 167.175C252.521 169.167 252.748 171.43 253.291 173.558C253.336 173.648 253.336 173.784 253.382 173.875C253.246 175.323 253.155 176.817 253.336 178.265Z" fill="#784F00"/>
<path d="M266.882 206.014C266.792 206.648 266.656 207.281 266.475 207.915C266.112 209.092 265.614 210.224 265.07 211.31C264.572 212.306 264.028 213.347 263.575 214.388C263.122 215.474 262.669 216.516 262.216 217.602C261.219 219.911 260.268 222.264 259.271 224.573C258.456 226.474 257.595 228.466 255.964 229.824C254.605 230.956 252.43 231.137 251.57 229.281C247.538 226.882 243.868 223.939 240.652 220.59C239.927 219.82 239.927 218.643 240.652 217.919C241.376 217.195 242.101 216.425 242.826 215.701C242.781 215.248 242.917 214.75 243.324 214.298C245.046 212.351 246.768 210.359 248.489 208.413C250.029 206.648 251.57 204.882 253.11 203.117C252.068 197.232 251.615 191.347 251.434 185.372C251.434 185.282 251.434 185.191 251.434 185.101C251.434 184.512 251.524 183.833 252.023 183.516C252.204 183.381 252.43 183.335 252.521 183.154C252.657 182.973 252.657 182.747 252.612 182.521C252.612 182.294 252.566 182.068 252.566 181.842C252.566 181.706 252.566 181.57 252.521 181.434C252.476 180.484 252.43 179.533 252.385 178.628C252.295 177.134 252.204 175.685 252.159 174.192C252.113 173.558 252.068 172.969 252.068 172.336C252.023 171.476 251.977 170.661 251.932 169.801C251.887 169.348 251.887 168.895 252.023 168.443V168.397C252.521 166.813 254.877 166.768 255.556 168.216C255.783 168.669 255.874 169.167 255.919 169.665C256.372 172.743 256.598 175.957 257.278 178.99C257.369 179.261 257.414 179.578 257.504 179.85C257.776 180.936 258.184 181.977 258.637 183.018C260.041 186.006 261.899 188.767 263.484 191.619C264.164 192.841 264.798 194.063 265.297 195.376C265.931 196.915 266.384 198.545 266.656 200.174C267.063 201.985 267.199 204.067 266.882 206.014Z" fill="#966C00"/>
<path d="M262.261 217.602C261.265 219.911 260.313 222.265 259.317 224.573C258.501 226.474 257.64 228.466 256.01 229.824C254.65 230.956 252.476 231.137 251.615 229.281C247.583 226.882 243.914 223.939 240.697 220.59C239.972 219.82 239.972 218.643 240.697 217.919C241.422 217.195 242.147 216.425 242.872 215.701C242.826 215.248 242.962 214.75 243.37 214.298C245.091 212.351 246.813 210.36 248.534 208.413C250.301 211.129 252.521 213.619 255.239 215.248C257.414 216.471 259.77 217.195 262.261 217.602Z" fill="#784F00"/>
<path d="M266.882 206.014C266.792 206.647 266.656 207.281 266.474 207.915C266.112 209.092 265.614 210.223 265.07 211.31C264.209 210.948 263.394 210.495 262.578 210.042C261.491 209.363 260.54 208.639 259.588 207.87C260.857 208.368 262.261 208.549 263.62 208.322C264.119 208.232 264.617 208.096 265.115 207.87C265.886 207.507 266.474 206.783 266.882 206.014Z" fill="#784F00"/>
<path d="M469.661 166.542C452.173 186.64 432.512 204.928 411.129 220.952C401.162 228.421 390.787 235.392 380.096 241.865C380.096 241.865 380.186 242.001 380.322 242.272C393 270.926 404.378 319.5 404.741 338.599C404.514 338.916 404.378 339.188 404.378 339.324C404.288 347.834 396.586 348.83 388.839 349.916C376.653 351.591 364.33 352.496 352.008 352.677C344.623 352.768 337.239 352.587 329.854 352.179C325.822 351.953 317.486 352.768 315.267 348.377C314.949 347.743 314.632 347.109 314.315 346.521C313.59 346.159 313 345 312.5 344C306.113 333.355 299.685 315.727 295.877 303.835C295.242 301.798 294.608 299.761 293.974 297.86C293.566 296.592 293.159 295.37 292.751 294.238C291.664 291.024 290.667 288.399 289.897 286.86C289.398 285.864 286.772 280.455 286.5 280.5C283.872 281.315 282.628 281.321 280 282C279.275 282.181 278.505 282.362 277.78 282.543C263.238 285.938 247.36 286.22 232.5 284.5C219.029 282.988 197 280.5 192.041 270.926C191.09 266.807 192.223 262.371 194.307 258.659C198.927 250.375 206.946 242.861 213.787 236.433C222.666 228.149 232.361 220.816 242.056 213.528C242.736 213.03 243.551 212.759 244.367 212.714C247.719 215.022 250.755 217.738 254.198 219.956C255.783 220.997 257.459 221.993 259.136 222.898C261.99 229.055 256.236 240.552 251.343 243.585C251.253 243.63 251.162 243.676 251.117 243.721C250.981 243.812 250.89 243.857 250.755 243.902C250.8 243.902 250.8 243.902 250.845 243.857C252.204 243.449 258.954 243.314 261.174 243.087C264.346 242.77 267.471 242.137 270.597 241.593C272.681 241.231 274.765 240.914 276.849 240.733C281.38 240.326 286.046 239.602 290.214 237.791C293.113 236.524 296.239 231.952 299.229 231.68C304.802 231.137 310.329 229.869 315.357 227.425C320.386 224.981 324.871 221.314 327.906 216.606C328.405 216.516 328.903 216.425 329.401 216.38C329.854 215.746 328.676 215.862 329.401 215.5C364 213.528 397.5 177 460.192 147.575C462.14 151.785 464.088 156.04 466.127 160.205C466.308 160.521 469.57 166.542 469.661 166.542Z" fill="#FF7474"/>
<path d="M383.629 432.979C373.979 450.407 363.831 467.563 353.14 484.357C352.687 485.036 352.234 485.805 352.234 486.575C345.665 484.764 339.051 483.361 332.3 482.32C341.497 477.929 348.927 470.596 356.039 463.308C365.553 453.576 375.021 443.572 383.629 432.979Z" fill="#F83939" fill-opacity="0.1"/>
<path d="M404.741 338.508C404.514 338.825 404.378 339.097 404.378 339.233C404.288 347.743 396.586 348.739 388.839 349.825C376.653 351.5 364.33 352.405 352.007 352.586C344.623 352.677 337.239 352.496 329.854 352.088C325.822 351.862 317.486 352.677 315.266 348.286C314.949 347.652 314.632 347.018 314.315 346.43C313.59 346.068 312.911 345.66 312.276 345.162C315.855 345.932 319.57 346.158 323.195 345.751C326.185 345.389 329.084 344.665 332.029 344.031C342.086 341.858 352.46 341.179 362.699 341.949C365.463 342.175 367.818 342.809 370.582 342.899C380.458 343.216 390.515 343.488 399.893 340.455C401.524 339.866 403.155 339.233 404.741 338.508Z" fill="white"/>
<path d="M270.598 241.503C258.411 249.787 243.28 253.544 228.465 253.227C232.135 252.367 235.714 251.235 239.248 249.832C243.234 248.248 247.04 245.984 250.845 243.766C252.204 243.359 258.955 243.223 261.174 242.997C264.3 242.635 267.472 242.046 270.598 241.503Z" fill="#FFB0B0"/>
<path d="M287.281 282.251C286.782 281.255 286.374 280.757 286.103 280.802C283.475 281.617 280.847 282.341 278.22 283.02C277.495 283.201 276.725 283.382 276 283.563C278.22 281.888 280.304 279.987 281.482 277.498C283.158 273.967 282.75 269.848 282.252 266C284.155 271.341 285.831 276.773 287.281 282.251Z" fill="#FFB0B0"/>
<path d="M380.096 241.819C380.096 241.819 380.186 241.955 380.322 242.227C379.688 241.593 379.099 240.778 378.465 240.145C375.339 236.795 372.168 233.536 368.951 230.277C372.485 230.82 376.064 231.363 379.597 231.272C384.807 231.091 389.836 229.552 394.729 227.742C400.256 225.705 405.692 223.351 411.129 220.952C401.162 228.421 390.787 235.392 380.096 241.819Z" fill="#FFB0B0"/>
<path d="M326.275 216.198C324.644 220.997 319.117 224.527 314.723 226.519C312.458 227.56 310.011 228.285 307.565 228.782C305.073 229.28 301.766 230.095 299.41 228.964C297.19 227.968 295.288 231.227 297.508 232.223C300.498 233.581 303.624 233.264 306.795 232.766C310.011 232.268 313.137 231.317 316.082 230.005C321.7 227.56 327.906 223.215 329.945 217.194C330.715 214.886 327.045 213.89 326.275 216.198Z" fill="#FFB0B0"/>
<path d="M259.906 220.77C255.33 217.692 250.89 214.433 246.632 210.993C244.729 209.499 242.011 212.17 243.959 213.664C248.489 217.285 253.201 220.77 258.003 224.03C259.996 225.433 261.899 222.128 259.906 220.77Z" fill="#FFB0B0"/>
<path d="M471.744 164.505C468.528 158.62 465.356 152.735 462.23 146.805C461.098 144.633 457.791 146.579 458.969 148.707C462.095 154.636 465.266 160.566 468.482 166.406C469.66 168.579 472.922 166.632 471.744 164.505Z" fill="#FFB0B0"/>
<path d="M387 259.5C370.227 268.351 353.163 276.415 335.608 283.691C322.153 289.259 308.335 294.736 294.019 297.723C293.611 296.456 293.204 295.234 292.796 294.102C298.64 292.925 304.394 291.25 310.057 289.394C329.175 283.057 347.794 274.773 365.916 265.992C372.55 262.801 379.147 259.459 385.637 256C386 257 386.5 258.5 387 259.5Z" fill="#9F1D00"/>
<path d="M391 272.217C375.983 279.819 360.562 286.59 344.804 292.427C333.614 296.592 322.288 300.258 310.827 303.518C306.251 304.785 301.63 306.143 296.964 307.229C296.601 306.053 296.239 304.83 295.876 303.699C302.355 302.16 308.743 300.213 314.994 298.357C337.465 291.748 359.437 283.284 380.549 273.144C383.717 271.641 386.839 270.093 389.949 268.5C390 269 391 271.5 391 272.217Z" fill="#9F1D00"/>
<path d="M395.667 289C381.007 295.407 365.992 301.001 350.739 305.781C334.158 310.941 317.26 315.105 300.18 318.229C299.863 317.052 299.501 315.83 299.138 314.607C305.752 313.385 312.367 312.027 318.936 310.488C342.992 304.92 366.595 297.27 389.337 287.629C391.133 286.866 392.928 286.094 394.719 285.308C395 286 395.667 288 395.667 289Z" fill="#9F1D00"/>
<path d="M399.242 303C383.723 310.043 367.664 315.903 351.237 320.492C338.824 323.978 326.185 326.694 313.409 328.64C310.781 329.042 308.152 329.443 305.5 329.797C304.867 328.64 304.5 327.5 304 326.238C308.668 325.634 313.3 324.893 317.894 324.114C343.037 319.768 367.728 312.48 391.195 302.431C393.636 301.392 396.076 300.309 398.5 299.197C399 300 399 302 399.242 303Z" fill="#9F1D00"/>
<path d="M316.309 172.426C318.347 171.611 322.606 171.747 325.505 172.019C325.777 168.262 325.686 164.414 325.233 160.612C324.735 156.266 323.92 151.604 321.971 147.62C320.884 145.357 319.434 143.365 317.713 141.69C316.807 141.102 315.855 140.649 314.859 140.242C311.144 138.838 306.704 139.834 303.669 142.414C302.174 143.637 300.996 145.221 300.135 146.941C299.229 148.797 298.686 150.789 298.504 152.826C298.187 156.809 299.184 160.793 300.905 164.369C302.129 166.904 303.714 169.303 305.889 171.068C309.332 173.829 312.412 174.01 316.309 172.426Z" fill="#443100"/>
<path d="M249 157.5C242.5 161.5 246 173 254.5 173C261.5 173 265 169 266 166C269.5 168 273 167 275.5 162.5C279 163.5 282 162.5 287 158.5C293 158.5 299 154 299 148C299.5 148.333 301.9 148.2 307.5 145C317.5 138 306 127 299 134.5C303 123.5 284.5 120.5 283.5 132.5C280 122.499 267.5 124.5 268.5 134.5C262 126.5 250 132.5 253.5 142.5C243 140 239.5 154.5 249 157.5Z" fill="#443100"/>
<path d="M312.322 171.475C315.81 170.389 319.933 172.652 321.065 176.319C321.881 178.899 321.292 181.706 320.431 184.286C319.661 186.504 318.619 188.677 317.124 190.397C315.584 192.117 313.5 193.384 311.28 193.52C310.691 193.565 310.057 193.52 309.513 193.294C308.426 192.841 307.656 191.755 307.112 190.623C305.662 187.545 304.847 182.566 305.436 179.125C305.979 175.911 309.422 172.381 312.322 171.475Z" fill="#966C00"/>
<path opacity="0.2" d="M294.88 135.172C291.301 134.267 287.45 134.855 284.052 136.213C281.742 137.164 279.567 138.477 277.121 138.929C275.173 139.291 273.043 139.156 271.458 140.287C271.141 140.513 270.869 140.74 270.778 141.102C270.552 141.736 271.005 142.415 271.594 142.732C272.183 143.003 272.907 143.003 273.542 142.913C277.03 142.505 280.247 140.876 283.644 139.834C286 139.11 288.492 138.703 290.938 138.929C293.385 139.156 295.831 140.061 297.643 141.736C298.232 142.324 298.776 142.958 299.455 143.456C300.135 143.954 300.95 144.316 301.766 144.135C304.801 143.501 301.902 139.744 300.814 138.658C299.274 136.892 297.145 135.715 294.88 135.172Z" fill="white"/>
<path opacity="0.2" d="M308.153 145.583C308.788 145.9 309.513 145.99 310.192 146.126C312.82 146.624 315.538 147.484 317.395 149.476C318.347 150.517 319.026 151.83 320.114 152.735C320.249 152.871 320.431 152.961 320.612 153.007C321.02 153.052 321.337 152.554 321.427 152.147C321.88 150.336 321.201 148.39 320.114 146.851C318.347 144.497 315.629 142.958 312.82 142.098C311.461 141.69 308.969 141.056 307.655 142.007C306.251 143.048 306.794 144.904 308.153 145.583Z" fill="white"/>
<path d="M286.192 195.791C284.247 196.987 281.056 197.386 279.709 195.044C278.911 193.649 279.31 191.954 280.407 190.858C281.305 189.961 282.552 189.513 283.799 189.363C281.953 189.812 279.959 191.506 280.806 193.599C281.604 195.492 284.297 196.937 286.192 195.791Z" fill="#784F00"/>
<path d="M272.428 181.391C270.932 181.64 269.486 181.988 268.089 182.487C267.74 182.636 267.341 182.736 266.992 182.885C266.244 183.184 265.496 183.533 264.798 183.932C264.748 183.982 264.648 184.031 264.549 184.081C264.399 184.181 264.199 184.281 264.1 184.33C264 184.38 264 184.38 264 184.38C264 184.38 264 184.33 264 184.231C264 184.081 264.05 183.932 264.199 183.732C264.848 182.736 266.294 182.088 267.341 181.59C267.541 181.49 267.74 181.391 267.989 181.341C268.738 181.092 269.535 180.892 270.333 180.842H270.483C270.982 180.793 271.78 180.743 272.228 180.942C272.278 180.942 272.428 181.241 272.428 181.391Z" fill="#110F42"/>
<path d="M278.113 187.768C276.617 188.018 275.171 188.366 273.774 188.865C273.425 189.014 273.026 189.114 272.677 189.263C271.929 189.562 271.181 189.911 270.483 190.31C270.433 190.36 270.333 190.409 270.234 190.459C270.084 190.559 269.885 190.659 269.785 190.708C269.685 190.758 269.685 190.758 269.685 190.758C269.685 190.758 269.685 190.708 269.685 190.609C269.685 190.459 269.735 190.31 269.885 190.11C270.533 189.114 271.979 188.466 273.026 187.968C273.226 187.868 273.425 187.768 273.675 187.719C274.423 187.469 275.221 187.27 276.018 187.22H276.168C276.667 187.171 277.465 187.121 277.913 187.32C277.963 187.37 278.113 187.619 278.113 187.768Z" fill="black"/>
<path d="M289.633 173.368C289.533 173.468 289.234 173.568 289.084 173.617C288.984 173.667 288.934 173.667 288.835 173.717C288.137 174.016 287.389 174.365 286.64 174.763C284.995 175.66 283.449 176.757 282.003 178.002C281.903 177.903 281.803 177.604 281.803 177.504C281.853 177.354 281.903 177.205 282.053 177.056C282.302 176.707 282.601 176.358 282.85 176.059L282.95 175.959C283.648 175.212 284.446 174.614 285.394 174.116C286.441 173.617 287.837 172.87 289.034 173.019C289.234 173.069 289.433 173.119 289.533 173.169C289.633 173.269 289.633 173.318 289.633 173.368Z" fill="#110F42"/>
<path d="M291.777 179.746C291.677 179.846 291.378 179.945 291.228 179.995C291.128 180.045 291.079 180.045 290.979 180.095C290.281 180.394 289.533 180.743 288.785 181.141C287.139 182.038 285.593 183.134 284.147 184.38C284.047 184.28 283.947 183.982 283.947 183.882C283.997 183.732 284.047 183.583 284.197 183.433C284.446 183.085 284.745 182.736 284.995 182.437L285.094 182.337C285.792 181.59 286.59 180.992 287.538 180.494C288.585 179.995 289.981 179.248 291.178 179.397C291.378 179.447 291.577 179.497 291.677 179.547C291.727 179.646 291.777 179.746 291.777 179.746Z" fill="black"/>
<path d="M275.52 189.762C275.869 190.858 275.57 192.004 274.822 192.253C274.074 192.502 273.176 191.805 272.827 190.659C272.478 189.562 272.777 188.416 273.525 188.167C274.223 187.918 275.121 188.665 275.52 189.762Z" fill="black"/>
<path d="M289.383 183.185C289.732 184.281 289.433 185.427 288.685 185.676C287.937 185.925 287.04 185.228 286.691 184.081C286.341 182.985 286.641 181.839 287.389 181.59C288.137 181.341 289.034 182.088 289.383 183.185Z" fill="black"/>
<path d="M288.524 182.515C287.876 182.615 287.976 183.612 288.624 183.512C289.272 183.462 289.172 182.466 288.524 182.515Z" fill="white"/>
<path d="M274.376 189.125C273.727 189.225 273.827 190.221 274.475 190.122C275.174 190.022 275.024 189.026 274.376 189.125Z" fill="white"/>
<path d="M276.586 203.428C277.391 205.618 278.643 207.495 280.164 208.97C280.477 209.283 280.835 209.596 281.149 209.864C284.19 212.323 287.948 213.217 291.393 211.965C294.122 210.937 296.135 208.747 297.164 205.931C297.253 205.707 297.343 205.484 297.387 205.26C298.282 202.4 298.237 199.047 296.985 195.784C296.851 195.382 296.672 195.024 296.493 194.622L276.138 202.176C276.317 202.668 276.451 203.025 276.586 203.428Z" fill="#711919"/>
<path d="M294.256 204.456C294.524 203.473 294.703 202.4 294.346 201.461C293.898 200.21 292.646 199.316 291.348 199.047C290.051 198.779 288.664 199.047 287.412 199.494C286.159 199.941 284.951 200.522 283.654 200.925C283.072 201.104 282.446 201.282 281.909 201.551C281.328 201.819 280.836 202.221 280.567 202.802C280.209 203.517 280.388 204.411 280.657 205.171C281.462 207.227 283.385 208.747 285.533 209.283C287.188 209.686 288.888 209.462 290.498 208.881C291.617 208.479 292.467 208.166 293.138 207.138C293.675 206.244 294.032 205.35 294.256 204.456Z" fill="#B53434"/>
<path d="M281.194 209.909C284.236 212.367 287.994 213.261 291.438 212.01C294.167 210.981 296.18 208.791 297.209 205.975C296.583 205.573 295.912 205.215 295.196 204.947C292.78 204.053 289.917 204.008 287.144 205.037C285.041 205.796 283.341 207.093 282.089 208.612C281.731 209.015 281.462 209.462 281.194 209.909Z" fill="#F37C7C"/>
<path d="M278.867 201.282C279.493 201.595 280.12 201.863 280.836 202.042C283.072 202.668 285.667 202.579 288.217 201.595C290.901 200.567 293.048 198.779 294.301 196.723C294.569 196.231 294.838 195.74 295.017 195.248L278.867 201.282Z" fill="white"/>
</g>
<g filter="url(#filter1_d)">
<path d="M67.9552 184.137C68.5895 190.294 72.8933 195.409 78.1485 197.536C84.8534 200.252 90.471 197.31 95.4997 192.512C88.0699 199.619 92.4191 210.347 100.121 214.873C103.201 216.684 109.181 217.997 113.576 216.684C116.475 215.824 118.65 213.877 118.831 210.166C118.604 213.877 119.103 217.77 120.96 220.939C126.668 230.581 139.036 227.503 145.333 220.758C147.055 218.902 148.459 216.639 149.003 214.059C148.55 216.186 152.718 220.079 154.122 221.03C156.342 222.523 158.97 223.112 161.552 222.976C166.943 222.704 172.153 219.943 175.777 215.552C177.816 213.063 182.392 204.869 180.126 201.158C182.392 204.869 185.699 209.215 190.093 209.079C190.999 209.034 191.86 208.898 192.676 208.672C199.743 206.544 201.827 196.631 201.691 189.207C201.646 188.121 201.102 186.537 200.332 185.767C203.73 188.528 208.215 189.705 212.201 188.438C216.279 187.17 219.631 183.187 220.175 178.524C220.582 174.677 218.544 168.566 214.466 167.932C211.975 167.525 209.392 168.294 206.855 168.113C203.956 167.887 201.102 167.253 198.384 166.167C191.905 163.632 186.831 158.969 182.754 153.22C176.276 144.077 172.289 132.126 169.254 121.625C168.302 118.365 167.442 115.061 166.173 111.938C165.72 110.806 165.222 109.719 164.633 108.633C160.737 101.617 150.86 101.119 143.521 100.078C134.642 98.8103 125.581 98.7197 116.883 100.802C113.123 101.707 109.453 103.02 106.01 104.785C102.25 106.687 102.567 103.292 99.4411 106.234C99.3052 106.37 99.3052 106.822 99.2146 107.003C99.124 107.185 98.9881 107.32 98.8069 107.456C98.4444 107.773 98.082 107.999 97.8102 108.407C97.2212 109.222 96.9947 110.308 96.8135 111.304C96.1793 114.744 96.0433 118.23 96.0887 121.715C96.0887 125.201 96.0433 128.686 96.1793 132.172C96.3152 136.336 96.1793 140.501 95.7262 144.575C94.5936 154.397 91.6942 165.714 82.8148 169.788C75.7021 172.821 66.9133 173.998 67.9552 184.137Z" fill="#39518F"/>
<path d="M113.531 216.729C116.43 215.869 118.605 213.923 118.786 210.211C118.559 213.923 119.058 217.816 120.915 220.984C126.623 230.626 138.991 227.548 145.288 220.803C147.01 218.947 148.414 216.684 148.958 214.104C148.505 216.231 152.673 220.124 154.077 221.075C156.297 222.569 158.925 223.157 161.507 223.021C166.898 222.75 172.108 219.988 175.732 215.598C177.771 213.108 182.347 204.915 180.081 201.203C182.347 204.915 185.654 209.26 190.048 209.125C190.954 209.079 191.815 208.943 192.63 208.717C192.766 207.857 192.857 206.952 192.902 206.046C193.31 196.088 187.149 187.442 181.667 179.475C176.729 172.323 172.108 164.764 168.801 156.48C166.264 150.188 165.72 139.097 160.193 135.205C157.656 133.439 154.711 132.805 151.857 131.991C149.139 131.221 146.421 130.225 143.657 130.316C138.674 130.497 134.325 134.254 131.425 138.871C128.571 143.443 126.895 148.875 124.947 154.081C121.051 164.447 115.796 174.179 112.76 184.952C109.861 195.183 109.182 206.997 113.531 216.729Z" fill="black" fill-opacity="0.3"/>
<path d="M215.327 15.7012C215.146 15.9728 215.01 16.2444 215.056 16.5613C215.146 17.0592 215.645 17.195 216.098 17.195C219.269 17.195 222.123 14.6601 225.294 13.8906C226.925 12.8042 228.375 11.2651 229.462 9.45445C229.598 9.27338 229.689 9.04705 229.825 8.82072C230.187 8.18699 230.459 7.46273 230.232 6.78373C230.096 6.33107 229.734 6.05947 229.326 5.8784C228.33 5.51627 227.288 6.0142 226.336 6.51213C224.162 7.64379 221.987 8.95652 220.039 10.5408C218.227 11.9894 216.641 13.6642 215.327 15.7012Z" fill="#FFE193"/>
<path d="M215.327 15.7013C215.146 15.9729 215.01 16.2445 215.056 16.5614C215.146 17.0593 215.645 17.1951 216.098 17.1951C219.269 17.1951 222.123 14.6602 225.294 13.8907C226.925 12.8043 228.375 11.2652 229.462 9.45459C228.556 9.72619 227.65 9.90725 226.744 10.0431C224.524 10.4052 222.304 10.4504 220.084 10.4957C218.227 11.9895 216.641 13.6644 215.327 15.7013Z" fill="#FFCE6F"/>
<path d="M225.928 16.2447C225.294 16.9237 224.252 18.1911 224.841 19.2775C225.475 20.4092 226.608 19.6849 227.378 19.1417C229.825 17.5121 232.497 16.2447 235.216 15.4751C236.575 15.0677 237.889 14.7961 239.248 14.4793C242.419 13.6645 245.545 12.5781 248.535 11.1748C248.807 11.039 249.124 10.9032 249.35 10.5864C249.758 9.99791 249.622 9.04732 249.169 8.54939C249.124 8.50412 249.078 8.45885 249.033 8.41359C248.58 8.00619 247.991 7.82512 247.448 7.73459C247.04 7.64406 246.632 7.59879 246.224 7.59879C244.095 7.50826 241.921 8.05146 239.837 8.63992C234.853 10.1337 229.779 12.1707 225.928 16.2447Z" fill="#FFE193"/>
<path d="M229.779 15.2487C235.895 12.0347 242.464 10.4504 248.897 8.45869C248.943 8.45869 249.033 8.41343 249.079 8.41343C248.626 8.00603 248.037 7.82496 247.493 7.73443C247.085 7.6439 246.677 7.59863 246.27 7.59863C245.771 7.68917 245.273 7.82496 244.775 7.9155C243.914 8.09656 243.098 8.27763 242.238 8.50396C241.196 8.82083 240.199 9.22822 239.202 9.68089C235.805 11.1294 232.543 12.5327 229.779 15.2487Z" fill="#FFCE6F"/>
<path d="M225.612 14.8414C225.34 15.113 225.113 15.3846 225.023 15.7467C224.751 16.6973 225.702 17.7385 226.427 18.2364C227.831 16.8331 229.417 15.6109 231.048 14.6151C236.077 11.4917 241.83 9.81684 247.312 8.14199C247.991 7.96092 248.807 7.50826 248.716 6.69346C248.716 6.42186 248.58 6.19553 248.444 6.01447C247.901 5.2902 247.176 4.92807 246.361 4.79227C245.5 4.65647 244.548 4.74701 243.688 4.88281C242.827 5.01861 241.966 5.1544 241.105 5.47127C239.157 6.15027 237.481 7.50826 235.669 8.63992C235.578 8.68518 235.488 8.73045 235.397 8.82098C232.09 10.8127 228.42 12.0349 225.612 14.8414Z" fill="#FFE193"/>
<path d="M232.361 11.9899C234.083 10.8583 235.759 9.7266 237.481 8.54967C238.341 7.96121 239.202 7.37275 240.108 6.92008C241.331 6.28635 242.645 5.78842 243.959 5.47156C244.639 5.29049 245.318 5.15469 245.998 5.01889C246.134 4.97363 246.269 4.92836 246.36 4.88309C245.499 4.7473 244.548 4.83783 243.687 4.97363C242.826 5.10943 241.966 5.24523 241.105 5.56209C239.157 6.24109 237.481 7.59908 235.668 8.73074C235.578 8.776 235.487 8.82127 235.397 8.9118C234.445 9.9982 233.494 11.0846 232.361 11.9899Z" fill="#FFCE6F"/>
<path d="M176.321 156.752L204.138 164.311L207.807 136.563L210.707 114.654C210.752 113.613 210.797 112.617 210.842 111.576C210.978 108.86 211.114 106.144 211.205 103.428C211.386 99.5348 211.567 95.6872 211.749 91.7943C211.975 87.3129 212.156 82.7862 212.383 78.3049C212.609 73.6877 212.836 69.1158 213.017 64.5439C213.198 60.3794 213.425 56.2601 213.606 52.0956C213.923 45.6678 214.059 39.1947 214.874 32.8121C214.92 32.269 215.01 31.771 215.101 31.2278C215.146 31.0015 215.146 29.8698 215.282 29.734C219.948 26.3843 224.298 22.5819 228.511 18.508C228.556 18.4627 228.647 18.3722 228.692 18.3269C229.1 17.9195 229.508 17.3763 229.462 16.7426C229.462 16.5162 229.372 16.2899 229.417 16.0636C229.462 15.8373 229.643 15.7015 229.779 15.5204C229.961 15.3846 230.096 15.2035 230.278 15.0677C230.368 14.9772 230.459 14.8867 230.595 14.7961C231.274 14.1624 231.954 13.5739 232.588 12.9402C232.588 12.9402 232.588 12.9402 232.633 12.8949C233.721 11.8991 234.763 10.9032 235.85 9.95262C236.258 9.54522 236.711 9.13783 237.164 8.7757C237.753 8.2325 238.387 7.64404 238.976 7.10084C239.293 6.78397 239.61 6.51238 239.882 6.10498V6.05971C239.927 6.01445 239.927 5.96918 239.927 5.92391C240.607 4.38485 239.293 2.61947 237.934 3.07213C237.481 3.20793 237.118 3.52479 236.711 3.79639C234.31 5.60705 231.999 7.73457 229.462 9.31889C229.236 9.45469 229.009 9.59049 228.783 9.77156C227.877 10.3148 226.925 10.7674 225.929 11.0843C223.029 12.0801 220.084 12.5328 217.185 13.3023C215.962 13.6192 214.739 13.9813 213.561 14.4793C212.111 15.0677 210.752 15.8373 209.438 16.7878C207.671 18.1006 206.267 19.6396 205.089 21.405C204.092 22.8988 203.322 24.4831 202.688 26.158C201.374 29.553 200.649 33.2195 200.015 36.7503C198.248 46.7995 196.074 56.8033 194.216 66.8525C193.219 72.2392 192.359 77.6259 191.453 83.0126L189.505 94.646C188.961 97.86 188.417 101.119 187.874 104.333C187.511 106.551 187.104 108.769 186.741 110.987C186.605 111.802 186.469 112.662 186.333 113.477L181.078 136.155L176.321 156.752Z" fill="#FFE193"/>
<path d="M208.26 28.0139C207.128 27.7875 206.086 27.5612 204.999 27.1538C204.228 26.8822 203.458 26.5201 202.733 26.0674C203.368 24.3926 204.183 22.763 205.134 21.3145C204.953 22.084 204.908 22.8535 205.044 23.623C205.134 24.1662 205.361 24.6642 205.588 25.1168C206.267 26.2938 207.173 27.3349 208.26 28.0139Z" fill="#FFCE6F"/>
<path d="M176.321 156.752L204.138 164.311L207.807 136.563C207.354 136.653 206.856 136.699 206.403 136.744C204.409 137.015 202.371 137.106 200.332 137.151C193.899 137.287 187.466 136.925 181.123 136.02L176.321 156.752Z" fill="#FFCE6F"/>
<path d="M122.863 144.847L126.805 162.501L136.001 203.648L170.296 202.335L163.047 171.916L159.695 157.974L122.863 144.847Z" fill="#FFE193"/>
<path d="M122.863 144.847L126.805 162.546C130.112 164.221 133.51 165.669 136.953 166.891C141.709 168.566 146.602 169.924 151.586 170.649C155.21 171.192 159.106 171.69 163.047 171.961L159.695 158.019L122.863 144.847Z" fill="#FFCE6F"/>
<path d="M109.77 139.867C107.686 140.954 106.372 143.308 106.236 145.661C106.055 148.015 106.916 150.369 108.185 152.361C112.171 158.517 120.779 161.188 127.529 158.381C128.163 158.11 128.798 157.793 129.115 157.204C129.387 156.706 129.341 156.163 129.296 155.62C129.024 153.719 127.937 152.044 126.759 150.505C124.267 147.246 121.141 144.756 118.332 141.814C116.067 139.369 113.123 138.147 109.77 139.867Z" fill="#FFE193"/>
<path d="M104.56 130.633C105.919 134.118 107.596 137.513 109.589 140.773C115.705 150.822 124.72 159.513 135.367 164.085C142.751 167.253 151.268 168.159 158.97 165.805C165.131 163.949 168.936 159.603 170.884 154.307C173.421 147.427 172.425 139.053 170.884 132.036C169.435 125.246 167.305 118.366 164.27 112.028C163.319 110.037 162.322 108.136 161.189 106.325C154.303 95.0536 142.706 87.5394 129.16 88.9426C120.054 89.8932 111.537 95.0083 106.463 102.613C100.574 111.395 100.845 120.991 104.56 130.633Z" fill="#FFE193"/>
<path d="M104.56 130.633C105.919 134.118 106.599 136.925 108.592 140.229C110.676 139.958 113.711 140.003 115.388 138.781C117.517 137.196 118.785 134.571 119.012 131.9C119.239 129.23 118.468 126.559 117.155 124.25C116.747 123.526 116.248 122.802 115.569 122.349C119.193 122.756 123.271 121.127 124.766 117.822C125.445 116.329 125.581 114.609 125.626 112.934C125.672 111.078 125.672 109.222 125.581 107.321C131.199 110.399 137.496 112.3 143.929 112.843C149.048 113.296 154.213 112.843 159.377 112.436C161.008 112.3 162.639 112.164 164.27 111.983C163.319 109.991 162.322 108.09 161.189 106.28C154.303 95.0082 142.706 87.494 129.16 88.8972C120.054 89.8478 111.537 94.9629 106.463 102.568C100.574 111.395 100.845 120.991 104.56 130.633Z" fill="#FFCE6F"/>
<path d="M64.6934 482.624L72.8027 504.85L84.1285 502.179L91.5583 500.414L102.748 497.743L104.968 497.2L135.095 490.048L169.661 481.855C169.661 480.633 169.616 479.41 169.48 478.188C168.529 469.587 164.361 461.575 158.607 455.102C155.753 451.888 152.491 449.082 149.003 446.547L112.534 462.164L94.7295 469.769L92.3284 470.81L82.407 475.065L73.0745 479.048L64.6934 482.624Z" fill="#FFE193"/>
<path d="M64.6934 482.625L72.8027 504.85L102.794 497.744C101.208 494.575 99.7129 491.361 98.3538 488.102C95.998 482.489 94.0047 476.695 92.3737 470.81L64.6934 482.625Z" fill="#F2F2F2"/>
<path d="M93.9593 467.053C96.7681 476.921 99.6222 486.834 104.288 495.933C104.832 497.019 105.421 498.105 106.01 499.147C101.525 500.459 96.904 501.41 92.3737 502.768C92.7361 502.677 88.8853 494.937 88.5682 494.213C85.6688 488.192 84.0379 481.583 82.4523 475.11C82.4069 474.974 81.9992 473.481 82.0445 473.435L93.9593 467.053Z" fill="white"/>
<path d="M48.9733 483.756C48.475 486.065 48.8374 488.464 49.1998 490.772C51.5103 505.348 53.8208 519.969 56.8561 534.454C57.9887 539.886 58.623 545.59 60.9787 550.66C61.4771 551.701 62.0207 552.742 62.8815 553.512C65.0107 555.503 68.182 554.734 69.4958 552.244C70.0847 551.158 70.3112 549.936 70.5377 548.759C70.6737 548.08 70.8096 547.401 70.9455 546.722C71.172 545.726 71.4438 544.685 71.7156 543.689C71.8062 543.372 71.8968 543.055 71.9874 542.693C73.2106 537.895 74.5244 533.142 75.7476 528.389C76.9708 523.591 78.194 518.838 79.7796 514.13C80.278 512.681 80.7763 511.233 81.32 509.83C82.2713 507.385 83.4945 504.896 84.1741 502.361C78.8283 491.904 75.3852 489.958 72.9841 478.505C72.8935 478.098 66.8682 477.872 66.2792 477.826C63.6063 477.555 60.9334 477.283 58.3058 477.057C57.6263 477.011 56.9467 476.966 56.3125 477.011C54.5909 477.102 53.0506 477.645 51.6462 479.003C50.3324 480.271 49.3811 481.945 48.9733 483.756Z" fill="#6B9C89"/>
<path d="M48.9733 483.756C48.475 486.064 48.8374 488.463 49.1998 490.772C51.5103 505.348 53.8208 519.969 56.8561 534.454C57.9887 539.886 58.623 545.59 60.9787 550.66C61.4771 551.701 62.0207 552.742 62.8815 553.511C65.0107 555.503 68.182 554.734 69.4958 552.244C70.0847 551.158 70.3112 549.935 70.5377 548.758C70.6737 548.079 70.8096 547.4 70.9455 546.721C71.172 545.726 71.4438 544.684 71.7156 543.689C71.172 543.462 70.6283 543.191 70.1753 542.874C68.3179 541.606 67.0494 539.66 65.9621 537.713C63.4251 533.096 61.6583 528.072 60.3445 522.957C57.7622 512.636 57.1279 501.953 56.7202 491.361C56.539 486.562 56.4031 481.764 56.2672 476.966C54.5456 477.056 53.0053 477.6 51.6009 478.958C50.3324 480.27 49.3811 481.945 48.9733 483.756Z" fill="#60937E"/>
<path d="M112.58 462.164C118.741 468.048 124.358 474.522 129.387 481.402C131.426 484.209 133.374 487.106 135.186 490.048L169.752 481.855C169.752 480.633 169.707 479.41 169.571 478.188C168.62 469.587 164.452 461.575 158.698 455.102C155.844 451.888 152.582 449.082 149.094 446.547L112.58 462.164Z" fill="#FFCE6F"/>
<path d="M85.6691 89.1235C85.9409 92.7448 87.9795 96.1398 90.7883 98.4936C91.2867 98.9463 91.9209 99.399 92.6458 99.8516C97.9916 103.337 108.14 106.958 111.311 100.304C113.485 95.7776 110.858 90.0288 107.46 85.7738C106.01 84.0084 104.425 82.5146 102.975 81.5187C99.3054 78.9838 94.2767 77.6711 90.3806 79.7986C87.1188 81.6093 85.3972 85.4569 85.6691 89.1235Z" fill="#39518F"/>
<path d="M92.6001 99.8518C97.9459 103.337 108.094 106.959 111.265 100.304C113.44 95.7778 110.812 90.029 107.414 85.7739C106.327 88.8973 104.877 91.8849 102.522 94.1935C99.9393 96.7284 96.5415 98.1317 93.2343 99.5349C93.0078 99.6707 92.8266 99.7612 92.6001 99.8518Z" fill="black" fill-opacity="0.3"/>
<path d="M41.634 31.3181C41.8605 31.5444 42.0871 31.7708 42.0871 32.0876C42.1324 32.5856 41.634 32.8572 41.2263 32.9477C38.1004 33.6267 34.7932 31.7708 31.5314 31.6802C29.7192 30.956 27.9524 29.779 26.5027 28.2852C26.3215 28.1042 26.1856 27.9231 26.0043 27.742C25.5513 27.1989 25.053 26.5199 25.1436 25.8409C25.1889 25.3882 25.4607 25.0261 25.8231 24.7997C26.6839 24.2113 27.8618 24.4829 28.9038 24.7545C31.2595 25.3882 33.6606 26.203 35.9258 27.3347C38.0097 28.2852 39.9578 29.598 41.634 31.3181Z" fill="#FFE193"/>
<path d="M41.6338 31.3183C41.8603 31.5446 42.0868 31.7709 42.0868 32.0878C42.1321 32.5857 41.6338 32.8573 41.226 32.9479C38.1001 33.6268 34.793 31.7709 31.5311 31.6804C29.719 30.9561 27.9522 29.7792 26.5024 28.2854C27.4538 28.3307 28.3599 28.3307 29.3113 28.2854C31.5311 28.1496 33.751 27.7422 35.9256 27.2896C38.0095 28.2854 39.9576 29.5981 41.6338 31.3183Z" fill="#FFCE6F"/>
<path d="M31.4407 34.1249C32.2109 34.6681 33.4793 35.6639 33.1169 36.8409C32.7092 38.1083 31.4407 37.6104 30.6252 37.2483C27.8617 36.1619 25.0076 35.5281 22.1535 35.3471C20.7491 35.2565 19.39 35.2565 17.9856 35.2113C14.7237 35.1207 11.4619 34.7133 8.20005 33.9891C7.88292 33.8985 7.5658 33.8533 7.29398 33.627C6.75034 33.1743 6.70503 32.1784 7.02216 31.59C7.06746 31.5447 7.06746 31.4542 7.11276 31.4089C7.47519 30.911 7.97353 30.5941 8.51717 30.413C8.9249 30.2772 9.28733 30.1414 9.69506 30.0056C11.779 29.4624 13.9989 29.5077 16.1734 29.6435C21.3833 30.0509 26.7744 30.911 31.4407 34.1249Z" fill="#FFE193"/>
<path d="M27.454 33.9436C20.7944 32.0877 14.0442 31.9972 7.33931 31.454C7.2487 31.454 7.2034 31.454 7.11279 31.454C7.47522 30.9561 7.97356 30.6392 8.5172 30.4581C8.92493 30.3223 9.28736 30.1865 9.69509 30.0507C10.1934 30.0507 10.7371 30.0507 11.2354 30.0055C12.0962 30.0055 12.9569 29.9602 13.8177 30.0507C14.905 30.1413 15.947 30.3223 17.0342 30.5487C20.6585 31.2277 24.1469 31.8614 27.454 33.9436Z" fill="#FFCE6F"/>
<path d="M31.4407 32.6764C31.7578 32.8575 32.0296 33.0838 32.2108 33.446C32.6639 34.306 31.939 35.5282 31.3954 36.2072C29.7191 35.1661 27.9523 34.306 26.1402 33.6723C20.5226 31.6806 14.5878 31.3185 8.87958 30.8658C8.15472 30.7753 7.24865 30.5037 7.15805 29.7341C7.11274 29.4625 7.20335 29.2362 7.29396 29.0099C7.65638 28.1951 8.29063 27.6971 9.06079 27.3803C9.87625 27.0634 10.8276 26.9276 11.6884 26.8823C12.5492 26.8371 13.4552 26.7918 14.3613 26.8823C16.3999 27.1087 18.348 28.1045 20.3413 28.7835C20.4319 28.8288 20.5226 28.8741 20.6585 28.8741C24.2374 30.1415 28.0882 30.5037 31.4407 32.6764Z" fill="#FFE193"/>
<path d="M24.1922 31.3183C22.2894 30.5488 20.3867 29.8245 18.4839 29.055C17.5326 28.6929 16.5359 28.2855 15.5392 28.0139C14.1801 27.6517 12.821 27.4707 11.4619 27.4254C10.7824 27.3801 10.0575 27.3801 9.37795 27.3801C9.24204 27.3801 9.10613 27.3349 8.97021 27.3349C9.78568 27.018 10.737 26.8822 11.5978 26.8369C12.4586 26.7917 13.3646 26.7464 14.2707 26.8369C16.3094 27.0633 18.2574 28.0591 20.2508 28.7381C20.3414 28.7834 20.432 28.8287 20.5679 28.8287C21.7458 29.8245 22.9237 30.6846 24.1922 31.3183Z" fill="#FFCE6F"/>
<path d="M15.3581 26.9726C15.4034 27.0179 15.4034 27.0179 15.4487 27.0632L15.494 27.1084C15.8111 27.4706 16.2188 27.6969 16.5813 27.9232C17.3061 28.3306 18.031 28.738 18.7105 29.1907C19.2089 29.5076 19.7525 29.7792 20.2508 30.096C21.5193 30.8203 22.7425 31.5445 24.011 32.2688C24.011 32.2688 24.011 32.2688 24.0563 32.2688C24.8265 32.7215 25.6419 33.2194 26.4121 33.6721C26.548 33.7626 26.6386 33.8079 26.7292 33.8531C26.9104 33.9889 27.1369 34.0795 27.3182 34.2153C27.4994 34.3058 27.6806 34.4416 27.7712 34.6679C27.8618 34.849 27.8618 35.1206 27.8618 35.3469C27.9524 35.9807 28.4507 36.3881 28.9491 36.7502C28.9944 36.7955 29.085 36.8407 29.1756 36.886C34.2043 39.9641 39.233 42.7706 44.5335 45.0339C44.7147 45.1245 44.9412 46.2109 45.0318 46.4372C45.213 46.9351 45.3942 47.4331 45.5754 47.931C47.75 53.9967 49.2903 60.2434 50.9665 66.4902C52.0538 70.5189 53.1411 74.5024 54.2284 78.5311C55.4063 82.9672 56.6295 87.4033 57.8074 91.8394C58.9852 96.185 60.1631 100.531 61.341 104.876C62.3377 108.633 63.3797 112.345 64.3764 116.102C65.1012 118.728 65.7808 121.353 66.5056 123.979C66.7774 124.974 67.0493 125.97 67.3211 126.966L73.8448 144.937L84.4005 174.088L109.952 160.735L102.069 144.167L90.8335 120.538C90.5164 119.769 90.1993 118.954 89.8822 118.184C89.0214 116.102 88.2059 114.02 87.3452 111.938C86.122 108.905 84.8988 105.872 83.6756 102.839L79.2359 91.8846C77.1972 86.8148 75.1586 81.745 73.0746 76.7204C69.1332 67.305 64.8294 58.0254 60.9333 48.5647C59.5742 45.3055 58.0792 41.8653 56.0405 38.8324C55.0438 37.3386 53.9566 35.9354 52.6428 34.6679C51.1478 33.2194 49.4262 31.9972 47.4329 31.0919C45.9832 30.4582 44.4428 30.0055 42.9025 29.7339C41.634 29.5076 40.3655 29.417 39.097 29.3718C36.0617 29.236 33.0717 29.417 30.0364 29.1002C28.9944 28.9644 27.9524 28.738 26.9557 28.4212C26.6839 28.3306 26.4121 28.2401 26.1856 28.1496C23.3768 27.1537 20.6586 25.5694 17.9404 24.3019C17.4873 24.1209 17.0796 23.8945 16.6266 23.8493C15.2675 23.6229 14.3614 25.6147 15.3581 26.9726Z" fill="#FFE193"/>
<path d="M51.1929 41.7748C52.2348 41.3222 53.2315 40.8695 54.1829 40.2358C54.8624 39.7831 55.542 39.2852 56.1762 38.6967C55.1796 37.2029 54.0923 35.7997 52.7785 34.5322C53.1409 35.2112 53.3674 35.9808 53.3674 36.7503C53.3674 37.2935 53.2768 37.8367 53.1409 38.3346C52.7785 39.6926 52.0989 40.8695 51.1929 41.7748Z" fill="#FFCE6F"/>
<path d="M73.9805 144.892L84.5362 174.043L110.087 160.69L102.204 144.122C102.114 144.167 102.069 144.167 101.978 144.213C98.5802 145.571 95.0466 146.431 91.4223 146.748C89.4289 146.929 87.4356 146.974 85.4422 146.838C81.5914 146.521 77.786 145.706 73.9805 144.892Z" fill="#FFCE6F"/>
<path d="M87.9339 319.711C93.4156 319.167 98.9427 318.805 104.47 318.353C119.148 317.13 133.826 315.953 148.505 314.731C150.362 314.595 173.059 314.098 173.467 312.694C174.554 308.847 175.415 304.908 176.185 300.97C178.224 290.559 179.673 279.921 182.618 269.646C184.113 264.35 185.744 259.099 187.375 253.848C188.236 251.087 189.096 248.371 189.957 245.61C189.957 245.564 190.003 245.519 190.003 245.474C190.818 242.894 191.588 240.313 192.404 237.733C193.128 235.334 193.853 232.935 194.533 230.491C194.669 230.083 194.759 229.676 194.895 229.268C195.031 228.725 195.212 228.227 195.348 227.684C195.892 225.783 196.39 223.882 196.889 221.98C196.934 221.845 196.979 221.709 196.979 221.573C197.16 220.849 197.342 220.125 197.523 219.446C198.067 217.318 198.565 215.19 199.063 213.063C199.244 212.293 199.426 211.524 199.562 210.754C199.743 209.894 199.924 209.08 200.105 208.219C200.286 207.224 200.513 206.228 200.694 205.232C201.057 203.467 201.328 201.701 201.645 199.89C201.781 198.985 201.917 198.08 202.053 197.174C202.28 195.5 202.506 193.825 202.687 192.15C202.823 191.154 202.914 190.113 203.005 189.117C203.186 187.352 203.322 185.632 203.503 183.866C203.729 181.195 203.956 178.57 204.228 175.899C204.409 173.681 204.636 171.463 204.817 169.245C204.862 168.657 204.907 168.068 204.953 167.48C205.089 165.76 205.179 163.994 205.315 162.274C205.496 159.513 205.723 156.706 206.085 153.99C206.266 152.497 206.538 150.957 206.855 149.464C204.182 148.875 178.314 144.937 178.45 144.032C178.178 145.435 177.453 148.332 176.91 150.641C176.321 153.266 175.687 156.027 174.962 158.743C174.554 160.282 174.101 161.867 173.648 163.406C172.833 166.122 171.881 168.747 170.749 171.237C170.522 171.78 170.25 172.278 170.024 172.776C169.707 173.41 169.389 173.998 169.072 174.587C168.619 175.401 168.121 176.216 167.623 176.94C167.577 176.805 167.532 176.714 167.487 176.578C167.215 175.99 166.943 175.401 166.671 174.813C166.445 174.36 166.218 173.862 165.992 173.364C165.675 172.64 165.448 171.554 164.678 171.146C164.044 170.784 163.228 171.237 162.639 171.463C152.673 175.311 139.58 177.8 129.522 173.229C128.798 172.866 128.027 172.776 127.348 172.821C125.808 172.957 124.494 174.043 123.86 175.537C123.769 175.763 123.678 175.99 123.633 176.216C123.497 176.624 123.407 177.031 123.316 177.438L123.225 177.348C122.546 176.714 121.911 176.035 121.277 175.356C121.005 175.084 120.779 174.768 120.507 174.496C120.19 174.134 119.918 173.772 119.601 173.41C119.012 172.64 118.423 171.871 117.879 171.056C117.336 170.241 116.792 169.381 116.249 168.521C115.297 166.982 114.436 165.397 113.621 163.768C113.349 163.27 112.352 161.323 111.084 158.879C109.906 156.525 108.502 153.764 107.324 151.41C105.874 148.468 104.787 146.159 104.877 146.069C96.3151 153.221 85.9859 157.883 75.0225 160.011C75.702 161.867 76.3363 163.723 76.8799 165.579C77.6501 168.249 78.3296 170.965 78.9639 173.681C79.6434 176.578 80.323 179.521 81.0931 182.418C81.7727 185.088 82.5428 187.759 83.4942 190.339C83.6754 190.837 83.8566 191.335 84.0378 191.833C84.0831 191.969 84.1737 192.15 84.219 192.286C84.808 193.779 85.3969 195.273 86.0312 196.767C86.0312 196.812 86.0765 196.858 86.0765 196.858C86.6201 198.17 87.1638 199.438 87.7074 200.751C88.2511 201.973 88.7947 203.195 89.3383 204.417C89.3383 204.462 89.3836 204.508 89.3836 204.508C89.6102 205.006 89.8367 205.503 90.0632 206.001C90.4256 206.816 90.788 207.676 91.1958 208.491C92.0112 210.302 92.8267 212.158 93.6422 213.968C93.6875 214.104 93.7781 214.24 93.8234 214.376C93.914 214.557 93.9593 214.693 94.0499 214.874C94.2311 215.326 94.4576 215.779 94.6388 216.232C95.409 218.042 96.1791 219.853 96.904 221.618C96.9493 221.709 96.9493 221.799 96.9946 221.845C97.2211 222.388 97.4023 222.976 97.6289 223.52C98.5802 226.145 99.3051 228.635 99.8487 231.079C100.075 232.075 100.256 233.071 100.392 234.021C100.528 234.836 100.619 235.651 100.709 236.511C100.981 239.317 101.072 242.124 100.891 245.112C100.845 246.243 100.755 247.42 100.619 248.642C100.574 249.095 100.528 249.502 100.483 249.955C98.6255 265.346 96.7228 280.827 93.7328 296.036C93.5969 296.625 93.5063 297.213 93.3703 297.847C92.9626 300.156 92.5549 302.555 92.1471 304.999C91.1505 310.295 90.0179 315.456 87.9339 319.711Z" fill="#BADDD4"/>
<path d="M84.1738 192.376C84.7628 193.87 85.3517 195.364 85.986 196.858C85.986 196.903 86.0313 196.948 86.0313 196.948C86.5749 198.261 87.1185 199.528 87.6622 200.841C125.309 199.03 163.092 202.652 200.785 205.322C201.147 203.557 201.419 201.792 201.736 199.981C201.872 199.076 202.008 198.17 202.144 197.265C162.956 193.146 123.542 191.471 84.1738 192.376Z" fill="white"/>
<path d="M90.0181 206.137C90.3805 206.952 90.7429 207.812 91.1507 208.627C91.9661 210.438 92.7816 212.293 93.597 214.104C93.6423 214.24 93.7329 214.376 93.7783 214.511C94.9561 214.557 96.134 214.602 97.3119 214.647C130.655 216.322 164.225 223.022 197.614 219.446C198.157 217.318 198.656 215.19 199.154 213.063C199.335 212.293 199.516 211.524 199.652 210.754C191.77 211.75 183.841 212.158 175.913 212.112C147.146 212.112 118.65 206.861 90.0181 206.137Z" fill="white"/>
<path d="M96.8136 221.799C100.574 231.26 101.57 239.091 100.574 248.869C103.065 240.087 104.017 230.807 104.968 221.709C104.878 221.709 95.9075 216.594 95.0921 215.96C94.7296 215.643 94.3219 215.326 93.9595 215.009C94.9561 217.273 95.9075 219.536 96.8136 221.799Z" fill="#ACD1C6"/>
<path d="M96.9043 222.026C97.1308 222.569 97.312 223.158 97.5385 223.701C98.4899 226.326 99.2148 228.816 99.7584 231.26C100.529 231.441 101.253 231.577 102.024 231.758C116.294 234.7 130.791 236.058 145.334 237.009C160.963 238.005 176.729 238.458 192.404 237.733C193.129 235.334 193.854 232.935 194.533 230.491C194.669 230.083 194.76 229.676 194.896 229.268C191.498 229.45 188.055 229.585 184.657 229.676C170.296 230.038 155.889 229.45 141.573 228.408C127.439 227.413 113.259 225.828 99.4413 222.614C98.5805 222.433 97.7651 222.252 96.9043 222.026Z" fill="white"/>
<path d="M100.846 245.293C118.106 249.412 135.775 251.766 153.488 252.852C164.769 253.577 176.095 253.848 187.421 253.758C188.281 250.951 189.187 248.19 190.048 245.383C161.824 245.746 133.419 244.071 105.784 237.869C104.062 237.507 102.386 237.1 100.665 236.647C100.936 239.499 100.982 242.351 100.846 245.293Z" fill="white"/>
<path d="M170.749 171.282C181.531 174.813 192.947 176.397 204.273 175.989C204.454 173.771 204.681 171.553 204.862 169.335C204.907 168.747 204.953 168.158 204.998 167.57C194.397 168.113 183.751 166.71 173.648 163.451C172.787 166.167 171.836 168.792 170.749 171.282Z" fill="white"/>
<path d="M174.962 158.788C184.793 161.459 195.077 162.274 205.361 162.364C205.542 159.603 205.768 156.797 206.131 154.081C196.255 154.035 186.378 153.311 176.955 150.731C176.321 153.311 175.687 156.072 174.962 158.788Z" fill="white"/>
<path d="M76.8345 165.623C77.6046 168.294 78.2842 171.01 78.9184 173.726C83.7206 172.64 88.3868 171.191 92.9172 169.064C99.1691 166.167 105.194 162.681 110.993 158.924C109.815 156.57 108.411 153.809 107.233 151.455C101.706 155.076 95.9525 158.426 90.0178 161.233C85.7139 163.224 81.3195 164.628 76.8345 165.623Z" fill="white"/>
<path d="M81.0479 182.463C81.7274 185.133 82.4976 187.804 83.4489 190.384C89.6555 188.393 95.6356 185.903 101.344 182.553C107.097 179.158 112.534 175.175 117.834 171.101C116.249 168.792 114.844 166.303 113.576 163.813C108.275 167.932 102.884 171.87 97.1759 175.311C92.1019 178.434 86.6655 180.652 81.0479 182.463Z" fill="white"/>
<path d="M118.559 191.38C119.601 188.257 120.598 185.088 121.64 181.965C122.138 180.471 122.636 178.932 123.135 177.438C121.866 176.216 120.643 174.858 119.556 173.455C119.918 177.393 120.145 181.331 119.692 185.269C119.42 187.351 119.012 189.343 118.559 191.38Z" fill="#ACD1C6"/>
<path d="M167.895 178.072C168.212 178.797 168.619 179.521 168.937 180.109C170.522 182.961 172.334 185.677 174.192 188.393C175.596 188.71 177.001 189.072 178.405 189.344C186.424 191.018 194.533 192.014 202.733 192.241C202.869 191.245 202.959 190.204 203.05 189.208C203.231 187.442 203.367 185.722 203.548 183.957C193.31 183.731 183.116 182.282 173.24 179.611C171.473 179.159 169.661 178.615 167.895 178.072Z" fill="white"/>
<path d="M118.876 180.335C119.238 178.253 121.549 176.397 123.769 176.986C131.199 178.977 138.674 179.113 146.33 178.932C153.76 178.751 161.144 178.072 167.985 174.994C170.024 174.043 172.606 175.447 173.376 177.438C174.191 179.702 172.968 181.874 170.93 182.825C163.455 186.22 155.209 187.08 147.1 187.261C138.764 187.487 130.428 187.397 122.319 185.224C120.054 184.59 118.468 182.644 118.876 180.335Z" fill="white"/>
<path d="M167.441 176.669C167.532 177.121 167.713 177.619 167.894 178.072C168.212 178.796 168.619 179.52 168.936 180.109C170.522 182.961 172.334 185.677 174.192 188.393C176.049 191.063 177.952 193.734 179.719 196.45C181.757 199.573 183.569 202.742 184.929 206.137C185.472 207.45 185.925 208.853 186.288 210.256C185.971 208.898 185.653 207.586 185.336 206.228C184.566 203.104 183.705 200.026 182.437 197.084C182.256 196.586 182.029 196.088 181.803 195.635C180.851 193.598 179.673 191.652 178.586 189.705C178.541 189.615 178.45 189.479 178.405 189.388C176.593 186.175 174.826 182.961 173.195 179.656C172.062 177.438 170.975 175.175 169.933 172.866C169.208 174.36 168.393 175.763 167.532 177.031C167.532 176.895 167.487 176.804 167.441 176.669Z" fill="#ACD1C6"/>
<g opacity="0.5">
<path opacity="0.5" d="M92.0566 305.225C102.929 307.353 114.165 308.213 125.219 309.028C133.011 309.616 140.848 310.205 148.595 309.163C156.387 308.122 163.863 305.406 171.247 302.736C172.878 302.147 174.554 301.559 176.185 300.925C178.224 290.514 179.673 279.876 182.618 269.601C184.113 264.304 185.744 259.054 187.375 253.803C188.236 251.041 189.097 248.325 189.957 245.564C188.009 243.844 186.242 242.033 184.793 239.906C182.392 236.285 181.214 231.939 180.217 227.729C175.959 210.256 170.93 192.557 169.027 174.677C168.574 175.492 168.076 176.307 167.577 177.031C167.532 176.895 167.487 176.805 167.442 176.669C167.17 176.08 166.898 175.492 166.626 174.903C166.49 175.175 166.354 175.492 166.264 175.809C165.856 177.121 165.901 178.57 165.946 179.973C166.264 189.117 167.668 198.306 166.49 207.359C166.4 208.084 166.264 208.853 165.811 209.442C165.448 209.849 164.95 210.121 164.497 210.347C155.3 214.919 144.563 214.511 134.279 214.059C130.519 213.878 126.668 213.697 123.089 212.565C119.873 200.343 122.591 186.718 120.507 174.586C120.19 174.224 119.918 173.862 119.601 173.5C119.012 172.731 118.423 171.961 117.88 171.146C117.336 170.331 116.792 169.471 116.249 168.611C116.294 180.924 115.932 193.236 113.123 205.187C110.676 215.553 106.282 225.421 100.347 234.248C100.483 235.062 100.574 235.877 100.664 236.737C100.936 239.544 101.027 242.35 100.846 245.338C100.8 246.47 100.71 247.646 100.574 248.869C100.528 249.321 100.483 249.729 100.438 250.181C98.5803 265.572 96.6776 281.053 93.6876 296.263C93.5517 296.851 93.461 297.439 93.3251 298.073C92.8721 300.337 92.5097 302.781 92.0566 305.225Z" fill="#99C1B3"/>
</g>
<path d="M120.326 450.123C122.183 448.946 124.041 447.995 126.17 447.135C134.053 443.921 141.845 440.391 149.864 437.494C156.252 435.185 160.374 437.041 163.274 442.744C169.163 454.287 174.418 466.147 178.903 478.233C181.168 484.299 183.207 490.365 185.11 496.521C186.469 501.002 188.961 506.887 183.57 509.965C171.383 516.891 146.058 521.961 142.615 515.216C140.214 510.508 135.774 501.636 134.098 496.657C130.565 486.336 125.355 475.698 121.006 465.695C119.918 463.16 118.695 460.67 117.653 458.135C116.883 456.189 116.022 454.152 117.608 452.296C118.061 451.752 118.65 451.345 119.239 450.892C119.556 450.621 119.918 450.349 120.326 450.123Z" fill="#F78D0F"/>
<path d="M122.953 459.584C128.48 465.695 133.962 472.258 134.37 480.949C134.415 481.674 134.415 482.353 134.37 483.077C134.189 490.003 131.516 496.793 128.933 503.356C128.345 504.805 127.801 506.253 127.212 507.702C124.63 514.265 122.047 520.829 119.42 527.393C118.061 530.788 116.294 534.364 114.844 537.985C112.624 543.462 110.087 551.158 113.847 556.544C115.569 558.989 118.468 560.437 121.277 561.795C130.066 566.05 138.9 570.26 147.689 574.515C157.022 578.996 160.374 577.593 167.985 570.848C170.069 568.992 172.017 567.001 173.784 564.873C177.861 560.075 181.259 554.779 184.521 549.483C187.647 544.413 190.909 539.434 194.17 534.364C202.053 522.142 209.845 509.784 215.146 496.476C215.191 496.385 215.236 496.295 215.372 496.295C215.418 496.295 215.463 496.249 215.463 496.249C215.871 496.114 216.233 495.978 216.596 495.842C223.527 493.443 231.274 490.772 238.658 487.332C250.618 481.764 261.582 474.295 266.429 463.114C271.322 451.798 270.914 439.531 268.151 427.897C265.161 415.268 261.718 402.638 255.466 391.05C245.635 372.853 231.863 357.1 217.456 341.981C207.535 331.525 197.251 321.431 186.559 311.698C186.514 311.653 186.469 311.608 186.469 311.517C186.423 311.246 186.378 311.019 186.333 310.748C186.333 310.657 186.288 310.612 186.288 310.521C186.288 310.476 186.242 310.386 186.242 310.34C186.197 310.023 186.106 309.707 186.061 309.39C186.061 309.344 186.061 309.299 186.016 309.254C185.88 308.394 185.744 307.534 185.608 306.674C185.517 305.995 185.427 305.316 185.336 304.637C185.291 304.32 185.246 303.958 185.246 303.641C185.2 303.324 185.2 303.007 185.155 302.69V302.554C185.11 302.238 185.11 301.875 185.064 301.559C185.064 301.332 185.019 301.151 185.019 300.925C185.019 300.608 184.974 300.336 184.974 300.02C184.974 299.793 184.928 299.567 184.928 299.341C184.928 299.295 184.928 299.205 184.928 299.159C184.928 298.888 184.928 298.616 184.883 298.345C184.883 298.209 184.883 298.073 184.883 297.892C184.883 297.847 184.883 297.801 184.883 297.756C184.883 297.394 184.883 296.987 184.838 296.625C184.793 292.686 185.064 288.748 185.699 284.765C187.33 274.444 188.87 261.679 189.142 252.263C189.187 251.449 188.87 250.679 188.372 249.955C186.695 247.556 182.754 245.474 181.168 242.531C175.777 232.527 175.46 221.211 175.641 210.12C175.687 207.993 175.732 205.911 175.777 203.828C175.913 197.129 176.004 190.339 175.007 183.73C174.509 180.562 173.784 177.438 172.697 174.405C172.425 173.59 171.609 170.784 170.975 170.15C170.884 170.06 170.794 170.014 170.748 170.014C169.797 169.924 167.17 171.327 165.856 171.961C165.584 172.097 165.403 172.414 165.493 172.685C165.539 172.911 165.629 173.138 165.675 173.364C165.856 173.998 166.037 174.632 166.173 175.265C169.525 188.166 171.111 201.203 170.114 214.557C170.114 214.738 169.933 214.873 169.752 214.873C154.032 214.738 138.266 214.647 122.546 214.511C122.364 214.511 122.183 214.375 122.183 214.194C122.229 213.063 122.274 211.886 122.364 210.754C122.727 203.014 123.135 195.273 123.497 187.533C123.633 184.228 123.814 180.969 123.995 177.664C124.041 176.623 124.358 175.401 124.358 174.36C124.358 174.179 124.358 173.998 124.358 173.817C124.313 173.409 124.675 172.776 123.859 172.685C122.5 172.549 122.093 172.549 120.462 172.187C119.193 171.916 118.332 171.78 118.332 171.961V172.006C118.423 174.903 117.925 178.66 118.015 181.603C118.106 184.635 118.151 187.668 118.151 190.701C118.061 210.709 114.935 230.807 100.936 245.428C100.845 245.564 100.709 245.655 100.619 245.745C98.852 247.511 97.5835 247.918 96.4509 248.325C90.6521 261.453 91.83 277.341 91.4222 291.328C91.4222 291.736 91.4222 292.143 91.3769 292.505C91.3769 292.732 91.3769 292.958 91.3769 293.139C91.3769 293.592 91.3769 293.999 91.3316 294.406C91.3316 294.542 91.3316 294.723 91.3316 294.859C91.3316 294.995 91.3316 295.131 91.3316 295.267C91.3316 295.448 91.3316 295.583 91.2863 295.764C91.2863 295.991 91.241 296.217 91.241 296.443C91.0598 299.25 90.5162 302.011 88.9759 304.41C88.8399 304.637 88.704 304.863 88.5228 305.044C88.2057 305.497 87.8433 305.904 87.5261 306.357C87.4808 306.402 87.4355 306.447 87.4355 306.493L86.756 307.307C86.6654 307.398 86.5748 307.534 86.4842 307.67C86.2123 308.077 85.9405 308.484 85.714 308.937C85.4875 309.344 85.3063 309.707 85.1251 310.114C83.6754 313.056 82.6334 316.18 81.5914 319.303C81.3649 319.937 81.1837 320.57 81.0025 321.204C79.734 325.323 78.692 329.488 78.0124 333.743C77.2876 337.998 76.9251 342.344 76.8798 346.689C76.8345 350.175 77.0158 353.66 77.4235 357.1C80.4135 384.849 89.8366 412.144 104.787 435.683C110.268 444.238 116.294 452.205 122.953 459.584Z" fill="#39518F"/>
<path d="M87.6622 306.674C87.7075 306.629 87.7528 306.583 87.7528 306.538C88.1152 306.085 88.4776 305.678 88.7495 305.225C88.8854 304.999 89.0666 304.773 89.2025 304.592C89.2931 304.456 89.3837 304.275 89.4743 304.139C90.8334 301.785 91.2864 299.431 91.4677 296.625C91.4677 296.398 91.513 296.172 91.513 295.946C91.513 295.765 91.513 295.629 91.5583 295.448C91.5583 295.312 91.5583 295.176 91.5583 295.04C91.5583 294.905 91.5583 294.723 91.5583 294.588C91.5583 294.18 91.5583 293.773 91.6036 293.32C91.6036 293.094 91.6036 292.868 91.6036 292.687C92.4643 292.822 93.3704 293.003 94.2312 293.139C103.201 294.678 112.217 295.9 121.277 296.76C139.761 298.526 158.381 298.707 176.865 297.394C177.952 297.304 178.994 297.213 180.081 297.168C181.757 297.032 183.388 296.896 185.019 296.715C185.019 297.077 185.019 297.485 185.065 297.847C185.065 297.892 185.065 297.937 185.065 297.983C185.065 298.118 185.065 298.254 185.065 298.435C185.065 298.707 185.065 298.979 185.11 299.25C185.11 299.295 185.11 299.386 185.11 299.431C185.11 299.658 185.11 299.884 185.155 300.11C185.155 300.427 185.2 300.699 185.2 301.016C185.2 301.242 185.246 301.423 185.246 301.649C185.291 301.966 185.291 302.328 185.336 302.645V302.781C185.382 303.098 185.382 303.415 185.427 303.732C185.472 304.048 185.472 304.411 185.518 304.727C185.608 305.406 185.699 306.085 185.789 306.764C185.925 307.624 186.016 308.484 186.197 309.345C186.197 309.39 186.197 309.435 186.242 309.48C186.288 309.797 186.333 310.114 186.424 310.431C186.424 310.476 186.424 310.567 186.469 310.612C186.469 310.703 186.514 310.748 186.514 310.838C185.563 310.974 184.566 311.11 183.615 311.246C180.308 311.653 177.001 311.97 173.693 312.287C157.203 313.735 140.486 313.962 124.041 313.283C113.123 312.83 102.069 311.879 91.2411 310.159C89.5196 309.888 87.7528 309.571 86.0312 309.254C86.2578 308.801 86.5296 308.394 86.8014 307.987L87.6622 306.674Z" fill="white"/>
<path d="M207.082 409.564C217.592 428.44 224.207 449.806 221.851 471.081C220.9 479.637 218.544 488.056 215.554 496.249C215.962 496.114 216.324 495.978 216.686 495.842C223.618 493.443 231.365 490.772 238.749 487.332C240.289 467.732 236.529 447.86 227.876 430.07C225.249 424.638 222.168 419.432 218.861 414.317C205.043 392.816 188.191 373.849 167.94 357.417C182.211 374.03 196.526 390.734 207.082 409.564Z" fill="#6080D1"/>
<path d="M91.5586 294.588C92.3288 294.769 93.0989 294.904 93.8691 295.04C104.334 297.077 114.935 298.481 125.672 299.205C142.57 300.382 159.786 299.974 176.502 299.476C177.409 299.431 178.36 299.431 179.266 299.386C181.214 299.341 183.162 299.25 185.155 299.16C185.155 298.888 185.155 298.616 185.11 298.345C185.11 298.209 185.11 298.073 185.11 297.892C183.162 297.983 181.169 298.028 179.266 298.118C178.451 298.164 177.635 298.164 176.774 298.209C160.012 298.707 142.751 299.16 125.808 297.937C115.162 297.168 104.606 295.81 94.1862 293.773C93.3254 293.592 92.51 293.456 91.6492 293.275C91.5586 293.773 91.5586 294.18 91.5586 294.588Z" fill="#6080D1"/>
<path d="M86.6655 307.851C88.2511 308.122 89.7915 308.394 91.3771 308.62C100.71 310.114 110.178 311.201 119.692 311.925C137.722 313.283 155.799 313.237 173.648 311.789C174.328 311.744 175.007 311.653 175.687 311.608C179.266 311.291 182.799 310.929 186.378 310.521C186.378 310.476 186.333 310.386 186.333 310.34C186.288 310.024 186.197 309.707 186.152 309.39C186.152 309.345 186.152 309.299 186.106 309.254C182.074 309.707 178.042 310.114 173.965 310.476C146.557 312.694 118.695 311.653 91.6036 307.353C90.2445 307.126 88.9307 306.945 87.5716 306.674L86.6655 307.851Z" fill="#6080D1"/>
<path d="M159.74 419.614C160.012 419.432 160.42 419.478 160.601 419.749C161.643 421.198 162.549 422.556 163.41 423.823C163.591 424.095 163.546 424.502 163.229 424.683C163.138 424.729 163.047 424.774 162.911 424.774C162.685 424.774 162.458 424.683 162.322 424.502C161.462 423.235 160.556 421.922 159.514 420.428C159.378 420.202 159.423 419.795 159.74 419.614Z" fill="#6080D1"/>
<path d="M165.267 427.807C165.539 427.626 165.947 427.716 166.128 427.988C167.034 429.436 167.895 430.885 168.665 432.243C168.846 432.56 168.71 432.922 168.438 433.103C168.348 433.148 168.257 433.193 168.167 433.193C167.94 433.193 167.713 433.103 167.578 432.876C166.807 431.518 165.947 430.115 165.041 428.667C164.859 428.35 164.95 427.988 165.267 427.807Z" fill="#6080D1"/>
<path d="M153.806 412.461C153.624 412.19 153.67 411.782 153.941 411.601C154.213 411.42 154.621 411.466 154.802 411.737L155.708 413.005C156.388 413.91 157.022 414.815 157.702 415.766C157.883 416.037 157.837 416.445 157.566 416.626C157.475 416.716 157.384 416.716 157.249 416.762C157.022 416.762 156.841 416.671 156.705 416.49C156.025 415.585 155.391 414.634 154.712 413.729L153.806 412.461Z" fill="#6080D1"/>
<path d="M140.803 392.137C140.712 392.182 140.622 392.228 140.531 392.228C140.305 392.228 140.078 392.137 139.942 391.911C139.081 390.507 138.175 389.059 137.36 387.701C137.179 387.384 137.269 387.022 137.586 386.841C137.904 386.66 138.266 386.75 138.447 387.067C139.263 388.425 140.123 389.874 141.03 391.277C141.211 391.549 141.12 391.956 140.803 392.137Z" fill="#6080D1"/>
<path d="M170.16 436.362C170.477 436.226 170.839 436.317 171.02 436.634C171.791 438.173 172.47 439.666 173.104 441.16C173.24 441.477 173.104 441.839 172.787 441.975C172.742 442.02 172.651 442.02 172.606 442.02C172.334 442.065 172.062 441.884 171.972 441.658C171.338 440.21 170.658 438.716 169.888 437.222C169.752 436.905 169.888 436.498 170.16 436.362Z" fill="#6080D1"/>
<path d="M177.318 461.123C176.955 461.168 176.684 460.896 176.638 460.534C176.638 460.308 176.593 460.036 176.593 459.81C176.457 458.407 176.321 457.004 176.095 455.691C176.049 455.329 176.276 455.012 176.638 454.967C177.001 454.921 177.318 455.148 177.363 455.51C177.59 456.868 177.771 458.316 177.861 459.72C177.861 459.946 177.907 460.217 177.907 460.444C177.907 460.806 177.635 461.078 177.318 461.123Z" fill="#6080D1"/>
<path d="M175.868 451.345C175.823 451.345 175.823 451.345 175.777 451.345C175.46 451.39 175.188 451.164 175.098 450.892C174.735 449.353 174.237 447.769 173.739 446.185C173.648 445.868 173.784 445.506 174.146 445.37C174.463 445.279 174.826 445.415 174.962 445.777C175.505 447.362 175.958 448.991 176.366 450.576C176.412 450.938 176.185 451.3 175.868 451.345Z" fill="#6080D1"/>
<path d="M176.638 470.312C176.729 468.682 176.819 467.008 176.819 465.423C176.819 465.061 177.091 464.79 177.454 464.79C177.816 464.79 178.088 465.061 178.088 465.423C178.088 467.053 178.043 468.728 177.907 470.403C177.907 470.719 177.635 470.946 177.318 470.991C177.272 470.991 177.272 470.991 177.227 470.991C176.865 470.991 176.638 470.674 176.638 470.312Z" fill="#6080D1"/>
<path d="M176.14 475.201C176.185 474.839 176.502 474.612 176.865 474.658C177.227 474.703 177.454 475.02 177.408 475.382C177.182 477.011 176.91 478.641 176.593 480.316C176.548 480.587 176.321 480.814 176.049 480.814C176.004 480.814 175.913 480.814 175.868 480.814C175.506 480.769 175.324 480.406 175.37 480.09C175.687 478.415 175.959 476.785 176.14 475.201Z" fill="#6080D1"/>
<path d="M114.844 332.385C115.161 332.295 115.524 332.521 115.614 332.838C115.977 334.422 116.384 336.007 116.792 337.591C116.883 337.908 116.701 338.27 116.339 338.361C116.294 338.361 116.248 338.361 116.248 338.361C115.931 338.406 115.659 338.179 115.569 337.908C115.161 336.324 114.753 334.694 114.391 333.11C114.255 332.793 114.482 332.476 114.844 332.385Z" fill="#6080D1"/>
<path d="M117.336 341.936C117.653 341.846 118.015 342.027 118.106 342.344C118.559 343.883 119.057 345.467 119.601 347.052C119.691 347.368 119.556 347.731 119.193 347.866C119.148 347.866 119.102 347.912 119.057 347.912C118.785 347.957 118.514 347.776 118.423 347.504C117.879 345.92 117.381 344.336 116.928 342.796C116.792 342.389 116.973 342.027 117.336 341.936Z" fill="#6080D1"/>
<path d="M120.417 351.306C120.734 351.171 121.096 351.352 121.232 351.668C121.776 353.208 122.41 354.747 122.999 356.24C123.135 356.557 122.954 356.919 122.637 357.055C122.591 357.1 122.501 357.1 122.456 357.1C122.184 357.146 121.912 356.965 121.821 356.693C121.187 355.154 120.598 353.615 120.054 352.076C119.919 351.804 120.1 351.442 120.417 351.306Z" fill="#6080D1"/>
<path d="M112.987 322.653C113.349 322.607 113.667 322.834 113.712 323.196C113.938 324.78 114.256 326.41 114.527 328.039C114.573 328.402 114.391 328.718 114.029 328.764H113.984C113.667 328.809 113.395 328.583 113.304 328.266C112.987 326.636 112.715 325.007 112.443 323.377C112.443 323.06 112.67 322.698 112.987 322.653Z" fill="#6080D1"/>
<path d="M111.945 312.83C112.307 312.785 112.579 313.056 112.624 313.419C112.67 313.962 112.715 314.55 112.76 315.093C112.851 316.135 112.942 317.221 113.077 318.307C113.123 318.67 112.851 318.941 112.534 318.986C112.217 319.032 111.9 318.76 111.854 318.443C111.718 317.357 111.628 316.27 111.537 315.184C111.492 314.596 111.447 314.052 111.401 313.464C111.356 313.192 111.582 312.875 111.945 312.83Z" fill="#6080D1"/>
<path d="M124.086 360.496C124.403 360.36 124.766 360.496 124.902 360.813C125.536 362.306 126.216 363.8 126.895 365.294C127.031 365.611 126.895 365.973 126.578 366.109C126.533 366.154 126.442 366.154 126.351 366.154C126.08 366.154 125.853 366.018 125.717 365.792C125.038 364.298 124.358 362.759 123.679 361.265C123.588 360.994 123.769 360.632 124.086 360.496Z" fill="#6080D1"/>
<path d="M142.796 395.26C143.068 395.079 143.476 395.17 143.657 395.441C144.518 396.799 145.424 398.203 146.375 399.561C146.557 399.832 146.466 400.24 146.194 400.421C146.104 400.466 146.013 400.511 145.922 400.511C145.696 400.511 145.469 400.421 145.333 400.24C144.427 398.836 143.476 397.433 142.615 396.075C142.434 395.803 142.525 395.441 142.796 395.26Z" fill="#6080D1"/>
<path d="M128.209 369.459C128.526 369.323 128.888 369.413 129.07 369.73C129.795 371.179 130.519 372.672 131.29 374.121C131.471 374.438 131.335 374.8 131.018 374.981C130.927 375.026 130.882 375.026 130.791 375.072C130.565 375.072 130.293 374.981 130.157 374.755C129.387 373.306 128.662 371.812 127.937 370.319C127.756 370.002 127.892 369.64 128.209 369.459Z" fill="#6080D1"/>
<path d="M148.233 403.499C148.505 403.318 148.913 403.363 149.094 403.68C150 405.038 150.951 406.396 151.903 407.754C152.084 408.026 152.038 408.433 151.767 408.614C151.676 408.659 151.585 408.705 151.45 408.705C151.223 408.705 150.996 408.614 150.861 408.433C149.909 407.075 148.958 405.717 148.052 404.359C147.916 404.087 147.961 403.68 148.233 403.499Z" fill="#6080D1"/>
<path d="M132.739 378.24C133.057 378.059 133.419 378.195 133.6 378.512C134.37 379.915 135.186 381.364 136.001 382.812C136.182 383.129 136.047 383.491 135.775 383.672C135.684 383.718 135.594 383.763 135.503 383.763C135.276 383.763 135.05 383.672 134.914 383.446C134.098 381.997 133.283 380.549 132.513 379.146C132.286 378.783 132.422 378.421 132.739 378.24Z" fill="#6080D1"/>
<path d="M172.244 465.377C172.289 463.703 172.244 461.982 172.153 460.353C172.153 459.991 172.38 459.719 172.742 459.674C173.105 459.674 173.376 459.9 173.422 460.262C173.512 461.937 173.558 463.703 173.512 465.423C173.512 465.739 173.241 466.011 172.923 466.011C172.878 466.011 172.878 466.011 172.833 466.011C172.516 466.011 172.244 465.739 172.244 465.377Z" fill="#6080D1"/>
<path d="M171.927 470.402C171.972 470.04 172.289 469.814 172.606 469.859C172.969 469.904 173.195 470.176 173.15 470.538C173.014 472.213 172.788 473.933 172.516 475.653C172.47 475.924 172.244 476.151 171.972 476.196C171.927 476.196 171.881 476.196 171.836 476.196C171.474 476.151 171.247 475.834 171.338 475.472C171.564 473.752 171.791 472.077 171.927 470.402Z" fill="#6080D1"/>
<path d="M170.341 480.406C170.432 480.089 170.749 479.863 171.111 479.908C171.428 479.999 171.655 480.315 171.609 480.678C171.247 482.307 170.839 483.982 170.341 485.657C170.25 485.929 170.024 486.11 169.797 486.11C169.707 486.11 169.661 486.11 169.571 486.11C169.254 486.019 169.027 485.657 169.118 485.34C169.571 483.665 169.979 482.036 170.341 480.406Z" fill="#6080D1"/>
<path d="M157.112 422.601C157.384 422.42 157.792 422.465 157.973 422.737C159.015 424.23 159.967 425.634 160.873 426.946C161.054 427.218 160.963 427.625 160.691 427.806C160.601 427.852 160.51 427.897 160.42 427.897C160.193 427.897 159.967 427.806 159.831 427.625C158.97 426.313 158.019 424.909 156.977 423.461C156.75 423.235 156.841 422.827 157.112 422.601Z" fill="#6080D1"/>
<path d="M137.043 394.672C136.953 394.717 136.862 394.762 136.771 394.762C136.545 394.762 136.318 394.672 136.182 394.49L135.865 393.993C135.05 392.725 134.189 391.458 133.419 390.19C133.238 389.918 133.328 389.511 133.6 389.33C133.872 389.149 134.28 389.239 134.461 389.511C135.231 390.733 136.092 392.046 136.907 393.314L137.224 393.811C137.406 394.083 137.36 394.445 137.043 394.672Z" fill="#6080D1"/>
<path d="M150.951 415.268C150.725 414.996 150.815 414.589 151.087 414.408C151.359 414.181 151.767 414.272 151.948 414.543L153.126 416.082C153.76 416.942 154.394 417.757 154.983 418.617C155.21 418.889 155.119 419.296 154.847 419.477C154.757 419.568 154.621 419.568 154.53 419.613C154.304 419.613 154.122 419.523 153.986 419.342C153.352 418.482 152.718 417.667 152.129 416.807L150.951 415.268Z" fill="#6080D1"/>
<path d="M148.777 411.329C148.686 411.42 148.55 411.42 148.46 411.465C148.233 411.465 148.052 411.374 147.916 411.193C146.919 409.835 145.923 408.432 144.926 407.074C144.745 406.803 144.79 406.395 145.062 406.214C145.334 406.033 145.742 406.078 145.923 406.35C146.919 407.708 147.916 409.111 148.913 410.469C149.139 410.695 149.094 411.103 148.777 411.329Z" fill="#6080D1"/>
<path d="M165.901 436.633C165.811 436.679 165.766 436.679 165.675 436.724C165.448 436.724 165.177 436.633 165.086 436.407C164.316 435.004 163.5 433.51 162.594 432.016C162.413 431.699 162.504 431.337 162.821 431.156C163.138 430.975 163.5 431.066 163.682 431.383C164.588 432.876 165.448 434.415 166.219 435.819C166.309 436.09 166.219 436.452 165.901 436.633Z" fill="#6080D1"/>
<path d="M172.289 455.871C172.289 455.871 172.244 455.871 172.289 455.871C171.927 455.917 171.609 455.69 171.564 455.328C171.292 453.653 170.975 452.024 170.567 450.394C170.477 450.077 170.703 449.715 171.021 449.625C171.338 449.534 171.7 449.76 171.791 450.077C172.198 451.752 172.561 453.427 172.833 455.102C172.878 455.509 172.651 455.826 172.289 455.871Z" fill="#6080D1"/>
<path d="M169.933 445.958C169.888 445.958 169.842 446.003 169.797 446.003C169.525 446.049 169.253 445.868 169.163 445.596C168.619 444.012 167.985 442.427 167.305 440.888C167.169 440.571 167.305 440.209 167.623 440.073C167.94 439.938 168.302 440.073 168.438 440.39C169.118 441.975 169.797 443.559 170.341 445.189C170.431 445.505 170.25 445.868 169.933 445.958Z" fill="#6080D1"/>
<path d="M108.774 333.743C109.091 333.652 109.453 333.879 109.544 334.195C109.952 335.825 110.359 337.455 110.858 339.084C110.948 339.401 110.767 339.763 110.405 339.854C110.359 339.854 110.314 339.854 110.269 339.854C109.997 339.899 109.68 339.673 109.589 339.401C109.136 337.771 108.683 336.097 108.275 334.467C108.23 334.15 108.457 333.833 108.774 333.743Z" fill="#6080D1"/>
<path d="M114.935 353.162C115.252 353.027 115.615 353.208 115.75 353.524C116.385 355.064 117.019 356.648 117.699 358.232C117.834 358.549 117.699 358.911 117.381 359.047C117.336 359.092 117.245 359.092 117.2 359.092C116.928 359.138 116.657 358.956 116.566 358.73C115.886 357.146 115.252 355.561 114.618 354.022C114.437 353.66 114.618 353.298 114.935 353.162Z" fill="#6080D1"/>
<path d="M123.407 371.676C123.724 371.495 124.086 371.631 124.267 371.948C125.038 373.442 125.853 374.936 126.669 376.429C126.85 376.746 126.714 377.108 126.442 377.289C126.351 377.335 126.261 377.38 126.17 377.38C125.944 377.38 125.672 377.289 125.581 377.063C124.766 375.569 123.95 374.03 123.135 372.582C122.954 372.22 123.09 371.857 123.407 371.676Z" fill="#6080D1"/>
<path d="M111.538 343.566C111.855 343.475 112.217 343.656 112.308 343.973C112.806 345.558 113.35 347.187 113.939 348.771C114.075 349.088 113.893 349.45 113.576 349.586C113.531 349.586 113.486 349.632 113.44 349.632C113.168 349.677 112.897 349.496 112.806 349.224C112.217 347.595 111.673 345.965 111.175 344.381C110.994 344.018 111.175 343.656 111.538 343.566Z" fill="#6080D1"/>
<path d="M118.922 362.532C119.239 362.397 119.601 362.532 119.737 362.849C120.462 364.388 121.187 365.927 121.912 367.421C122.048 367.738 121.957 368.1 121.64 368.281C121.549 368.326 121.504 368.326 121.413 368.326C121.142 368.326 120.915 368.236 120.779 367.964C120.009 366.425 119.284 364.886 118.559 363.347C118.469 363.076 118.605 362.668 118.922 362.532Z" fill="#6080D1"/>
<path d="M105.557 313.645C105.92 313.599 106.191 313.871 106.237 314.233L106.282 314.912C106.418 316.361 106.554 317.854 106.735 319.303C106.78 319.665 106.554 319.982 106.191 319.982C106.191 319.982 106.191 319.982 106.146 319.982C105.829 320.027 105.512 319.756 105.467 319.439C105.285 317.99 105.104 316.496 105.014 315.003L104.968 314.324C104.968 313.961 105.24 313.69 105.557 313.645Z" fill="#6080D1"/>
<path d="M106.78 323.739C107.143 323.648 107.46 323.92 107.505 324.237C107.777 325.866 108.094 327.541 108.457 329.216C108.547 329.533 108.321 329.895 107.958 329.94C107.913 329.94 107.913 329.94 107.868 329.94C107.551 329.986 107.279 329.759 107.188 329.442C106.826 327.768 106.509 326.093 106.237 324.418C106.191 324.146 106.418 323.829 106.78 323.739Z" fill="#6080D1"/>
<path d="M139.218 397.84C139.49 397.659 139.897 397.704 140.079 398.021C140.985 399.379 141.981 400.783 142.978 402.186C143.159 402.457 143.114 402.865 142.842 403.046C142.752 403.091 142.661 403.136 142.525 403.136C142.298 403.136 142.072 403.046 141.936 402.865C140.939 401.416 139.943 400.013 139.037 398.655C138.855 398.429 138.901 398.021 139.218 397.84Z" fill="#6080D1"/>
<path d="M128.3 380.594C128.617 380.413 128.979 380.503 129.161 380.82C130.021 382.269 130.882 383.717 131.788 385.166C131.969 385.483 131.879 385.845 131.562 386.026C131.471 386.071 131.38 386.116 131.29 386.116C131.063 386.116 130.837 386.026 130.701 385.799C129.795 384.351 128.934 382.857 128.073 381.409C127.892 381.182 128.028 380.775 128.3 380.594Z" fill="#6080D1"/>
<path d="M118.967 363.619C122.682 361.446 125.853 357.915 128.163 353.434C129.975 349.949 131.289 345.784 132.331 340.397C134.189 331.027 134.642 321.431 133.69 311.925L132.422 312.061C133.328 321.431 132.875 330.891 131.063 340.171C130.021 345.422 128.752 349.451 126.985 352.846C124.811 357.101 121.775 360.45 118.287 362.533L118.967 363.619Z" fill="#6080D1"/>
<path d="M120.643 456.777C126.805 464.79 133.872 470.176 134.37 480.95C134.416 481.674 134.416 482.353 134.37 483.077C135.14 482.851 135.865 482.579 136.59 482.262C139.127 481.131 141.347 479.501 143.612 477.872C146.149 476.016 148.686 474.16 151.223 472.304C142.887 470.584 135.231 466.464 128.435 461.304C123.18 457.275 118.423 452.658 113.893 447.86C116.113 450.802 118.378 453.79 120.643 456.777Z" fill="#6080D1"/>
<path d="M170.25 217.816C175.596 217.363 176.366 225.692 170.975 226.145C165.629 226.643 164.859 218.314 170.25 217.816Z" fill="#6080D1"/>
<path d="M121.096 217.725C126.442 217.273 127.212 225.602 121.821 226.054C116.43 226.552 115.705 218.223 121.096 217.725Z" fill="#6080D1"/>
<path d="M167.713 254.572L164.089 289.744L111.583 288.296L120.054 252.399L167.713 254.572Z" fill="#6080D1"/>
<path d="M152.492 311.291C152.854 311.246 153.126 311.517 153.171 311.88C153.624 316.904 155.21 321.793 156.75 326.501L160.284 337.364C162.821 345.15 165.675 353.977 171.564 360.405C171.972 360.767 172.335 361.084 172.697 361.446C173.105 360.315 173.603 359.183 174.101 358.142C174.373 357.553 174.69 356.92 174.917 356.331C176.14 353.479 176.865 350.809 177.544 347.731C170.794 336.595 163.818 325.097 160.692 312.151C160.601 311.834 160.827 311.472 161.145 311.382C161.462 311.291 161.824 311.517 161.915 311.834C164.995 324.69 171.972 336.188 178.722 347.278C178.813 347.414 178.813 347.595 178.813 347.731C178.088 350.99 177.318 353.751 176.049 356.784C175.778 357.418 175.461 358.051 175.189 358.64C174.509 360.043 173.92 361.356 173.558 362.804C173.512 363.031 173.331 363.212 173.105 363.257C173.059 363.257 173.059 363.257 173.014 363.257C172.833 363.257 172.606 363.212 172.516 363.076C171.927 362.442 171.428 361.944 170.794 361.401C170.749 361.356 170.704 361.356 170.658 361.31C170.568 361.22 170.432 361.129 170.296 361.039C170.205 360.948 170.115 360.812 170.115 360.677C164.406 354.068 161.552 345.422 159.061 337.727L155.527 326.863C153.941 322.064 152.356 317.085 151.857 311.925C151.857 311.608 152.129 311.336 152.492 311.291Z" fill="#6080D1"/>
<path d="M143.884 147.789C144.699 150.007 145.968 151.908 147.508 153.402C147.825 153.718 148.188 154.035 148.505 154.307C151.585 156.797 155.391 157.702 158.879 156.434C161.643 155.393 163.681 153.175 164.723 150.323C164.814 150.097 164.904 149.871 164.95 149.644C165.856 146.747 165.811 143.352 164.542 140.048C164.406 139.641 164.225 139.278 164.044 138.871L143.431 146.521C143.612 147.019 143.748 147.381 143.884 147.789Z" fill="#D55454"/>
<path d="M161.779 148.83C162.051 147.834 162.232 146.747 161.869 145.797C161.416 144.529 160.148 143.624 158.834 143.353C157.52 143.081 156.116 143.353 154.847 143.805C153.579 144.258 152.356 144.846 151.042 145.254C150.453 145.435 149.819 145.616 149.275 145.887C148.686 146.159 148.188 146.566 147.916 147.155C147.553 147.879 147.735 148.784 148.006 149.554C148.822 151.636 150.77 153.175 152.945 153.718C154.621 154.126 156.342 153.9 157.973 153.311C159.106 152.904 159.967 152.587 160.646 151.546C161.19 150.64 161.552 149.735 161.779 148.83Z" fill="#B53434"/>
<path d="M148.55 154.352C151.631 156.842 155.436 157.747 158.925 156.479C161.688 155.438 163.727 153.22 164.769 150.368C164.135 149.961 163.455 149.599 162.73 149.327C160.284 148.422 157.384 148.377 154.576 149.418C152.446 150.187 150.725 151.5 149.456 153.039C149.094 153.447 148.822 153.899 148.55 154.352Z" fill="#F37C7C"/>
<path d="M146.194 145.616C146.829 145.933 147.463 146.204 148.188 146.385C150.453 147.019 153.08 146.929 155.663 145.933C158.381 144.892 160.556 143.081 161.824 140.999C162.096 140.501 162.368 140.003 162.549 139.505L146.194 145.616Z" fill="white"/>
<path d="M139.218 129.953C137.859 130.134 136.907 131.357 137.043 132.669C137.224 134.027 138.448 134.978 139.761 134.842C141.121 134.661 142.072 133.439 141.936 132.126C141.8 130.768 140.577 129.772 139.218 129.953Z" fill="white"/>
<path d="M158.401 128.498C159.243 127.442 159.068 125.904 158.012 125.063C156.955 124.222 155.416 124.396 154.574 125.452C153.732 126.507 153.906 128.045 154.963 128.887C156.019 129.728 157.559 129.554 158.401 128.498Z" fill="white"/>
<path d="M141.981 131.131C142.117 132.308 141.256 133.394 140.078 133.53C138.9 133.666 137.813 132.805 137.677 131.629C137.541 130.452 138.402 129.365 139.58 129.229C140.758 129.094 141.845 129.954 141.981 131.131Z" fill="#24404C"/>
<path d="M158.789 125.472C158.925 126.649 158.064 127.736 156.886 127.872C155.708 128.007 154.621 127.147 154.485 125.97C154.349 124.793 155.21 123.707 156.388 123.571C157.565 123.435 158.653 124.296 158.789 125.472Z" fill="#24404C"/>
<path d="M161.688 109.855C158.018 110.308 154.893 112.164 152.763 114.88L137.224 119.542C135.639 119.135 133.917 118.999 132.196 119.226C124.449 120.131 118.922 127.192 119.828 134.888C120.734 142.628 127.801 148.151 135.503 147.245C143.204 146.34 148.777 139.279 147.871 131.583C147.689 130.044 147.236 128.596 146.647 127.283L150.272 126.242C151.812 132.76 158.064 137.287 164.905 136.472C172.244 135.612 177.499 128.913 176.638 121.625C175.687 114.246 169.027 108.995 161.688 109.855ZM135.412 146.476C128.073 147.336 121.413 142.085 120.553 134.752C119.692 127.419 124.947 120.765 132.286 119.905C139.625 119.044 146.285 124.295 147.146 131.629C148.006 138.916 142.751 145.616 135.412 146.476ZM146.285 126.559C146.104 126.197 145.877 125.834 145.651 125.472L149.909 124.205C149.909 124.386 149.909 124.522 149.954 124.703C150 124.974 150.045 125.201 150.09 125.472L146.285 126.559ZM149.864 123.481L145.198 124.884C143.521 122.575 141.12 120.81 138.447 119.905L152.038 115.831C150.589 118.049 149.819 120.674 149.864 123.481ZM164.769 135.703C157.837 136.517 151.54 131.538 150.679 124.612C149.864 117.686 154.847 111.394 161.779 110.534C168.71 109.72 175.007 114.699 175.868 121.625C176.683 128.55 171.7 134.888 164.769 135.703Z" fill="#999999"/>
<path d="M150.543 137.74C150.77 137.106 151.268 136.563 151.948 136.291C152.627 136.02 153.443 136.065 154.077 136.427C154.711 136.789 155.21 137.513 155.21 138.238C155.21 138.962 154.802 139.686 154.168 139.958C154.621 139.46 154.711 138.826 154.621 138.283C154.53 137.74 154.168 137.287 153.669 137.061C153.216 136.789 152.627 136.699 152.084 136.834C151.54 136.97 150.996 137.287 150.543 137.74Z" fill="#B53434"/>
<path d="M156.841 124.839C156.252 124.929 156.343 125.834 156.931 125.744C157.52 125.699 157.43 124.793 156.841 124.839Z" fill="white"/>
<path d="M139.988 130.497C139.399 130.588 139.49 131.493 140.078 131.402C140.713 131.312 140.577 130.407 139.988 130.497Z" fill="white"/>
<path d="M134.098 125.563C133.917 125.563 133.781 125.472 133.691 125.336C133.645 125.155 133.736 124.929 133.917 124.884L138.991 123.209C139.172 123.164 139.399 123.254 139.444 123.435C139.49 123.616 139.399 123.843 139.218 123.888L134.144 125.563H134.098Z" fill="#24404C"/>
<path d="M152.899 120.176C152.718 120.176 152.582 120.086 152.492 119.905C152.446 119.724 152.537 119.497 152.718 119.452L157.565 117.958C157.747 117.913 157.973 118.004 158.019 118.185C158.064 118.366 157.973 118.592 157.792 118.637L152.945 120.131C152.945 120.176 152.899 120.176 152.899 120.176Z" fill="#24404C"/>
<path d="M115.207 144.394C117.064 144.666 118.786 145.526 120.1 146.884C119.375 146.34 118.378 146.567 117.563 146.884C115.614 147.608 113.621 148.83 112.987 150.822C112.715 149.735 112.987 148.513 113.666 147.608C114.346 146.703 115.433 146.114 116.566 146.024C115.705 146.069 114.572 145.616 113.712 145.571C113.213 145.526 112.715 145.526 112.217 145.526C111.945 145.526 110.314 145.526 110.314 145.526C110.314 145.526 111.809 144.62 112.081 144.575C113.123 144.303 114.165 144.258 115.207 144.394Z" fill="#FFCE6F"/>
<path d="M96.8133 124.929C97.0851 126.332 97.4475 127.736 97.8553 129.094C98.263 130.497 102.114 141.859 103.246 141.814C105.376 141.723 107.46 141.225 109.408 140.365C110.903 139.686 112.307 138.826 113.53 137.74C116.248 135.386 118.196 131.855 117.834 128.279C117.608 125.789 115.886 123.39 114.527 121.263C115.977 120.946 117.426 120.584 118.65 119.769C120.099 118.818 121.096 117.37 121.821 115.831C123.542 112.209 123.452 108 122.364 104.152C133.6 108.905 146.149 110.534 158.199 108.814C158.607 108.769 159.015 108.679 159.423 108.633C160.419 108.497 161.371 108.316 162.367 108.045C163.817 107.683 165.221 107.23 166.535 106.551C166.988 106.325 155.436 92.3826 153.805 91.0246C148.958 86.9959 142.932 84.3252 136.635 83.5557C125.943 82.243 114.255 85.2758 106.055 92.3826C100.891 96.8187 97.8099 102.93 96.5868 109.493C96.179 111.576 95.9978 113.748 95.9525 115.876C95.9525 116.057 95.9525 116.193 95.9525 116.374C95.9072 119.316 96.2243 122.168 96.8133 124.929Z" fill="#39518F"/>
<path opacity="0.2" d="M143.159 88.4897C139.218 87.0412 135.14 85.8643 130.927 85.638C126.714 85.4116 122.41 86.2264 118.876 88.4897C118.469 88.7613 118.106 89.0329 117.88 89.4403C117.653 89.8477 117.698 90.4362 118.061 90.7078C118.287 90.8889 118.605 90.8889 118.922 90.8889C120.598 90.8436 122.229 90.3909 123.86 90.0741C131.471 88.4897 139.58 89.7119 146.376 93.4238C147.1 93.8312 147.961 94.2838 148.777 94.0575C150.861 93.5143 148.822 91.6131 148.097 91.0247C146.647 89.8477 144.881 89.1235 143.159 88.4897Z" fill="white"/>
</g>
</g>
</g>
<defs>
<filter id="filter0_d" x="88.8901" y="104.774" width="475.962" height="558.996" filterUnits="userSpaceOnUse" color-interpolation-filters="sRGB">
<feFlood flood-opacity="0" result="BackgroundImageFix"/>
<feColorMatrix in="SourceAlpha" type="matrix" values="0 0 0 0 0 0 0 0 0 0 0 0 0 0 0 0 0 0 127 0"/>
<feOffset dy="14"/>
<feGaussianBlur stdDeviation="17"/>
<feColorMatrix type="matrix" values="0 0 0 0 0 0 0 0 0 0 0 0 0 0 0 0 0 0 0.12 0"/>
<feBlend mode="normal" in2="BackgroundImageFix" result="effect1_dropShadow"/>
<feBlend mode="normal" in="SourceGraphic" in2="effect1_dropShadow" result="shape"/>
</filter>
<filter id="filter1_d" x="-27.1758" y="-17" width="331.358" height="738.332" filterUnits="userSpaceOnUse" color-interpolation-filters="sRGB">
<feFlood flood-opacity="0" result="BackgroundImageFix"/>
<feColorMatrix in="SourceAlpha" type="matrix" values="0 0 0 0 0 0 0 0 0 0 0 0 0 0 0 0 0 0 127 0"/>
<feOffset dy="14"/>
<feGaussianBlur stdDeviation="17"/>
<feColorMatrix type="matrix" values="0 0 0 0 0 0 0 0 0 0 0 0 0 0 0 0 0 0 0.12 0"/>
<feBlend mode="normal" in2="BackgroundImageFix" result="effect1_dropShadow"/>
<feBlend mode="normal" in="SourceGraphic" in2="effect1_dropShadow" result="shape"/>
</filter>
<clipPath id="clip0">
<rect width="545" height="484" fill="white"/>
</clipPath>
</defs>
</svg>
